%TF.GenerationSoftware,KiCad,Pcbnew,8.0.3-8.0.3-0~ubuntu22.04.1*%
%TF.CreationDate,2024-10-04T19:55:40+02:00*%
%TF.ProjectId,nrf52832_devboard,6e726635-3238-4333-925f-646576626f61,0.1*%
%TF.SameCoordinates,Original*%
%TF.FileFunction,Legend,Top*%
%TF.FilePolarity,Positive*%
%FSLAX46Y46*%
G04 Gerber Fmt 4.6, Leading zero omitted, Abs format (unit mm)*
G04 Created by KiCad (PCBNEW 8.0.3-8.0.3-0~ubuntu22.04.1) date 2024-10-04 19:55:40*
%MOMM*%
%LPD*%
G01*
G04 APERTURE LIST*
G04 Aperture macros list*
%AMRoundRect*
0 Rectangle with rounded corners*
0 $1 Rounding radius*
0 $2 $3 $4 $5 $6 $7 $8 $9 X,Y pos of 4 corners*
0 Add a 4 corners polygon primitive as box body*
4,1,4,$2,$3,$4,$5,$6,$7,$8,$9,$2,$3,0*
0 Add four circle primitives for the rounded corners*
1,1,$1+$1,$2,$3*
1,1,$1+$1,$4,$5*
1,1,$1+$1,$6,$7*
1,1,$1+$1,$8,$9*
0 Add four rect primitives between the rounded corners*
20,1,$1+$1,$2,$3,$4,$5,0*
20,1,$1+$1,$4,$5,$6,$7,0*
20,1,$1+$1,$6,$7,$8,$9,0*
20,1,$1+$1,$8,$9,$2,$3,0*%
%AMFreePoly0*
4,1,19,0.500000,-0.750000,0.000000,-0.750000,0.000000,-0.744911,-0.071157,-0.744911,-0.207708,-0.704816,-0.327430,-0.627875,-0.420627,-0.520320,-0.479746,-0.390866,-0.500000,-0.250000,-0.500000,0.250000,-0.479746,0.390866,-0.420627,0.520320,-0.327430,0.627875,-0.207708,0.704816,-0.071157,0.744911,0.000000,0.744911,0.000000,0.750000,0.500000,0.750000,0.500000,-0.750000,0.500000,-0.750000,
$1*%
%AMFreePoly1*
4,1,19,0.000000,0.744911,0.071157,0.744911,0.207708,0.704816,0.327430,0.627875,0.420627,0.520320,0.479746,0.390866,0.500000,0.250000,0.500000,-0.250000,0.479746,-0.390866,0.420627,-0.520320,0.327430,-0.627875,0.207708,-0.704816,0.071157,-0.744911,0.000000,-0.744911,0.000000,-0.750000,-0.500000,-0.750000,-0.500000,0.750000,0.000000,0.750000,0.000000,0.744911,0.000000,0.744911,
$1*%
G04 Aperture macros list end*
%ADD10C,0.150000*%
%ADD11C,0.120000*%
%ADD12RoundRect,0.175000X-0.175000X-0.425000X0.175000X-0.425000X0.175000X0.425000X-0.175000X0.425000X0*%
%ADD13RoundRect,0.190000X0.190000X0.410000X-0.190000X0.410000X-0.190000X-0.410000X0.190000X-0.410000X0*%
%ADD14RoundRect,0.200000X0.200000X0.400000X-0.200000X0.400000X-0.200000X-0.400000X0.200000X-0.400000X0*%
%ADD15RoundRect,0.175000X0.175000X0.425000X-0.175000X0.425000X-0.175000X-0.425000X0.175000X-0.425000X0*%
%ADD16RoundRect,0.190000X-0.190000X-0.410000X0.190000X-0.410000X0.190000X0.410000X-0.190000X0.410000X0*%
%ADD17RoundRect,0.200000X-0.200000X-0.400000X0.200000X-0.400000X0.200000X0.400000X-0.200000X0.400000X0*%
%ADD18O,1.100000X1.700000*%
%ADD19RoundRect,0.237500X-0.287500X-0.237500X0.287500X-0.237500X0.287500X0.237500X-0.287500X0.237500X0*%
%ADD20RoundRect,0.237500X-0.250000X-0.237500X0.250000X-0.237500X0.250000X0.237500X-0.250000X0.237500X0*%
%ADD21RoundRect,0.140000X0.140000X0.170000X-0.140000X0.170000X-0.140000X-0.170000X0.140000X-0.170000X0*%
%ADD22R,0.800000X0.900000*%
%ADD23RoundRect,0.237500X0.300000X0.237500X-0.300000X0.237500X-0.300000X-0.237500X0.300000X-0.237500X0*%
%ADD24RoundRect,0.155000X0.155000X-0.212500X0.155000X0.212500X-0.155000X0.212500X-0.155000X-0.212500X0*%
%ADD25RoundRect,0.155000X-0.155000X0.212500X-0.155000X-0.212500X0.155000X-0.212500X0.155000X0.212500X0*%
%ADD26RoundRect,0.237500X0.287500X0.237500X-0.287500X0.237500X-0.287500X-0.237500X0.287500X-0.237500X0*%
%ADD27RoundRect,0.155000X0.212500X0.155000X-0.212500X0.155000X-0.212500X-0.155000X0.212500X-0.155000X0*%
%ADD28RoundRect,0.135000X0.185000X-0.135000X0.185000X0.135000X-0.185000X0.135000X-0.185000X-0.135000X0*%
%ADD29RoundRect,0.050000X0.050000X-0.350000X0.050000X0.350000X-0.050000X0.350000X-0.050000X-0.350000X0*%
%ADD30RoundRect,0.050000X0.350000X-0.050000X0.350000X0.050000X-0.350000X0.050000X-0.350000X-0.050000X0*%
%ADD31R,4.600000X4.600000*%
%ADD32FreePoly0,90.000000*%
%ADD33FreePoly1,90.000000*%
%ADD34RoundRect,0.147500X0.172500X-0.147500X0.172500X0.147500X-0.172500X0.147500X-0.172500X-0.147500X0*%
%ADD35RoundRect,0.160000X0.160000X-0.222500X0.160000X0.222500X-0.160000X0.222500X-0.160000X-0.222500X0*%
%ADD36RoundRect,0.375000X-0.625000X-0.375000X0.625000X-0.375000X0.625000X0.375000X-0.625000X0.375000X0*%
%ADD37RoundRect,0.500000X-0.500000X-1.400000X0.500000X-1.400000X0.500000X1.400000X-0.500000X1.400000X0*%
%ADD38R,1.700000X1.700000*%
%ADD39O,1.700000X1.700000*%
G04 APERTURE END LIST*
D10*
X147656779Y-81734819D02*
X147656779Y-80734819D01*
X147656779Y-80734819D02*
X148037731Y-80734819D01*
X148037731Y-80734819D02*
X148132969Y-80782438D01*
X148132969Y-80782438D02*
X148180588Y-80830057D01*
X148180588Y-80830057D02*
X148228207Y-80925295D01*
X148228207Y-80925295D02*
X148228207Y-81068152D01*
X148228207Y-81068152D02*
X148180588Y-81163390D01*
X148180588Y-81163390D02*
X148132969Y-81211009D01*
X148132969Y-81211009D02*
X148037731Y-81258628D01*
X148037731Y-81258628D02*
X147656779Y-81258628D01*
X148847255Y-80734819D02*
X148942493Y-80734819D01*
X148942493Y-80734819D02*
X149037731Y-80782438D01*
X149037731Y-80782438D02*
X149085350Y-80830057D01*
X149085350Y-80830057D02*
X149132969Y-80925295D01*
X149132969Y-80925295D02*
X149180588Y-81115771D01*
X149180588Y-81115771D02*
X149180588Y-81353866D01*
X149180588Y-81353866D02*
X149132969Y-81544342D01*
X149132969Y-81544342D02*
X149085350Y-81639580D01*
X149085350Y-81639580D02*
X149037731Y-81687200D01*
X149037731Y-81687200D02*
X148942493Y-81734819D01*
X148942493Y-81734819D02*
X148847255Y-81734819D01*
X148847255Y-81734819D02*
X148752017Y-81687200D01*
X148752017Y-81687200D02*
X148704398Y-81639580D01*
X148704398Y-81639580D02*
X148656779Y-81544342D01*
X148656779Y-81544342D02*
X148609160Y-81353866D01*
X148609160Y-81353866D02*
X148609160Y-81115771D01*
X148609160Y-81115771D02*
X148656779Y-80925295D01*
X148656779Y-80925295D02*
X148704398Y-80830057D01*
X148704398Y-80830057D02*
X148752017Y-80782438D01*
X148752017Y-80782438D02*
X148847255Y-80734819D01*
X149561541Y-80830057D02*
X149609160Y-80782438D01*
X149609160Y-80782438D02*
X149704398Y-80734819D01*
X149704398Y-80734819D02*
X149942493Y-80734819D01*
X149942493Y-80734819D02*
X150037731Y-80782438D01*
X150037731Y-80782438D02*
X150085350Y-80830057D01*
X150085350Y-80830057D02*
X150132969Y-80925295D01*
X150132969Y-80925295D02*
X150132969Y-81020533D01*
X150132969Y-81020533D02*
X150085350Y-81163390D01*
X150085350Y-81163390D02*
X149513922Y-81734819D01*
X149513922Y-81734819D02*
X150132969Y-81734819D01*
X147656779Y-102054819D02*
X147656779Y-101054819D01*
X147656779Y-101054819D02*
X148037731Y-101054819D01*
X148037731Y-101054819D02*
X148132969Y-101102438D01*
X148132969Y-101102438D02*
X148180588Y-101150057D01*
X148180588Y-101150057D02*
X148228207Y-101245295D01*
X148228207Y-101245295D02*
X148228207Y-101388152D01*
X148228207Y-101388152D02*
X148180588Y-101483390D01*
X148180588Y-101483390D02*
X148132969Y-101531009D01*
X148132969Y-101531009D02*
X148037731Y-101578628D01*
X148037731Y-101578628D02*
X147656779Y-101578628D01*
X149180588Y-102054819D02*
X148609160Y-102054819D01*
X148894874Y-102054819D02*
X148894874Y-101054819D01*
X148894874Y-101054819D02*
X148799636Y-101197676D01*
X148799636Y-101197676D02*
X148704398Y-101292914D01*
X148704398Y-101292914D02*
X148609160Y-101340533D01*
X149799636Y-101054819D02*
X149894874Y-101054819D01*
X149894874Y-101054819D02*
X149990112Y-101102438D01*
X149990112Y-101102438D02*
X150037731Y-101150057D01*
X150037731Y-101150057D02*
X150085350Y-101245295D01*
X150085350Y-101245295D02*
X150132969Y-101435771D01*
X150132969Y-101435771D02*
X150132969Y-101673866D01*
X150132969Y-101673866D02*
X150085350Y-101864342D01*
X150085350Y-101864342D02*
X150037731Y-101959580D01*
X150037731Y-101959580D02*
X149990112Y-102007200D01*
X149990112Y-102007200D02*
X149894874Y-102054819D01*
X149894874Y-102054819D02*
X149799636Y-102054819D01*
X149799636Y-102054819D02*
X149704398Y-102007200D01*
X149704398Y-102007200D02*
X149656779Y-101959580D01*
X149656779Y-101959580D02*
X149609160Y-101864342D01*
X149609160Y-101864342D02*
X149561541Y-101673866D01*
X149561541Y-101673866D02*
X149561541Y-101435771D01*
X149561541Y-101435771D02*
X149609160Y-101245295D01*
X149609160Y-101245295D02*
X149656779Y-101150057D01*
X149656779Y-101150057D02*
X149704398Y-101102438D01*
X149704398Y-101102438D02*
X149799636Y-101054819D01*
X147656779Y-94434819D02*
X147656779Y-93434819D01*
X147656779Y-93434819D02*
X148037731Y-93434819D01*
X148037731Y-93434819D02*
X148132969Y-93482438D01*
X148132969Y-93482438D02*
X148180588Y-93530057D01*
X148180588Y-93530057D02*
X148228207Y-93625295D01*
X148228207Y-93625295D02*
X148228207Y-93768152D01*
X148228207Y-93768152D02*
X148180588Y-93863390D01*
X148180588Y-93863390D02*
X148132969Y-93911009D01*
X148132969Y-93911009D02*
X148037731Y-93958628D01*
X148037731Y-93958628D02*
X147656779Y-93958628D01*
X148847255Y-93434819D02*
X148942493Y-93434819D01*
X148942493Y-93434819D02*
X149037731Y-93482438D01*
X149037731Y-93482438D02*
X149085350Y-93530057D01*
X149085350Y-93530057D02*
X149132969Y-93625295D01*
X149132969Y-93625295D02*
X149180588Y-93815771D01*
X149180588Y-93815771D02*
X149180588Y-94053866D01*
X149180588Y-94053866D02*
X149132969Y-94244342D01*
X149132969Y-94244342D02*
X149085350Y-94339580D01*
X149085350Y-94339580D02*
X149037731Y-94387200D01*
X149037731Y-94387200D02*
X148942493Y-94434819D01*
X148942493Y-94434819D02*
X148847255Y-94434819D01*
X148847255Y-94434819D02*
X148752017Y-94387200D01*
X148752017Y-94387200D02*
X148704398Y-94339580D01*
X148704398Y-94339580D02*
X148656779Y-94244342D01*
X148656779Y-94244342D02*
X148609160Y-94053866D01*
X148609160Y-94053866D02*
X148609160Y-93815771D01*
X148609160Y-93815771D02*
X148656779Y-93625295D01*
X148656779Y-93625295D02*
X148704398Y-93530057D01*
X148704398Y-93530057D02*
X148752017Y-93482438D01*
X148752017Y-93482438D02*
X148847255Y-93434819D01*
X149513922Y-93434819D02*
X150180588Y-93434819D01*
X150180588Y-93434819D02*
X149752017Y-94434819D01*
X147656779Y-96974819D02*
X147656779Y-95974819D01*
X147656779Y-95974819D02*
X148037731Y-95974819D01*
X148037731Y-95974819D02*
X148132969Y-96022438D01*
X148132969Y-96022438D02*
X148180588Y-96070057D01*
X148180588Y-96070057D02*
X148228207Y-96165295D01*
X148228207Y-96165295D02*
X148228207Y-96308152D01*
X148228207Y-96308152D02*
X148180588Y-96403390D01*
X148180588Y-96403390D02*
X148132969Y-96451009D01*
X148132969Y-96451009D02*
X148037731Y-96498628D01*
X148037731Y-96498628D02*
X147656779Y-96498628D01*
X148847255Y-95974819D02*
X148942493Y-95974819D01*
X148942493Y-95974819D02*
X149037731Y-96022438D01*
X149037731Y-96022438D02*
X149085350Y-96070057D01*
X149085350Y-96070057D02*
X149132969Y-96165295D01*
X149132969Y-96165295D02*
X149180588Y-96355771D01*
X149180588Y-96355771D02*
X149180588Y-96593866D01*
X149180588Y-96593866D02*
X149132969Y-96784342D01*
X149132969Y-96784342D02*
X149085350Y-96879580D01*
X149085350Y-96879580D02*
X149037731Y-96927200D01*
X149037731Y-96927200D02*
X148942493Y-96974819D01*
X148942493Y-96974819D02*
X148847255Y-96974819D01*
X148847255Y-96974819D02*
X148752017Y-96927200D01*
X148752017Y-96927200D02*
X148704398Y-96879580D01*
X148704398Y-96879580D02*
X148656779Y-96784342D01*
X148656779Y-96784342D02*
X148609160Y-96593866D01*
X148609160Y-96593866D02*
X148609160Y-96355771D01*
X148609160Y-96355771D02*
X148656779Y-96165295D01*
X148656779Y-96165295D02*
X148704398Y-96070057D01*
X148704398Y-96070057D02*
X148752017Y-96022438D01*
X148752017Y-96022438D02*
X148847255Y-95974819D01*
X149752017Y-96403390D02*
X149656779Y-96355771D01*
X149656779Y-96355771D02*
X149609160Y-96308152D01*
X149609160Y-96308152D02*
X149561541Y-96212914D01*
X149561541Y-96212914D02*
X149561541Y-96165295D01*
X149561541Y-96165295D02*
X149609160Y-96070057D01*
X149609160Y-96070057D02*
X149656779Y-96022438D01*
X149656779Y-96022438D02*
X149752017Y-95974819D01*
X149752017Y-95974819D02*
X149942493Y-95974819D01*
X149942493Y-95974819D02*
X150037731Y-96022438D01*
X150037731Y-96022438D02*
X150085350Y-96070057D01*
X150085350Y-96070057D02*
X150132969Y-96165295D01*
X150132969Y-96165295D02*
X150132969Y-96212914D01*
X150132969Y-96212914D02*
X150085350Y-96308152D01*
X150085350Y-96308152D02*
X150037731Y-96355771D01*
X150037731Y-96355771D02*
X149942493Y-96403390D01*
X149942493Y-96403390D02*
X149752017Y-96403390D01*
X149752017Y-96403390D02*
X149656779Y-96451009D01*
X149656779Y-96451009D02*
X149609160Y-96498628D01*
X149609160Y-96498628D02*
X149561541Y-96593866D01*
X149561541Y-96593866D02*
X149561541Y-96784342D01*
X149561541Y-96784342D02*
X149609160Y-96879580D01*
X149609160Y-96879580D02*
X149656779Y-96927200D01*
X149656779Y-96927200D02*
X149752017Y-96974819D01*
X149752017Y-96974819D02*
X149942493Y-96974819D01*
X149942493Y-96974819D02*
X150037731Y-96927200D01*
X150037731Y-96927200D02*
X150085350Y-96879580D01*
X150085350Y-96879580D02*
X150132969Y-96784342D01*
X150132969Y-96784342D02*
X150132969Y-96593866D01*
X150132969Y-96593866D02*
X150085350Y-96498628D01*
X150085350Y-96498628D02*
X150037731Y-96451009D01*
X150037731Y-96451009D02*
X149942493Y-96403390D01*
X147656779Y-106753866D02*
X148418684Y-106753866D01*
X148037731Y-107134819D02*
X148037731Y-106372914D01*
X148799636Y-106134819D02*
X149418683Y-106134819D01*
X149418683Y-106134819D02*
X149085350Y-106515771D01*
X149085350Y-106515771D02*
X149228207Y-106515771D01*
X149228207Y-106515771D02*
X149323445Y-106563390D01*
X149323445Y-106563390D02*
X149371064Y-106611009D01*
X149371064Y-106611009D02*
X149418683Y-106706247D01*
X149418683Y-106706247D02*
X149418683Y-106944342D01*
X149418683Y-106944342D02*
X149371064Y-107039580D01*
X149371064Y-107039580D02*
X149323445Y-107087200D01*
X149323445Y-107087200D02*
X149228207Y-107134819D01*
X149228207Y-107134819D02*
X148942493Y-107134819D01*
X148942493Y-107134819D02*
X148847255Y-107087200D01*
X148847255Y-107087200D02*
X148799636Y-107039580D01*
X149704398Y-106134819D02*
X150037731Y-107134819D01*
X150037731Y-107134819D02*
X150371064Y-106134819D01*
X150609160Y-106134819D02*
X151228207Y-106134819D01*
X151228207Y-106134819D02*
X150894874Y-106515771D01*
X150894874Y-106515771D02*
X151037731Y-106515771D01*
X151037731Y-106515771D02*
X151132969Y-106563390D01*
X151132969Y-106563390D02*
X151180588Y-106611009D01*
X151180588Y-106611009D02*
X151228207Y-106706247D01*
X151228207Y-106706247D02*
X151228207Y-106944342D01*
X151228207Y-106944342D02*
X151180588Y-107039580D01*
X151180588Y-107039580D02*
X151132969Y-107087200D01*
X151132969Y-107087200D02*
X151037731Y-107134819D01*
X151037731Y-107134819D02*
X150752017Y-107134819D01*
X150752017Y-107134819D02*
X150656779Y-107087200D01*
X150656779Y-107087200D02*
X150609160Y-107039580D01*
X147656779Y-99514819D02*
X147656779Y-98514819D01*
X147656779Y-98514819D02*
X148037731Y-98514819D01*
X148037731Y-98514819D02*
X148132969Y-98562438D01*
X148132969Y-98562438D02*
X148180588Y-98610057D01*
X148180588Y-98610057D02*
X148228207Y-98705295D01*
X148228207Y-98705295D02*
X148228207Y-98848152D01*
X148228207Y-98848152D02*
X148180588Y-98943390D01*
X148180588Y-98943390D02*
X148132969Y-98991009D01*
X148132969Y-98991009D02*
X148037731Y-99038628D01*
X148037731Y-99038628D02*
X147656779Y-99038628D01*
X148847255Y-98514819D02*
X148942493Y-98514819D01*
X148942493Y-98514819D02*
X149037731Y-98562438D01*
X149037731Y-98562438D02*
X149085350Y-98610057D01*
X149085350Y-98610057D02*
X149132969Y-98705295D01*
X149132969Y-98705295D02*
X149180588Y-98895771D01*
X149180588Y-98895771D02*
X149180588Y-99133866D01*
X149180588Y-99133866D02*
X149132969Y-99324342D01*
X149132969Y-99324342D02*
X149085350Y-99419580D01*
X149085350Y-99419580D02*
X149037731Y-99467200D01*
X149037731Y-99467200D02*
X148942493Y-99514819D01*
X148942493Y-99514819D02*
X148847255Y-99514819D01*
X148847255Y-99514819D02*
X148752017Y-99467200D01*
X148752017Y-99467200D02*
X148704398Y-99419580D01*
X148704398Y-99419580D02*
X148656779Y-99324342D01*
X148656779Y-99324342D02*
X148609160Y-99133866D01*
X148609160Y-99133866D02*
X148609160Y-98895771D01*
X148609160Y-98895771D02*
X148656779Y-98705295D01*
X148656779Y-98705295D02*
X148704398Y-98610057D01*
X148704398Y-98610057D02*
X148752017Y-98562438D01*
X148752017Y-98562438D02*
X148847255Y-98514819D01*
X149656779Y-99514819D02*
X149847255Y-99514819D01*
X149847255Y-99514819D02*
X149942493Y-99467200D01*
X149942493Y-99467200D02*
X149990112Y-99419580D01*
X149990112Y-99419580D02*
X150085350Y-99276723D01*
X150085350Y-99276723D02*
X150132969Y-99086247D01*
X150132969Y-99086247D02*
X150132969Y-98705295D01*
X150132969Y-98705295D02*
X150085350Y-98610057D01*
X150085350Y-98610057D02*
X150037731Y-98562438D01*
X150037731Y-98562438D02*
X149942493Y-98514819D01*
X149942493Y-98514819D02*
X149752017Y-98514819D01*
X149752017Y-98514819D02*
X149656779Y-98562438D01*
X149656779Y-98562438D02*
X149609160Y-98610057D01*
X149609160Y-98610057D02*
X149561541Y-98705295D01*
X149561541Y-98705295D02*
X149561541Y-98943390D01*
X149561541Y-98943390D02*
X149609160Y-99038628D01*
X149609160Y-99038628D02*
X149656779Y-99086247D01*
X149656779Y-99086247D02*
X149752017Y-99133866D01*
X149752017Y-99133866D02*
X149942493Y-99133866D01*
X149942493Y-99133866D02*
X150037731Y-99086247D01*
X150037731Y-99086247D02*
X150085350Y-99038628D01*
X150085350Y-99038628D02*
X150132969Y-98943390D01*
X147656779Y-71574819D02*
X147656779Y-70574819D01*
X147656779Y-70574819D02*
X148037731Y-70574819D01*
X148037731Y-70574819D02*
X148132969Y-70622438D01*
X148132969Y-70622438D02*
X148180588Y-70670057D01*
X148180588Y-70670057D02*
X148228207Y-70765295D01*
X148228207Y-70765295D02*
X148228207Y-70908152D01*
X148228207Y-70908152D02*
X148180588Y-71003390D01*
X148180588Y-71003390D02*
X148132969Y-71051009D01*
X148132969Y-71051009D02*
X148037731Y-71098628D01*
X148037731Y-71098628D02*
X147656779Y-71098628D01*
X148561541Y-70574819D02*
X149180588Y-70574819D01*
X149180588Y-70574819D02*
X148847255Y-70955771D01*
X148847255Y-70955771D02*
X148990112Y-70955771D01*
X148990112Y-70955771D02*
X149085350Y-71003390D01*
X149085350Y-71003390D02*
X149132969Y-71051009D01*
X149132969Y-71051009D02*
X149180588Y-71146247D01*
X149180588Y-71146247D02*
X149180588Y-71384342D01*
X149180588Y-71384342D02*
X149132969Y-71479580D01*
X149132969Y-71479580D02*
X149085350Y-71527200D01*
X149085350Y-71527200D02*
X148990112Y-71574819D01*
X148990112Y-71574819D02*
X148704398Y-71574819D01*
X148704398Y-71574819D02*
X148609160Y-71527200D01*
X148609160Y-71527200D02*
X148561541Y-71479580D01*
X149799636Y-70574819D02*
X149894874Y-70574819D01*
X149894874Y-70574819D02*
X149990112Y-70622438D01*
X149990112Y-70622438D02*
X150037731Y-70670057D01*
X150037731Y-70670057D02*
X150085350Y-70765295D01*
X150085350Y-70765295D02*
X150132969Y-70955771D01*
X150132969Y-70955771D02*
X150132969Y-71193866D01*
X150132969Y-71193866D02*
X150085350Y-71384342D01*
X150085350Y-71384342D02*
X150037731Y-71479580D01*
X150037731Y-71479580D02*
X149990112Y-71527200D01*
X149990112Y-71527200D02*
X149894874Y-71574819D01*
X149894874Y-71574819D02*
X149799636Y-71574819D01*
X149799636Y-71574819D02*
X149704398Y-71527200D01*
X149704398Y-71527200D02*
X149656779Y-71479580D01*
X149656779Y-71479580D02*
X149609160Y-71384342D01*
X149609160Y-71384342D02*
X149561541Y-71193866D01*
X149561541Y-71193866D02*
X149561541Y-70955771D01*
X149561541Y-70955771D02*
X149609160Y-70765295D01*
X149609160Y-70765295D02*
X149656779Y-70670057D01*
X149656779Y-70670057D02*
X149704398Y-70622438D01*
X149704398Y-70622438D02*
X149799636Y-70574819D01*
X147656779Y-69036904D02*
X147656779Y-68036904D01*
X147656779Y-68036904D02*
X148037731Y-68036904D01*
X148037731Y-68036904D02*
X148132969Y-68084523D01*
X148132969Y-68084523D02*
X148180588Y-68132142D01*
X148180588Y-68132142D02*
X148228207Y-68227380D01*
X148228207Y-68227380D02*
X148228207Y-68370237D01*
X148228207Y-68370237D02*
X148180588Y-68465475D01*
X148180588Y-68465475D02*
X148132969Y-68513094D01*
X148132969Y-68513094D02*
X148037731Y-68560713D01*
X148037731Y-68560713D02*
X147656779Y-68560713D01*
X148609160Y-68132142D02*
X148656779Y-68084523D01*
X148656779Y-68084523D02*
X148752017Y-68036904D01*
X148752017Y-68036904D02*
X148990112Y-68036904D01*
X148990112Y-68036904D02*
X149085350Y-68084523D01*
X149085350Y-68084523D02*
X149132969Y-68132142D01*
X149132969Y-68132142D02*
X149180588Y-68227380D01*
X149180588Y-68227380D02*
X149180588Y-68322618D01*
X149180588Y-68322618D02*
X149132969Y-68465475D01*
X149132969Y-68465475D02*
X148561541Y-69036904D01*
X148561541Y-69036904D02*
X149180588Y-69036904D01*
X149656779Y-69036904D02*
X149847255Y-69036904D01*
X149847255Y-69036904D02*
X149942493Y-68989285D01*
X149942493Y-68989285D02*
X149990112Y-68941665D01*
X149990112Y-68941665D02*
X150085350Y-68798808D01*
X150085350Y-68798808D02*
X150132969Y-68608332D01*
X150132969Y-68608332D02*
X150132969Y-68227380D01*
X150132969Y-68227380D02*
X150085350Y-68132142D01*
X150085350Y-68132142D02*
X150037731Y-68084523D01*
X150037731Y-68084523D02*
X149942493Y-68036904D01*
X149942493Y-68036904D02*
X149752017Y-68036904D01*
X149752017Y-68036904D02*
X149656779Y-68084523D01*
X149656779Y-68084523D02*
X149609160Y-68132142D01*
X149609160Y-68132142D02*
X149561541Y-68227380D01*
X149561541Y-68227380D02*
X149561541Y-68465475D01*
X149561541Y-68465475D02*
X149609160Y-68560713D01*
X149609160Y-68560713D02*
X149656779Y-68608332D01*
X149656779Y-68608332D02*
X149752017Y-68655951D01*
X149752017Y-68655951D02*
X149942493Y-68655951D01*
X149942493Y-68655951D02*
X150037731Y-68608332D01*
X150037731Y-68608332D02*
X150085350Y-68560713D01*
X150085350Y-68560713D02*
X150132969Y-68465475D01*
X151136779Y-87069819D02*
X151136779Y-87879342D01*
X151136779Y-87879342D02*
X151184398Y-87974580D01*
X151184398Y-87974580D02*
X151232017Y-88022200D01*
X151232017Y-88022200D02*
X151327255Y-88069819D01*
X151327255Y-88069819D02*
X151517731Y-88069819D01*
X151517731Y-88069819D02*
X151612969Y-88022200D01*
X151612969Y-88022200D02*
X151660588Y-87974580D01*
X151660588Y-87974580D02*
X151708207Y-87879342D01*
X151708207Y-87879342D02*
X151708207Y-87069819D01*
X152136779Y-88022200D02*
X152279636Y-88069819D01*
X152279636Y-88069819D02*
X152517731Y-88069819D01*
X152517731Y-88069819D02*
X152612969Y-88022200D01*
X152612969Y-88022200D02*
X152660588Y-87974580D01*
X152660588Y-87974580D02*
X152708207Y-87879342D01*
X152708207Y-87879342D02*
X152708207Y-87784104D01*
X152708207Y-87784104D02*
X152660588Y-87688866D01*
X152660588Y-87688866D02*
X152612969Y-87641247D01*
X152612969Y-87641247D02*
X152517731Y-87593628D01*
X152517731Y-87593628D02*
X152327255Y-87546009D01*
X152327255Y-87546009D02*
X152232017Y-87498390D01*
X152232017Y-87498390D02*
X152184398Y-87450771D01*
X152184398Y-87450771D02*
X152136779Y-87355533D01*
X152136779Y-87355533D02*
X152136779Y-87260295D01*
X152136779Y-87260295D02*
X152184398Y-87165057D01*
X152184398Y-87165057D02*
X152232017Y-87117438D01*
X152232017Y-87117438D02*
X152327255Y-87069819D01*
X152327255Y-87069819D02*
X152565350Y-87069819D01*
X152565350Y-87069819D02*
X152708207Y-87117438D01*
X153470112Y-87546009D02*
X153612969Y-87593628D01*
X153612969Y-87593628D02*
X153660588Y-87641247D01*
X153660588Y-87641247D02*
X153708207Y-87736485D01*
X153708207Y-87736485D02*
X153708207Y-87879342D01*
X153708207Y-87879342D02*
X153660588Y-87974580D01*
X153660588Y-87974580D02*
X153612969Y-88022200D01*
X153612969Y-88022200D02*
X153517731Y-88069819D01*
X153517731Y-88069819D02*
X153136779Y-88069819D01*
X153136779Y-88069819D02*
X153136779Y-87069819D01*
X153136779Y-87069819D02*
X153470112Y-87069819D01*
X153470112Y-87069819D02*
X153565350Y-87117438D01*
X153565350Y-87117438D02*
X153612969Y-87165057D01*
X153612969Y-87165057D02*
X153660588Y-87260295D01*
X153660588Y-87260295D02*
X153660588Y-87355533D01*
X153660588Y-87355533D02*
X153612969Y-87450771D01*
X153612969Y-87450771D02*
X153565350Y-87498390D01*
X153565350Y-87498390D02*
X153470112Y-87546009D01*
X153470112Y-87546009D02*
X153136779Y-87546009D01*
X154898684Y-87688866D02*
X155660589Y-87688866D01*
X155279636Y-88069819D02*
X155279636Y-87307914D01*
X156041541Y-87069819D02*
X156660588Y-87069819D01*
X156660588Y-87069819D02*
X156327255Y-87450771D01*
X156327255Y-87450771D02*
X156470112Y-87450771D01*
X156470112Y-87450771D02*
X156565350Y-87498390D01*
X156565350Y-87498390D02*
X156612969Y-87546009D01*
X156612969Y-87546009D02*
X156660588Y-87641247D01*
X156660588Y-87641247D02*
X156660588Y-87879342D01*
X156660588Y-87879342D02*
X156612969Y-87974580D01*
X156612969Y-87974580D02*
X156565350Y-88022200D01*
X156565350Y-88022200D02*
X156470112Y-88069819D01*
X156470112Y-88069819D02*
X156184398Y-88069819D01*
X156184398Y-88069819D02*
X156089160Y-88022200D01*
X156089160Y-88022200D02*
X156041541Y-87974580D01*
X156946303Y-87069819D02*
X157279636Y-88069819D01*
X157279636Y-88069819D02*
X157612969Y-87069819D01*
X157851065Y-87069819D02*
X158470112Y-87069819D01*
X158470112Y-87069819D02*
X158136779Y-87450771D01*
X158136779Y-87450771D02*
X158279636Y-87450771D01*
X158279636Y-87450771D02*
X158374874Y-87498390D01*
X158374874Y-87498390D02*
X158422493Y-87546009D01*
X158422493Y-87546009D02*
X158470112Y-87641247D01*
X158470112Y-87641247D02*
X158470112Y-87879342D01*
X158470112Y-87879342D02*
X158422493Y-87974580D01*
X158422493Y-87974580D02*
X158374874Y-88022200D01*
X158374874Y-88022200D02*
X158279636Y-88069819D01*
X158279636Y-88069819D02*
X157993922Y-88069819D01*
X157993922Y-88069819D02*
X157898684Y-88022200D01*
X157898684Y-88022200D02*
X157851065Y-87974580D01*
X160412969Y-85469819D02*
X159936779Y-85469819D01*
X159936779Y-85469819D02*
X159936779Y-84469819D01*
X160746303Y-84946009D02*
X161079636Y-84946009D01*
X161222493Y-85469819D02*
X160746303Y-85469819D01*
X160746303Y-85469819D02*
X160746303Y-84469819D01*
X160746303Y-84469819D02*
X161222493Y-84469819D01*
X161651065Y-85469819D02*
X161651065Y-84469819D01*
X161651065Y-84469819D02*
X161889160Y-84469819D01*
X161889160Y-84469819D02*
X162032017Y-84517438D01*
X162032017Y-84517438D02*
X162127255Y-84612676D01*
X162127255Y-84612676D02*
X162174874Y-84707914D01*
X162174874Y-84707914D02*
X162222493Y-84898390D01*
X162222493Y-84898390D02*
X162222493Y-85041247D01*
X162222493Y-85041247D02*
X162174874Y-85231723D01*
X162174874Y-85231723D02*
X162127255Y-85326961D01*
X162127255Y-85326961D02*
X162032017Y-85422200D01*
X162032017Y-85422200D02*
X161889160Y-85469819D01*
X161889160Y-85469819D02*
X161651065Y-85469819D01*
X162651065Y-85374580D02*
X162698684Y-85422200D01*
X162698684Y-85422200D02*
X162651065Y-85469819D01*
X162651065Y-85469819D02*
X162603446Y-85422200D01*
X162603446Y-85422200D02*
X162651065Y-85374580D01*
X162651065Y-85374580D02*
X162651065Y-85469819D01*
X162651065Y-84850771D02*
X162698684Y-84898390D01*
X162698684Y-84898390D02*
X162651065Y-84946009D01*
X162651065Y-84946009D02*
X162603446Y-84898390D01*
X162603446Y-84898390D02*
X162651065Y-84850771D01*
X162651065Y-84850771D02*
X162651065Y-84946009D01*
X163889160Y-85469819D02*
X163889160Y-84469819D01*
X163889160Y-84469819D02*
X164270112Y-84469819D01*
X164270112Y-84469819D02*
X164365350Y-84517438D01*
X164365350Y-84517438D02*
X164412969Y-84565057D01*
X164412969Y-84565057D02*
X164460588Y-84660295D01*
X164460588Y-84660295D02*
X164460588Y-84803152D01*
X164460588Y-84803152D02*
X164412969Y-84898390D01*
X164412969Y-84898390D02*
X164365350Y-84946009D01*
X164365350Y-84946009D02*
X164270112Y-84993628D01*
X164270112Y-84993628D02*
X163889160Y-84993628D01*
X165412969Y-85469819D02*
X164841541Y-85469819D01*
X165127255Y-85469819D02*
X165127255Y-84469819D01*
X165127255Y-84469819D02*
X165032017Y-84612676D01*
X165032017Y-84612676D02*
X164936779Y-84707914D01*
X164936779Y-84707914D02*
X164841541Y-84755533D01*
X166032017Y-84469819D02*
X166127255Y-84469819D01*
X166127255Y-84469819D02*
X166222493Y-84517438D01*
X166222493Y-84517438D02*
X166270112Y-84565057D01*
X166270112Y-84565057D02*
X166317731Y-84660295D01*
X166317731Y-84660295D02*
X166365350Y-84850771D01*
X166365350Y-84850771D02*
X166365350Y-85088866D01*
X166365350Y-85088866D02*
X166317731Y-85279342D01*
X166317731Y-85279342D02*
X166270112Y-85374580D01*
X166270112Y-85374580D02*
X166222493Y-85422200D01*
X166222493Y-85422200D02*
X166127255Y-85469819D01*
X166127255Y-85469819D02*
X166032017Y-85469819D01*
X166032017Y-85469819D02*
X165936779Y-85422200D01*
X165936779Y-85422200D02*
X165889160Y-85374580D01*
X165889160Y-85374580D02*
X165841541Y-85279342D01*
X165841541Y-85279342D02*
X165793922Y-85088866D01*
X165793922Y-85088866D02*
X165793922Y-84850771D01*
X165793922Y-84850771D02*
X165841541Y-84660295D01*
X165841541Y-84660295D02*
X165889160Y-84565057D01*
X165889160Y-84565057D02*
X165936779Y-84517438D01*
X165936779Y-84517438D02*
X166032017Y-84469819D01*
X167414649Y-61414819D02*
X167414649Y-60414819D01*
X167414649Y-60414819D02*
X167795601Y-60414819D01*
X167795601Y-60414819D02*
X167890839Y-60462438D01*
X167890839Y-60462438D02*
X167938458Y-60510057D01*
X167938458Y-60510057D02*
X167986077Y-60605295D01*
X167986077Y-60605295D02*
X167986077Y-60748152D01*
X167986077Y-60748152D02*
X167938458Y-60843390D01*
X167938458Y-60843390D02*
X167890839Y-60891009D01*
X167890839Y-60891009D02*
X167795601Y-60938628D01*
X167795601Y-60938628D02*
X167414649Y-60938628D01*
X168367030Y-60510057D02*
X168414649Y-60462438D01*
X168414649Y-60462438D02*
X168509887Y-60414819D01*
X168509887Y-60414819D02*
X168747982Y-60414819D01*
X168747982Y-60414819D02*
X168843220Y-60462438D01*
X168843220Y-60462438D02*
X168890839Y-60510057D01*
X168890839Y-60510057D02*
X168938458Y-60605295D01*
X168938458Y-60605295D02*
X168938458Y-60700533D01*
X168938458Y-60700533D02*
X168890839Y-60843390D01*
X168890839Y-60843390D02*
X168319411Y-61414819D01*
X168319411Y-61414819D02*
X168938458Y-61414819D01*
X169271792Y-60414819D02*
X169890839Y-60414819D01*
X169890839Y-60414819D02*
X169557506Y-60795771D01*
X169557506Y-60795771D02*
X169700363Y-60795771D01*
X169700363Y-60795771D02*
X169795601Y-60843390D01*
X169795601Y-60843390D02*
X169843220Y-60891009D01*
X169843220Y-60891009D02*
X169890839Y-60986247D01*
X169890839Y-60986247D02*
X169890839Y-61224342D01*
X169890839Y-61224342D02*
X169843220Y-61319580D01*
X169843220Y-61319580D02*
X169795601Y-61367200D01*
X169795601Y-61367200D02*
X169700363Y-61414819D01*
X169700363Y-61414819D02*
X169414649Y-61414819D01*
X169414649Y-61414819D02*
X169319411Y-61367200D01*
X169319411Y-61367200D02*
X169271792Y-61319580D01*
X167414649Y-76654819D02*
X167414649Y-75654819D01*
X167414649Y-75654819D02*
X167795601Y-75654819D01*
X167795601Y-75654819D02*
X167890839Y-75702438D01*
X167890839Y-75702438D02*
X167938458Y-75750057D01*
X167938458Y-75750057D02*
X167986077Y-75845295D01*
X167986077Y-75845295D02*
X167986077Y-75988152D01*
X167986077Y-75988152D02*
X167938458Y-76083390D01*
X167938458Y-76083390D02*
X167890839Y-76131009D01*
X167890839Y-76131009D02*
X167795601Y-76178628D01*
X167795601Y-76178628D02*
X167414649Y-76178628D01*
X168367030Y-75750057D02*
X168414649Y-75702438D01*
X168414649Y-75702438D02*
X168509887Y-75654819D01*
X168509887Y-75654819D02*
X168747982Y-75654819D01*
X168747982Y-75654819D02*
X168843220Y-75702438D01*
X168843220Y-75702438D02*
X168890839Y-75750057D01*
X168890839Y-75750057D02*
X168938458Y-75845295D01*
X168938458Y-75845295D02*
X168938458Y-75940533D01*
X168938458Y-75940533D02*
X168890839Y-76083390D01*
X168890839Y-76083390D02*
X168319411Y-76654819D01*
X168319411Y-76654819D02*
X168938458Y-76654819D01*
X169557506Y-75654819D02*
X169652744Y-75654819D01*
X169652744Y-75654819D02*
X169747982Y-75702438D01*
X169747982Y-75702438D02*
X169795601Y-75750057D01*
X169795601Y-75750057D02*
X169843220Y-75845295D01*
X169843220Y-75845295D02*
X169890839Y-76035771D01*
X169890839Y-76035771D02*
X169890839Y-76273866D01*
X169890839Y-76273866D02*
X169843220Y-76464342D01*
X169843220Y-76464342D02*
X169795601Y-76559580D01*
X169795601Y-76559580D02*
X169747982Y-76607200D01*
X169747982Y-76607200D02*
X169652744Y-76654819D01*
X169652744Y-76654819D02*
X169557506Y-76654819D01*
X169557506Y-76654819D02*
X169462268Y-76607200D01*
X169462268Y-76607200D02*
X169414649Y-76559580D01*
X169414649Y-76559580D02*
X169367030Y-76464342D01*
X169367030Y-76464342D02*
X169319411Y-76273866D01*
X169319411Y-76273866D02*
X169319411Y-76035771D01*
X169319411Y-76035771D02*
X169367030Y-75845295D01*
X169367030Y-75845295D02*
X169414649Y-75750057D01*
X169414649Y-75750057D02*
X169462268Y-75702438D01*
X169462268Y-75702438D02*
X169557506Y-75654819D01*
X167414649Y-96974819D02*
X167414649Y-95974819D01*
X167414649Y-95974819D02*
X167795601Y-95974819D01*
X167795601Y-95974819D02*
X167890839Y-96022438D01*
X167890839Y-96022438D02*
X167938458Y-96070057D01*
X167938458Y-96070057D02*
X167986077Y-96165295D01*
X167986077Y-96165295D02*
X167986077Y-96308152D01*
X167986077Y-96308152D02*
X167938458Y-96403390D01*
X167938458Y-96403390D02*
X167890839Y-96451009D01*
X167890839Y-96451009D02*
X167795601Y-96498628D01*
X167795601Y-96498628D02*
X167414649Y-96498628D01*
X168938458Y-96974819D02*
X168367030Y-96974819D01*
X168652744Y-96974819D02*
X168652744Y-95974819D01*
X168652744Y-95974819D02*
X168557506Y-96117676D01*
X168557506Y-96117676D02*
X168462268Y-96212914D01*
X168462268Y-96212914D02*
X168367030Y-96260533D01*
X169319411Y-96070057D02*
X169367030Y-96022438D01*
X169367030Y-96022438D02*
X169462268Y-95974819D01*
X169462268Y-95974819D02*
X169700363Y-95974819D01*
X169700363Y-95974819D02*
X169795601Y-96022438D01*
X169795601Y-96022438D02*
X169843220Y-96070057D01*
X169843220Y-96070057D02*
X169890839Y-96165295D01*
X169890839Y-96165295D02*
X169890839Y-96260533D01*
X169890839Y-96260533D02*
X169843220Y-96403390D01*
X169843220Y-96403390D02*
X169271792Y-96974819D01*
X169271792Y-96974819D02*
X169890839Y-96974819D01*
X167414649Y-86814819D02*
X167414649Y-85814819D01*
X167414649Y-85814819D02*
X167795601Y-85814819D01*
X167795601Y-85814819D02*
X167890839Y-85862438D01*
X167890839Y-85862438D02*
X167938458Y-85910057D01*
X167938458Y-85910057D02*
X167986077Y-86005295D01*
X167986077Y-86005295D02*
X167986077Y-86148152D01*
X167986077Y-86148152D02*
X167938458Y-86243390D01*
X167938458Y-86243390D02*
X167890839Y-86291009D01*
X167890839Y-86291009D02*
X167795601Y-86338628D01*
X167795601Y-86338628D02*
X167414649Y-86338628D01*
X168938458Y-86814819D02*
X168367030Y-86814819D01*
X168652744Y-86814819D02*
X168652744Y-85814819D01*
X168652744Y-85814819D02*
X168557506Y-85957676D01*
X168557506Y-85957676D02*
X168462268Y-86052914D01*
X168462268Y-86052914D02*
X168367030Y-86100533D01*
X169795601Y-85814819D02*
X169605125Y-85814819D01*
X169605125Y-85814819D02*
X169509887Y-85862438D01*
X169509887Y-85862438D02*
X169462268Y-85910057D01*
X169462268Y-85910057D02*
X169367030Y-86052914D01*
X169367030Y-86052914D02*
X169319411Y-86243390D01*
X169319411Y-86243390D02*
X169319411Y-86624342D01*
X169319411Y-86624342D02*
X169367030Y-86719580D01*
X169367030Y-86719580D02*
X169414649Y-86767200D01*
X169414649Y-86767200D02*
X169509887Y-86814819D01*
X169509887Y-86814819D02*
X169700363Y-86814819D01*
X169700363Y-86814819D02*
X169795601Y-86767200D01*
X169795601Y-86767200D02*
X169843220Y-86719580D01*
X169843220Y-86719580D02*
X169890839Y-86624342D01*
X169890839Y-86624342D02*
X169890839Y-86386247D01*
X169890839Y-86386247D02*
X169843220Y-86291009D01*
X169843220Y-86291009D02*
X169795601Y-86243390D01*
X169795601Y-86243390D02*
X169700363Y-86195771D01*
X169700363Y-86195771D02*
X169509887Y-86195771D01*
X169509887Y-86195771D02*
X169414649Y-86243390D01*
X169414649Y-86243390D02*
X169367030Y-86291009D01*
X169367030Y-86291009D02*
X169319411Y-86386247D01*
X167414649Y-74114819D02*
X167414649Y-73114819D01*
X167414649Y-73114819D02*
X167795601Y-73114819D01*
X167795601Y-73114819D02*
X167890839Y-73162438D01*
X167890839Y-73162438D02*
X167938458Y-73210057D01*
X167938458Y-73210057D02*
X167986077Y-73305295D01*
X167986077Y-73305295D02*
X167986077Y-73448152D01*
X167986077Y-73448152D02*
X167938458Y-73543390D01*
X167938458Y-73543390D02*
X167890839Y-73591009D01*
X167890839Y-73591009D02*
X167795601Y-73638628D01*
X167795601Y-73638628D02*
X167414649Y-73638628D01*
X168367030Y-73210057D02*
X168414649Y-73162438D01*
X168414649Y-73162438D02*
X168509887Y-73114819D01*
X168509887Y-73114819D02*
X168747982Y-73114819D01*
X168747982Y-73114819D02*
X168843220Y-73162438D01*
X168843220Y-73162438D02*
X168890839Y-73210057D01*
X168890839Y-73210057D02*
X168938458Y-73305295D01*
X168938458Y-73305295D02*
X168938458Y-73400533D01*
X168938458Y-73400533D02*
X168890839Y-73543390D01*
X168890839Y-73543390D02*
X168319411Y-74114819D01*
X168319411Y-74114819D02*
X168938458Y-74114819D01*
X169890839Y-74114819D02*
X169319411Y-74114819D01*
X169605125Y-74114819D02*
X169605125Y-73114819D01*
X169605125Y-73114819D02*
X169509887Y-73257676D01*
X169509887Y-73257676D02*
X169414649Y-73352914D01*
X169414649Y-73352914D02*
X169319411Y-73400533D01*
X147656779Y-58874819D02*
X147656779Y-57874819D01*
X147656779Y-57874819D02*
X148037731Y-57874819D01*
X148037731Y-57874819D02*
X148132969Y-57922438D01*
X148132969Y-57922438D02*
X148180588Y-57970057D01*
X148180588Y-57970057D02*
X148228207Y-58065295D01*
X148228207Y-58065295D02*
X148228207Y-58208152D01*
X148228207Y-58208152D02*
X148180588Y-58303390D01*
X148180588Y-58303390D02*
X148132969Y-58351009D01*
X148132969Y-58351009D02*
X148037731Y-58398628D01*
X148037731Y-58398628D02*
X147656779Y-58398628D01*
X148609160Y-57970057D02*
X148656779Y-57922438D01*
X148656779Y-57922438D02*
X148752017Y-57874819D01*
X148752017Y-57874819D02*
X148990112Y-57874819D01*
X148990112Y-57874819D02*
X149085350Y-57922438D01*
X149085350Y-57922438D02*
X149132969Y-57970057D01*
X149132969Y-57970057D02*
X149180588Y-58065295D01*
X149180588Y-58065295D02*
X149180588Y-58160533D01*
X149180588Y-58160533D02*
X149132969Y-58303390D01*
X149132969Y-58303390D02*
X148561541Y-58874819D01*
X148561541Y-58874819D02*
X149180588Y-58874819D01*
X150085350Y-57874819D02*
X149609160Y-57874819D01*
X149609160Y-57874819D02*
X149561541Y-58351009D01*
X149561541Y-58351009D02*
X149609160Y-58303390D01*
X149609160Y-58303390D02*
X149704398Y-58255771D01*
X149704398Y-58255771D02*
X149942493Y-58255771D01*
X149942493Y-58255771D02*
X150037731Y-58303390D01*
X150037731Y-58303390D02*
X150085350Y-58351009D01*
X150085350Y-58351009D02*
X150132969Y-58446247D01*
X150132969Y-58446247D02*
X150132969Y-58684342D01*
X150132969Y-58684342D02*
X150085350Y-58779580D01*
X150085350Y-58779580D02*
X150037731Y-58827200D01*
X150037731Y-58827200D02*
X149942493Y-58874819D01*
X149942493Y-58874819D02*
X149704398Y-58874819D01*
X149704398Y-58874819D02*
X149609160Y-58827200D01*
X149609160Y-58827200D02*
X149561541Y-58779580D01*
X147656779Y-104213866D02*
X148418684Y-104213866D01*
X148037731Y-104594819D02*
X148037731Y-103832914D01*
X148799636Y-103594819D02*
X149418683Y-103594819D01*
X149418683Y-103594819D02*
X149085350Y-103975771D01*
X149085350Y-103975771D02*
X149228207Y-103975771D01*
X149228207Y-103975771D02*
X149323445Y-104023390D01*
X149323445Y-104023390D02*
X149371064Y-104071009D01*
X149371064Y-104071009D02*
X149418683Y-104166247D01*
X149418683Y-104166247D02*
X149418683Y-104404342D01*
X149418683Y-104404342D02*
X149371064Y-104499580D01*
X149371064Y-104499580D02*
X149323445Y-104547200D01*
X149323445Y-104547200D02*
X149228207Y-104594819D01*
X149228207Y-104594819D02*
X148942493Y-104594819D01*
X148942493Y-104594819D02*
X148847255Y-104547200D01*
X148847255Y-104547200D02*
X148799636Y-104499580D01*
X149704398Y-103594819D02*
X150037731Y-104594819D01*
X150037731Y-104594819D02*
X150371064Y-103594819D01*
X150609160Y-103594819D02*
X151228207Y-103594819D01*
X151228207Y-103594819D02*
X150894874Y-103975771D01*
X150894874Y-103975771D02*
X151037731Y-103975771D01*
X151037731Y-103975771D02*
X151132969Y-104023390D01*
X151132969Y-104023390D02*
X151180588Y-104071009D01*
X151180588Y-104071009D02*
X151228207Y-104166247D01*
X151228207Y-104166247D02*
X151228207Y-104404342D01*
X151228207Y-104404342D02*
X151180588Y-104499580D01*
X151180588Y-104499580D02*
X151132969Y-104547200D01*
X151132969Y-104547200D02*
X151037731Y-104594819D01*
X151037731Y-104594819D02*
X150752017Y-104594819D01*
X150752017Y-104594819D02*
X150656779Y-104547200D01*
X150656779Y-104547200D02*
X150609160Y-104499580D01*
X147656779Y-86814819D02*
X147656779Y-85814819D01*
X147656779Y-85814819D02*
X148037731Y-85814819D01*
X148037731Y-85814819D02*
X148132969Y-85862438D01*
X148132969Y-85862438D02*
X148180588Y-85910057D01*
X148180588Y-85910057D02*
X148228207Y-86005295D01*
X148228207Y-86005295D02*
X148228207Y-86148152D01*
X148228207Y-86148152D02*
X148180588Y-86243390D01*
X148180588Y-86243390D02*
X148132969Y-86291009D01*
X148132969Y-86291009D02*
X148037731Y-86338628D01*
X148037731Y-86338628D02*
X147656779Y-86338628D01*
X148847255Y-85814819D02*
X148942493Y-85814819D01*
X148942493Y-85814819D02*
X149037731Y-85862438D01*
X149037731Y-85862438D02*
X149085350Y-85910057D01*
X149085350Y-85910057D02*
X149132969Y-86005295D01*
X149132969Y-86005295D02*
X149180588Y-86195771D01*
X149180588Y-86195771D02*
X149180588Y-86433866D01*
X149180588Y-86433866D02*
X149132969Y-86624342D01*
X149132969Y-86624342D02*
X149085350Y-86719580D01*
X149085350Y-86719580D02*
X149037731Y-86767200D01*
X149037731Y-86767200D02*
X148942493Y-86814819D01*
X148942493Y-86814819D02*
X148847255Y-86814819D01*
X148847255Y-86814819D02*
X148752017Y-86767200D01*
X148752017Y-86767200D02*
X148704398Y-86719580D01*
X148704398Y-86719580D02*
X148656779Y-86624342D01*
X148656779Y-86624342D02*
X148609160Y-86433866D01*
X148609160Y-86433866D02*
X148609160Y-86195771D01*
X148609160Y-86195771D02*
X148656779Y-86005295D01*
X148656779Y-86005295D02*
X148704398Y-85910057D01*
X148704398Y-85910057D02*
X148752017Y-85862438D01*
X148752017Y-85862438D02*
X148847255Y-85814819D01*
X150037731Y-86148152D02*
X150037731Y-86814819D01*
X149799636Y-85767200D02*
X149561541Y-86481485D01*
X149561541Y-86481485D02*
X150180588Y-86481485D01*
X167414649Y-63954819D02*
X167414649Y-62954819D01*
X167414649Y-62954819D02*
X167795601Y-62954819D01*
X167795601Y-62954819D02*
X167890839Y-63002438D01*
X167890839Y-63002438D02*
X167938458Y-63050057D01*
X167938458Y-63050057D02*
X167986077Y-63145295D01*
X167986077Y-63145295D02*
X167986077Y-63288152D01*
X167986077Y-63288152D02*
X167938458Y-63383390D01*
X167938458Y-63383390D02*
X167890839Y-63431009D01*
X167890839Y-63431009D02*
X167795601Y-63478628D01*
X167795601Y-63478628D02*
X167414649Y-63478628D01*
X168367030Y-63050057D02*
X168414649Y-63002438D01*
X168414649Y-63002438D02*
X168509887Y-62954819D01*
X168509887Y-62954819D02*
X168747982Y-62954819D01*
X168747982Y-62954819D02*
X168843220Y-63002438D01*
X168843220Y-63002438D02*
X168890839Y-63050057D01*
X168890839Y-63050057D02*
X168938458Y-63145295D01*
X168938458Y-63145295D02*
X168938458Y-63240533D01*
X168938458Y-63240533D02*
X168890839Y-63383390D01*
X168890839Y-63383390D02*
X168319411Y-63954819D01*
X168319411Y-63954819D02*
X168938458Y-63954819D01*
X169319411Y-63050057D02*
X169367030Y-63002438D01*
X169367030Y-63002438D02*
X169462268Y-62954819D01*
X169462268Y-62954819D02*
X169700363Y-62954819D01*
X169700363Y-62954819D02*
X169795601Y-63002438D01*
X169795601Y-63002438D02*
X169843220Y-63050057D01*
X169843220Y-63050057D02*
X169890839Y-63145295D01*
X169890839Y-63145295D02*
X169890839Y-63240533D01*
X169890839Y-63240533D02*
X169843220Y-63383390D01*
X169843220Y-63383390D02*
X169271792Y-63954819D01*
X169271792Y-63954819D02*
X169890839Y-63954819D01*
X147656779Y-79194819D02*
X147656779Y-78194819D01*
X147656779Y-78194819D02*
X148037731Y-78194819D01*
X148037731Y-78194819D02*
X148132969Y-78242438D01*
X148132969Y-78242438D02*
X148180588Y-78290057D01*
X148180588Y-78290057D02*
X148228207Y-78385295D01*
X148228207Y-78385295D02*
X148228207Y-78528152D01*
X148228207Y-78528152D02*
X148180588Y-78623390D01*
X148180588Y-78623390D02*
X148132969Y-78671009D01*
X148132969Y-78671009D02*
X148037731Y-78718628D01*
X148037731Y-78718628D02*
X147656779Y-78718628D01*
X148847255Y-78194819D02*
X148942493Y-78194819D01*
X148942493Y-78194819D02*
X149037731Y-78242438D01*
X149037731Y-78242438D02*
X149085350Y-78290057D01*
X149085350Y-78290057D02*
X149132969Y-78385295D01*
X149132969Y-78385295D02*
X149180588Y-78575771D01*
X149180588Y-78575771D02*
X149180588Y-78813866D01*
X149180588Y-78813866D02*
X149132969Y-79004342D01*
X149132969Y-79004342D02*
X149085350Y-79099580D01*
X149085350Y-79099580D02*
X149037731Y-79147200D01*
X149037731Y-79147200D02*
X148942493Y-79194819D01*
X148942493Y-79194819D02*
X148847255Y-79194819D01*
X148847255Y-79194819D02*
X148752017Y-79147200D01*
X148752017Y-79147200D02*
X148704398Y-79099580D01*
X148704398Y-79099580D02*
X148656779Y-79004342D01*
X148656779Y-79004342D02*
X148609160Y-78813866D01*
X148609160Y-78813866D02*
X148609160Y-78575771D01*
X148609160Y-78575771D02*
X148656779Y-78385295D01*
X148656779Y-78385295D02*
X148704398Y-78290057D01*
X148704398Y-78290057D02*
X148752017Y-78242438D01*
X148752017Y-78242438D02*
X148847255Y-78194819D01*
X150132969Y-79194819D02*
X149561541Y-79194819D01*
X149847255Y-79194819D02*
X149847255Y-78194819D01*
X149847255Y-78194819D02*
X149752017Y-78337676D01*
X149752017Y-78337676D02*
X149656779Y-78432914D01*
X149656779Y-78432914D02*
X149561541Y-78480533D01*
X167795601Y-65542438D02*
X167700363Y-65494819D01*
X167700363Y-65494819D02*
X167557506Y-65494819D01*
X167557506Y-65494819D02*
X167414649Y-65542438D01*
X167414649Y-65542438D02*
X167319411Y-65637676D01*
X167319411Y-65637676D02*
X167271792Y-65732914D01*
X167271792Y-65732914D02*
X167224173Y-65923390D01*
X167224173Y-65923390D02*
X167224173Y-66066247D01*
X167224173Y-66066247D02*
X167271792Y-66256723D01*
X167271792Y-66256723D02*
X167319411Y-66351961D01*
X167319411Y-66351961D02*
X167414649Y-66447200D01*
X167414649Y-66447200D02*
X167557506Y-66494819D01*
X167557506Y-66494819D02*
X167652744Y-66494819D01*
X167652744Y-66494819D02*
X167795601Y-66447200D01*
X167795601Y-66447200D02*
X167843220Y-66399580D01*
X167843220Y-66399580D02*
X167843220Y-66066247D01*
X167843220Y-66066247D02*
X167652744Y-66066247D01*
X168271792Y-66494819D02*
X168271792Y-65494819D01*
X168271792Y-65494819D02*
X168843220Y-66494819D01*
X168843220Y-66494819D02*
X168843220Y-65494819D01*
X169319411Y-66494819D02*
X169319411Y-65494819D01*
X169319411Y-65494819D02*
X169557506Y-65494819D01*
X169557506Y-65494819D02*
X169700363Y-65542438D01*
X169700363Y-65542438D02*
X169795601Y-65637676D01*
X169795601Y-65637676D02*
X169843220Y-65732914D01*
X169843220Y-65732914D02*
X169890839Y-65923390D01*
X169890839Y-65923390D02*
X169890839Y-66066247D01*
X169890839Y-66066247D02*
X169843220Y-66256723D01*
X169843220Y-66256723D02*
X169795601Y-66351961D01*
X169795601Y-66351961D02*
X169700363Y-66447200D01*
X169700363Y-66447200D02*
X169557506Y-66494819D01*
X169557506Y-66494819D02*
X169319411Y-66494819D01*
X167414649Y-94434819D02*
X167414649Y-93434819D01*
X167414649Y-93434819D02*
X167795601Y-93434819D01*
X167795601Y-93434819D02*
X167890839Y-93482438D01*
X167890839Y-93482438D02*
X167938458Y-93530057D01*
X167938458Y-93530057D02*
X167986077Y-93625295D01*
X167986077Y-93625295D02*
X167986077Y-93768152D01*
X167986077Y-93768152D02*
X167938458Y-93863390D01*
X167938458Y-93863390D02*
X167890839Y-93911009D01*
X167890839Y-93911009D02*
X167795601Y-93958628D01*
X167795601Y-93958628D02*
X167414649Y-93958628D01*
X168938458Y-94434819D02*
X168367030Y-94434819D01*
X168652744Y-94434819D02*
X168652744Y-93434819D01*
X168652744Y-93434819D02*
X168557506Y-93577676D01*
X168557506Y-93577676D02*
X168462268Y-93672914D01*
X168462268Y-93672914D02*
X168367030Y-93720533D01*
X169271792Y-93434819D02*
X169890839Y-93434819D01*
X169890839Y-93434819D02*
X169557506Y-93815771D01*
X169557506Y-93815771D02*
X169700363Y-93815771D01*
X169700363Y-93815771D02*
X169795601Y-93863390D01*
X169795601Y-93863390D02*
X169843220Y-93911009D01*
X169843220Y-93911009D02*
X169890839Y-94006247D01*
X169890839Y-94006247D02*
X169890839Y-94244342D01*
X169890839Y-94244342D02*
X169843220Y-94339580D01*
X169843220Y-94339580D02*
X169795601Y-94387200D01*
X169795601Y-94387200D02*
X169700363Y-94434819D01*
X169700363Y-94434819D02*
X169414649Y-94434819D01*
X169414649Y-94434819D02*
X169319411Y-94387200D01*
X169319411Y-94387200D02*
X169271792Y-94339580D01*
X147656779Y-84274819D02*
X147656779Y-83274819D01*
X147656779Y-83274819D02*
X148037731Y-83274819D01*
X148037731Y-83274819D02*
X148132969Y-83322438D01*
X148132969Y-83322438D02*
X148180588Y-83370057D01*
X148180588Y-83370057D02*
X148228207Y-83465295D01*
X148228207Y-83465295D02*
X148228207Y-83608152D01*
X148228207Y-83608152D02*
X148180588Y-83703390D01*
X148180588Y-83703390D02*
X148132969Y-83751009D01*
X148132969Y-83751009D02*
X148037731Y-83798628D01*
X148037731Y-83798628D02*
X147656779Y-83798628D01*
X148847255Y-83274819D02*
X148942493Y-83274819D01*
X148942493Y-83274819D02*
X149037731Y-83322438D01*
X149037731Y-83322438D02*
X149085350Y-83370057D01*
X149085350Y-83370057D02*
X149132969Y-83465295D01*
X149132969Y-83465295D02*
X149180588Y-83655771D01*
X149180588Y-83655771D02*
X149180588Y-83893866D01*
X149180588Y-83893866D02*
X149132969Y-84084342D01*
X149132969Y-84084342D02*
X149085350Y-84179580D01*
X149085350Y-84179580D02*
X149037731Y-84227200D01*
X149037731Y-84227200D02*
X148942493Y-84274819D01*
X148942493Y-84274819D02*
X148847255Y-84274819D01*
X148847255Y-84274819D02*
X148752017Y-84227200D01*
X148752017Y-84227200D02*
X148704398Y-84179580D01*
X148704398Y-84179580D02*
X148656779Y-84084342D01*
X148656779Y-84084342D02*
X148609160Y-83893866D01*
X148609160Y-83893866D02*
X148609160Y-83655771D01*
X148609160Y-83655771D02*
X148656779Y-83465295D01*
X148656779Y-83465295D02*
X148704398Y-83370057D01*
X148704398Y-83370057D02*
X148752017Y-83322438D01*
X148752017Y-83322438D02*
X148847255Y-83274819D01*
X149513922Y-83274819D02*
X150132969Y-83274819D01*
X150132969Y-83274819D02*
X149799636Y-83655771D01*
X149799636Y-83655771D02*
X149942493Y-83655771D01*
X149942493Y-83655771D02*
X150037731Y-83703390D01*
X150037731Y-83703390D02*
X150085350Y-83751009D01*
X150085350Y-83751009D02*
X150132969Y-83846247D01*
X150132969Y-83846247D02*
X150132969Y-84084342D01*
X150132969Y-84084342D02*
X150085350Y-84179580D01*
X150085350Y-84179580D02*
X150037731Y-84227200D01*
X150037731Y-84227200D02*
X149942493Y-84274819D01*
X149942493Y-84274819D02*
X149656779Y-84274819D01*
X149656779Y-84274819D02*
X149561541Y-84227200D01*
X149561541Y-84227200D02*
X149513922Y-84179580D01*
X147656779Y-76654819D02*
X147656779Y-75654819D01*
X147656779Y-75654819D02*
X148037731Y-75654819D01*
X148037731Y-75654819D02*
X148132969Y-75702438D01*
X148132969Y-75702438D02*
X148180588Y-75750057D01*
X148180588Y-75750057D02*
X148228207Y-75845295D01*
X148228207Y-75845295D02*
X148228207Y-75988152D01*
X148228207Y-75988152D02*
X148180588Y-76083390D01*
X148180588Y-76083390D02*
X148132969Y-76131009D01*
X148132969Y-76131009D02*
X148037731Y-76178628D01*
X148037731Y-76178628D02*
X147656779Y-76178628D01*
X148847255Y-75654819D02*
X148942493Y-75654819D01*
X148942493Y-75654819D02*
X149037731Y-75702438D01*
X149037731Y-75702438D02*
X149085350Y-75750057D01*
X149085350Y-75750057D02*
X149132969Y-75845295D01*
X149132969Y-75845295D02*
X149180588Y-76035771D01*
X149180588Y-76035771D02*
X149180588Y-76273866D01*
X149180588Y-76273866D02*
X149132969Y-76464342D01*
X149132969Y-76464342D02*
X149085350Y-76559580D01*
X149085350Y-76559580D02*
X149037731Y-76607200D01*
X149037731Y-76607200D02*
X148942493Y-76654819D01*
X148942493Y-76654819D02*
X148847255Y-76654819D01*
X148847255Y-76654819D02*
X148752017Y-76607200D01*
X148752017Y-76607200D02*
X148704398Y-76559580D01*
X148704398Y-76559580D02*
X148656779Y-76464342D01*
X148656779Y-76464342D02*
X148609160Y-76273866D01*
X148609160Y-76273866D02*
X148609160Y-76035771D01*
X148609160Y-76035771D02*
X148656779Y-75845295D01*
X148656779Y-75845295D02*
X148704398Y-75750057D01*
X148704398Y-75750057D02*
X148752017Y-75702438D01*
X148752017Y-75702438D02*
X148847255Y-75654819D01*
X149799636Y-75654819D02*
X149894874Y-75654819D01*
X149894874Y-75654819D02*
X149990112Y-75702438D01*
X149990112Y-75702438D02*
X150037731Y-75750057D01*
X150037731Y-75750057D02*
X150085350Y-75845295D01*
X150085350Y-75845295D02*
X150132969Y-76035771D01*
X150132969Y-76035771D02*
X150132969Y-76273866D01*
X150132969Y-76273866D02*
X150085350Y-76464342D01*
X150085350Y-76464342D02*
X150037731Y-76559580D01*
X150037731Y-76559580D02*
X149990112Y-76607200D01*
X149990112Y-76607200D02*
X149894874Y-76654819D01*
X149894874Y-76654819D02*
X149799636Y-76654819D01*
X149799636Y-76654819D02*
X149704398Y-76607200D01*
X149704398Y-76607200D02*
X149656779Y-76559580D01*
X149656779Y-76559580D02*
X149609160Y-76464342D01*
X149609160Y-76464342D02*
X149561541Y-76273866D01*
X149561541Y-76273866D02*
X149561541Y-76035771D01*
X149561541Y-76035771D02*
X149609160Y-75845295D01*
X149609160Y-75845295D02*
X149656779Y-75750057D01*
X149656779Y-75750057D02*
X149704398Y-75702438D01*
X149704398Y-75702438D02*
X149799636Y-75654819D01*
X167795601Y-101102438D02*
X167700363Y-101054819D01*
X167700363Y-101054819D02*
X167557506Y-101054819D01*
X167557506Y-101054819D02*
X167414649Y-101102438D01*
X167414649Y-101102438D02*
X167319411Y-101197676D01*
X167319411Y-101197676D02*
X167271792Y-101292914D01*
X167271792Y-101292914D02*
X167224173Y-101483390D01*
X167224173Y-101483390D02*
X167224173Y-101626247D01*
X167224173Y-101626247D02*
X167271792Y-101816723D01*
X167271792Y-101816723D02*
X167319411Y-101911961D01*
X167319411Y-101911961D02*
X167414649Y-102007200D01*
X167414649Y-102007200D02*
X167557506Y-102054819D01*
X167557506Y-102054819D02*
X167652744Y-102054819D01*
X167652744Y-102054819D02*
X167795601Y-102007200D01*
X167795601Y-102007200D02*
X167843220Y-101959580D01*
X167843220Y-101959580D02*
X167843220Y-101626247D01*
X167843220Y-101626247D02*
X167652744Y-101626247D01*
X168271792Y-102054819D02*
X168271792Y-101054819D01*
X168271792Y-101054819D02*
X168843220Y-102054819D01*
X168843220Y-102054819D02*
X168843220Y-101054819D01*
X169319411Y-102054819D02*
X169319411Y-101054819D01*
X169319411Y-101054819D02*
X169557506Y-101054819D01*
X169557506Y-101054819D02*
X169700363Y-101102438D01*
X169700363Y-101102438D02*
X169795601Y-101197676D01*
X169795601Y-101197676D02*
X169843220Y-101292914D01*
X169843220Y-101292914D02*
X169890839Y-101483390D01*
X169890839Y-101483390D02*
X169890839Y-101626247D01*
X169890839Y-101626247D02*
X169843220Y-101816723D01*
X169843220Y-101816723D02*
X169795601Y-101911961D01*
X169795601Y-101911961D02*
X169700363Y-102007200D01*
X169700363Y-102007200D02*
X169557506Y-102054819D01*
X169557506Y-102054819D02*
X169319411Y-102054819D01*
X167795601Y-103642438D02*
X167700363Y-103594819D01*
X167700363Y-103594819D02*
X167557506Y-103594819D01*
X167557506Y-103594819D02*
X167414649Y-103642438D01*
X167414649Y-103642438D02*
X167319411Y-103737676D01*
X167319411Y-103737676D02*
X167271792Y-103832914D01*
X167271792Y-103832914D02*
X167224173Y-104023390D01*
X167224173Y-104023390D02*
X167224173Y-104166247D01*
X167224173Y-104166247D02*
X167271792Y-104356723D01*
X167271792Y-104356723D02*
X167319411Y-104451961D01*
X167319411Y-104451961D02*
X167414649Y-104547200D01*
X167414649Y-104547200D02*
X167557506Y-104594819D01*
X167557506Y-104594819D02*
X167652744Y-104594819D01*
X167652744Y-104594819D02*
X167795601Y-104547200D01*
X167795601Y-104547200D02*
X167843220Y-104499580D01*
X167843220Y-104499580D02*
X167843220Y-104166247D01*
X167843220Y-104166247D02*
X167652744Y-104166247D01*
X168271792Y-104594819D02*
X168271792Y-103594819D01*
X168271792Y-103594819D02*
X168843220Y-104594819D01*
X168843220Y-104594819D02*
X168843220Y-103594819D01*
X169319411Y-104594819D02*
X169319411Y-103594819D01*
X169319411Y-103594819D02*
X169557506Y-103594819D01*
X169557506Y-103594819D02*
X169700363Y-103642438D01*
X169700363Y-103642438D02*
X169795601Y-103737676D01*
X169795601Y-103737676D02*
X169843220Y-103832914D01*
X169843220Y-103832914D02*
X169890839Y-104023390D01*
X169890839Y-104023390D02*
X169890839Y-104166247D01*
X169890839Y-104166247D02*
X169843220Y-104356723D01*
X169843220Y-104356723D02*
X169795601Y-104451961D01*
X169795601Y-104451961D02*
X169700363Y-104547200D01*
X169700363Y-104547200D02*
X169557506Y-104594819D01*
X169557506Y-104594819D02*
X169319411Y-104594819D01*
X167414649Y-58874819D02*
X167414649Y-57874819D01*
X167414649Y-57874819D02*
X167795601Y-57874819D01*
X167795601Y-57874819D02*
X167890839Y-57922438D01*
X167890839Y-57922438D02*
X167938458Y-57970057D01*
X167938458Y-57970057D02*
X167986077Y-58065295D01*
X167986077Y-58065295D02*
X167986077Y-58208152D01*
X167986077Y-58208152D02*
X167938458Y-58303390D01*
X167938458Y-58303390D02*
X167890839Y-58351009D01*
X167890839Y-58351009D02*
X167795601Y-58398628D01*
X167795601Y-58398628D02*
X167414649Y-58398628D01*
X168367030Y-57970057D02*
X168414649Y-57922438D01*
X168414649Y-57922438D02*
X168509887Y-57874819D01*
X168509887Y-57874819D02*
X168747982Y-57874819D01*
X168747982Y-57874819D02*
X168843220Y-57922438D01*
X168843220Y-57922438D02*
X168890839Y-57970057D01*
X168890839Y-57970057D02*
X168938458Y-58065295D01*
X168938458Y-58065295D02*
X168938458Y-58160533D01*
X168938458Y-58160533D02*
X168890839Y-58303390D01*
X168890839Y-58303390D02*
X168319411Y-58874819D01*
X168319411Y-58874819D02*
X168938458Y-58874819D01*
X169795601Y-58208152D02*
X169795601Y-58874819D01*
X169557506Y-57827200D02*
X169319411Y-58541485D01*
X169319411Y-58541485D02*
X169938458Y-58541485D01*
X167414649Y-89354819D02*
X167414649Y-88354819D01*
X167414649Y-88354819D02*
X167795601Y-88354819D01*
X167795601Y-88354819D02*
X167890839Y-88402438D01*
X167890839Y-88402438D02*
X167938458Y-88450057D01*
X167938458Y-88450057D02*
X167986077Y-88545295D01*
X167986077Y-88545295D02*
X167986077Y-88688152D01*
X167986077Y-88688152D02*
X167938458Y-88783390D01*
X167938458Y-88783390D02*
X167890839Y-88831009D01*
X167890839Y-88831009D02*
X167795601Y-88878628D01*
X167795601Y-88878628D02*
X167414649Y-88878628D01*
X168938458Y-89354819D02*
X168367030Y-89354819D01*
X168652744Y-89354819D02*
X168652744Y-88354819D01*
X168652744Y-88354819D02*
X168557506Y-88497676D01*
X168557506Y-88497676D02*
X168462268Y-88592914D01*
X168462268Y-88592914D02*
X168367030Y-88640533D01*
X169843220Y-88354819D02*
X169367030Y-88354819D01*
X169367030Y-88354819D02*
X169319411Y-88831009D01*
X169319411Y-88831009D02*
X169367030Y-88783390D01*
X169367030Y-88783390D02*
X169462268Y-88735771D01*
X169462268Y-88735771D02*
X169700363Y-88735771D01*
X169700363Y-88735771D02*
X169795601Y-88783390D01*
X169795601Y-88783390D02*
X169843220Y-88831009D01*
X169843220Y-88831009D02*
X169890839Y-88926247D01*
X169890839Y-88926247D02*
X169890839Y-89164342D01*
X169890839Y-89164342D02*
X169843220Y-89259580D01*
X169843220Y-89259580D02*
X169795601Y-89307200D01*
X169795601Y-89307200D02*
X169700363Y-89354819D01*
X169700363Y-89354819D02*
X169462268Y-89354819D01*
X169462268Y-89354819D02*
X169367030Y-89307200D01*
X169367030Y-89307200D02*
X169319411Y-89259580D01*
X165367030Y-71527200D02*
X165509887Y-71574819D01*
X165509887Y-71574819D02*
X165747982Y-71574819D01*
X165747982Y-71574819D02*
X165843220Y-71527200D01*
X165843220Y-71527200D02*
X165890839Y-71479580D01*
X165890839Y-71479580D02*
X165938458Y-71384342D01*
X165938458Y-71384342D02*
X165938458Y-71289104D01*
X165938458Y-71289104D02*
X165890839Y-71193866D01*
X165890839Y-71193866D02*
X165843220Y-71146247D01*
X165843220Y-71146247D02*
X165747982Y-71098628D01*
X165747982Y-71098628D02*
X165557506Y-71051009D01*
X165557506Y-71051009D02*
X165462268Y-71003390D01*
X165462268Y-71003390D02*
X165414649Y-70955771D01*
X165414649Y-70955771D02*
X165367030Y-70860533D01*
X165367030Y-70860533D02*
X165367030Y-70765295D01*
X165367030Y-70765295D02*
X165414649Y-70670057D01*
X165414649Y-70670057D02*
X165462268Y-70622438D01*
X165462268Y-70622438D02*
X165557506Y-70574819D01*
X165557506Y-70574819D02*
X165795601Y-70574819D01*
X165795601Y-70574819D02*
X165938458Y-70622438D01*
X166271792Y-70574819D02*
X166509887Y-71574819D01*
X166509887Y-71574819D02*
X166700363Y-70860533D01*
X166700363Y-70860533D02*
X166890839Y-71574819D01*
X166890839Y-71574819D02*
X167128935Y-70574819D01*
X168081315Y-71479580D02*
X168033696Y-71527200D01*
X168033696Y-71527200D02*
X167890839Y-71574819D01*
X167890839Y-71574819D02*
X167795601Y-71574819D01*
X167795601Y-71574819D02*
X167652744Y-71527200D01*
X167652744Y-71527200D02*
X167557506Y-71431961D01*
X167557506Y-71431961D02*
X167509887Y-71336723D01*
X167509887Y-71336723D02*
X167462268Y-71146247D01*
X167462268Y-71146247D02*
X167462268Y-71003390D01*
X167462268Y-71003390D02*
X167509887Y-70812914D01*
X167509887Y-70812914D02*
X167557506Y-70717676D01*
X167557506Y-70717676D02*
X167652744Y-70622438D01*
X167652744Y-70622438D02*
X167795601Y-70574819D01*
X167795601Y-70574819D02*
X167890839Y-70574819D01*
X167890839Y-70574819D02*
X168033696Y-70622438D01*
X168033696Y-70622438D02*
X168081315Y-70670057D01*
X168986077Y-71574819D02*
X168509887Y-71574819D01*
X168509887Y-71574819D02*
X168509887Y-70574819D01*
X169319411Y-71574819D02*
X169319411Y-70574819D01*
X169890839Y-71574819D02*
X169462268Y-71003390D01*
X169890839Y-70574819D02*
X169319411Y-71146247D01*
X147656779Y-74114819D02*
X147656779Y-73114819D01*
X147656779Y-73114819D02*
X148037731Y-73114819D01*
X148037731Y-73114819D02*
X148132969Y-73162438D01*
X148132969Y-73162438D02*
X148180588Y-73210057D01*
X148180588Y-73210057D02*
X148228207Y-73305295D01*
X148228207Y-73305295D02*
X148228207Y-73448152D01*
X148228207Y-73448152D02*
X148180588Y-73543390D01*
X148180588Y-73543390D02*
X148132969Y-73591009D01*
X148132969Y-73591009D02*
X148037731Y-73638628D01*
X148037731Y-73638628D02*
X147656779Y-73638628D01*
X148561541Y-73114819D02*
X149180588Y-73114819D01*
X149180588Y-73114819D02*
X148847255Y-73495771D01*
X148847255Y-73495771D02*
X148990112Y-73495771D01*
X148990112Y-73495771D02*
X149085350Y-73543390D01*
X149085350Y-73543390D02*
X149132969Y-73591009D01*
X149132969Y-73591009D02*
X149180588Y-73686247D01*
X149180588Y-73686247D02*
X149180588Y-73924342D01*
X149180588Y-73924342D02*
X149132969Y-74019580D01*
X149132969Y-74019580D02*
X149085350Y-74067200D01*
X149085350Y-74067200D02*
X148990112Y-74114819D01*
X148990112Y-74114819D02*
X148704398Y-74114819D01*
X148704398Y-74114819D02*
X148609160Y-74067200D01*
X148609160Y-74067200D02*
X148561541Y-74019580D01*
X150132969Y-74114819D02*
X149561541Y-74114819D01*
X149847255Y-74114819D02*
X149847255Y-73114819D01*
X149847255Y-73114819D02*
X149752017Y-73257676D01*
X149752017Y-73257676D02*
X149656779Y-73352914D01*
X149656779Y-73352914D02*
X149561541Y-73400533D01*
X167414649Y-84274819D02*
X167414649Y-83274819D01*
X167414649Y-83274819D02*
X167795601Y-83274819D01*
X167795601Y-83274819D02*
X167890839Y-83322438D01*
X167890839Y-83322438D02*
X167938458Y-83370057D01*
X167938458Y-83370057D02*
X167986077Y-83465295D01*
X167986077Y-83465295D02*
X167986077Y-83608152D01*
X167986077Y-83608152D02*
X167938458Y-83703390D01*
X167938458Y-83703390D02*
X167890839Y-83751009D01*
X167890839Y-83751009D02*
X167795601Y-83798628D01*
X167795601Y-83798628D02*
X167414649Y-83798628D01*
X168938458Y-84274819D02*
X168367030Y-84274819D01*
X168652744Y-84274819D02*
X168652744Y-83274819D01*
X168652744Y-83274819D02*
X168557506Y-83417676D01*
X168557506Y-83417676D02*
X168462268Y-83512914D01*
X168462268Y-83512914D02*
X168367030Y-83560533D01*
X169271792Y-83274819D02*
X169938458Y-83274819D01*
X169938458Y-83274819D02*
X169509887Y-84274819D01*
X147656779Y-89354819D02*
X147656779Y-88354819D01*
X147656779Y-88354819D02*
X148037731Y-88354819D01*
X148037731Y-88354819D02*
X148132969Y-88402438D01*
X148132969Y-88402438D02*
X148180588Y-88450057D01*
X148180588Y-88450057D02*
X148228207Y-88545295D01*
X148228207Y-88545295D02*
X148228207Y-88688152D01*
X148228207Y-88688152D02*
X148180588Y-88783390D01*
X148180588Y-88783390D02*
X148132969Y-88831009D01*
X148132969Y-88831009D02*
X148037731Y-88878628D01*
X148037731Y-88878628D02*
X147656779Y-88878628D01*
X148847255Y-88354819D02*
X148942493Y-88354819D01*
X148942493Y-88354819D02*
X149037731Y-88402438D01*
X149037731Y-88402438D02*
X149085350Y-88450057D01*
X149085350Y-88450057D02*
X149132969Y-88545295D01*
X149132969Y-88545295D02*
X149180588Y-88735771D01*
X149180588Y-88735771D02*
X149180588Y-88973866D01*
X149180588Y-88973866D02*
X149132969Y-89164342D01*
X149132969Y-89164342D02*
X149085350Y-89259580D01*
X149085350Y-89259580D02*
X149037731Y-89307200D01*
X149037731Y-89307200D02*
X148942493Y-89354819D01*
X148942493Y-89354819D02*
X148847255Y-89354819D01*
X148847255Y-89354819D02*
X148752017Y-89307200D01*
X148752017Y-89307200D02*
X148704398Y-89259580D01*
X148704398Y-89259580D02*
X148656779Y-89164342D01*
X148656779Y-89164342D02*
X148609160Y-88973866D01*
X148609160Y-88973866D02*
X148609160Y-88735771D01*
X148609160Y-88735771D02*
X148656779Y-88545295D01*
X148656779Y-88545295D02*
X148704398Y-88450057D01*
X148704398Y-88450057D02*
X148752017Y-88402438D01*
X148752017Y-88402438D02*
X148847255Y-88354819D01*
X150085350Y-88354819D02*
X149609160Y-88354819D01*
X149609160Y-88354819D02*
X149561541Y-88831009D01*
X149561541Y-88831009D02*
X149609160Y-88783390D01*
X149609160Y-88783390D02*
X149704398Y-88735771D01*
X149704398Y-88735771D02*
X149942493Y-88735771D01*
X149942493Y-88735771D02*
X150037731Y-88783390D01*
X150037731Y-88783390D02*
X150085350Y-88831009D01*
X150085350Y-88831009D02*
X150132969Y-88926247D01*
X150132969Y-88926247D02*
X150132969Y-89164342D01*
X150132969Y-89164342D02*
X150085350Y-89259580D01*
X150085350Y-89259580D02*
X150037731Y-89307200D01*
X150037731Y-89307200D02*
X149942493Y-89354819D01*
X149942493Y-89354819D02*
X149704398Y-89354819D01*
X149704398Y-89354819D02*
X149609160Y-89307200D01*
X149609160Y-89307200D02*
X149561541Y-89259580D01*
X147656779Y-63954819D02*
X147656779Y-62954819D01*
X147656779Y-62954819D02*
X148037731Y-62954819D01*
X148037731Y-62954819D02*
X148132969Y-63002438D01*
X148132969Y-63002438D02*
X148180588Y-63050057D01*
X148180588Y-63050057D02*
X148228207Y-63145295D01*
X148228207Y-63145295D02*
X148228207Y-63288152D01*
X148228207Y-63288152D02*
X148180588Y-63383390D01*
X148180588Y-63383390D02*
X148132969Y-63431009D01*
X148132969Y-63431009D02*
X148037731Y-63478628D01*
X148037731Y-63478628D02*
X147656779Y-63478628D01*
X148609160Y-63050057D02*
X148656779Y-63002438D01*
X148656779Y-63002438D02*
X148752017Y-62954819D01*
X148752017Y-62954819D02*
X148990112Y-62954819D01*
X148990112Y-62954819D02*
X149085350Y-63002438D01*
X149085350Y-63002438D02*
X149132969Y-63050057D01*
X149132969Y-63050057D02*
X149180588Y-63145295D01*
X149180588Y-63145295D02*
X149180588Y-63240533D01*
X149180588Y-63240533D02*
X149132969Y-63383390D01*
X149132969Y-63383390D02*
X148561541Y-63954819D01*
X148561541Y-63954819D02*
X149180588Y-63954819D01*
X149513922Y-62954819D02*
X150180588Y-62954819D01*
X150180588Y-62954819D02*
X149752017Y-63954819D01*
X147656779Y-66494819D02*
X147656779Y-65494819D01*
X147656779Y-65494819D02*
X148037731Y-65494819D01*
X148037731Y-65494819D02*
X148132969Y-65542438D01*
X148132969Y-65542438D02*
X148180588Y-65590057D01*
X148180588Y-65590057D02*
X148228207Y-65685295D01*
X148228207Y-65685295D02*
X148228207Y-65828152D01*
X148228207Y-65828152D02*
X148180588Y-65923390D01*
X148180588Y-65923390D02*
X148132969Y-65971009D01*
X148132969Y-65971009D02*
X148037731Y-66018628D01*
X148037731Y-66018628D02*
X147656779Y-66018628D01*
X148609160Y-65590057D02*
X148656779Y-65542438D01*
X148656779Y-65542438D02*
X148752017Y-65494819D01*
X148752017Y-65494819D02*
X148990112Y-65494819D01*
X148990112Y-65494819D02*
X149085350Y-65542438D01*
X149085350Y-65542438D02*
X149132969Y-65590057D01*
X149132969Y-65590057D02*
X149180588Y-65685295D01*
X149180588Y-65685295D02*
X149180588Y-65780533D01*
X149180588Y-65780533D02*
X149132969Y-65923390D01*
X149132969Y-65923390D02*
X148561541Y-66494819D01*
X148561541Y-66494819D02*
X149180588Y-66494819D01*
X149752017Y-65923390D02*
X149656779Y-65875771D01*
X149656779Y-65875771D02*
X149609160Y-65828152D01*
X149609160Y-65828152D02*
X149561541Y-65732914D01*
X149561541Y-65732914D02*
X149561541Y-65685295D01*
X149561541Y-65685295D02*
X149609160Y-65590057D01*
X149609160Y-65590057D02*
X149656779Y-65542438D01*
X149656779Y-65542438D02*
X149752017Y-65494819D01*
X149752017Y-65494819D02*
X149942493Y-65494819D01*
X149942493Y-65494819D02*
X150037731Y-65542438D01*
X150037731Y-65542438D02*
X150085350Y-65590057D01*
X150085350Y-65590057D02*
X150132969Y-65685295D01*
X150132969Y-65685295D02*
X150132969Y-65732914D01*
X150132969Y-65732914D02*
X150085350Y-65828152D01*
X150085350Y-65828152D02*
X150037731Y-65875771D01*
X150037731Y-65875771D02*
X149942493Y-65923390D01*
X149942493Y-65923390D02*
X149752017Y-65923390D01*
X149752017Y-65923390D02*
X149656779Y-65971009D01*
X149656779Y-65971009D02*
X149609160Y-66018628D01*
X149609160Y-66018628D02*
X149561541Y-66113866D01*
X149561541Y-66113866D02*
X149561541Y-66304342D01*
X149561541Y-66304342D02*
X149609160Y-66399580D01*
X149609160Y-66399580D02*
X149656779Y-66447200D01*
X149656779Y-66447200D02*
X149752017Y-66494819D01*
X149752017Y-66494819D02*
X149942493Y-66494819D01*
X149942493Y-66494819D02*
X150037731Y-66447200D01*
X150037731Y-66447200D02*
X150085350Y-66399580D01*
X150085350Y-66399580D02*
X150132969Y-66304342D01*
X150132969Y-66304342D02*
X150132969Y-66113866D01*
X150132969Y-66113866D02*
X150085350Y-66018628D01*
X150085350Y-66018628D02*
X150037731Y-65971009D01*
X150037731Y-65971009D02*
X149942493Y-65923390D01*
X167414649Y-99514819D02*
X167414649Y-98514819D01*
X167414649Y-98514819D02*
X167795601Y-98514819D01*
X167795601Y-98514819D02*
X167890839Y-98562438D01*
X167890839Y-98562438D02*
X167938458Y-98610057D01*
X167938458Y-98610057D02*
X167986077Y-98705295D01*
X167986077Y-98705295D02*
X167986077Y-98848152D01*
X167986077Y-98848152D02*
X167938458Y-98943390D01*
X167938458Y-98943390D02*
X167890839Y-98991009D01*
X167890839Y-98991009D02*
X167795601Y-99038628D01*
X167795601Y-99038628D02*
X167414649Y-99038628D01*
X168938458Y-99514819D02*
X168367030Y-99514819D01*
X168652744Y-99514819D02*
X168652744Y-98514819D01*
X168652744Y-98514819D02*
X168557506Y-98657676D01*
X168557506Y-98657676D02*
X168462268Y-98752914D01*
X168462268Y-98752914D02*
X168367030Y-98800533D01*
X169890839Y-99514819D02*
X169319411Y-99514819D01*
X169605125Y-99514819D02*
X169605125Y-98514819D01*
X169605125Y-98514819D02*
X169509887Y-98657676D01*
X169509887Y-98657676D02*
X169414649Y-98752914D01*
X169414649Y-98752914D02*
X169319411Y-98800533D01*
X147656779Y-61414819D02*
X147656779Y-60414819D01*
X147656779Y-60414819D02*
X148037731Y-60414819D01*
X148037731Y-60414819D02*
X148132969Y-60462438D01*
X148132969Y-60462438D02*
X148180588Y-60510057D01*
X148180588Y-60510057D02*
X148228207Y-60605295D01*
X148228207Y-60605295D02*
X148228207Y-60748152D01*
X148228207Y-60748152D02*
X148180588Y-60843390D01*
X148180588Y-60843390D02*
X148132969Y-60891009D01*
X148132969Y-60891009D02*
X148037731Y-60938628D01*
X148037731Y-60938628D02*
X147656779Y-60938628D01*
X148609160Y-60510057D02*
X148656779Y-60462438D01*
X148656779Y-60462438D02*
X148752017Y-60414819D01*
X148752017Y-60414819D02*
X148990112Y-60414819D01*
X148990112Y-60414819D02*
X149085350Y-60462438D01*
X149085350Y-60462438D02*
X149132969Y-60510057D01*
X149132969Y-60510057D02*
X149180588Y-60605295D01*
X149180588Y-60605295D02*
X149180588Y-60700533D01*
X149180588Y-60700533D02*
X149132969Y-60843390D01*
X149132969Y-60843390D02*
X148561541Y-61414819D01*
X148561541Y-61414819D02*
X149180588Y-61414819D01*
X150037731Y-60414819D02*
X149847255Y-60414819D01*
X149847255Y-60414819D02*
X149752017Y-60462438D01*
X149752017Y-60462438D02*
X149704398Y-60510057D01*
X149704398Y-60510057D02*
X149609160Y-60652914D01*
X149609160Y-60652914D02*
X149561541Y-60843390D01*
X149561541Y-60843390D02*
X149561541Y-61224342D01*
X149561541Y-61224342D02*
X149609160Y-61319580D01*
X149609160Y-61319580D02*
X149656779Y-61367200D01*
X149656779Y-61367200D02*
X149752017Y-61414819D01*
X149752017Y-61414819D02*
X149942493Y-61414819D01*
X149942493Y-61414819D02*
X150037731Y-61367200D01*
X150037731Y-61367200D02*
X150085350Y-61319580D01*
X150085350Y-61319580D02*
X150132969Y-61224342D01*
X150132969Y-61224342D02*
X150132969Y-60986247D01*
X150132969Y-60986247D02*
X150085350Y-60891009D01*
X150085350Y-60891009D02*
X150037731Y-60843390D01*
X150037731Y-60843390D02*
X149942493Y-60795771D01*
X149942493Y-60795771D02*
X149752017Y-60795771D01*
X149752017Y-60795771D02*
X149656779Y-60843390D01*
X149656779Y-60843390D02*
X149609160Y-60891009D01*
X149609160Y-60891009D02*
X149561541Y-60986247D01*
X167795601Y-106182438D02*
X167700363Y-106134819D01*
X167700363Y-106134819D02*
X167557506Y-106134819D01*
X167557506Y-106134819D02*
X167414649Y-106182438D01*
X167414649Y-106182438D02*
X167319411Y-106277676D01*
X167319411Y-106277676D02*
X167271792Y-106372914D01*
X167271792Y-106372914D02*
X167224173Y-106563390D01*
X167224173Y-106563390D02*
X167224173Y-106706247D01*
X167224173Y-106706247D02*
X167271792Y-106896723D01*
X167271792Y-106896723D02*
X167319411Y-106991961D01*
X167319411Y-106991961D02*
X167414649Y-107087200D01*
X167414649Y-107087200D02*
X167557506Y-107134819D01*
X167557506Y-107134819D02*
X167652744Y-107134819D01*
X167652744Y-107134819D02*
X167795601Y-107087200D01*
X167795601Y-107087200D02*
X167843220Y-107039580D01*
X167843220Y-107039580D02*
X167843220Y-106706247D01*
X167843220Y-106706247D02*
X167652744Y-106706247D01*
X168271792Y-107134819D02*
X168271792Y-106134819D01*
X168271792Y-106134819D02*
X168843220Y-107134819D01*
X168843220Y-107134819D02*
X168843220Y-106134819D01*
X169319411Y-107134819D02*
X169319411Y-106134819D01*
X169319411Y-106134819D02*
X169557506Y-106134819D01*
X169557506Y-106134819D02*
X169700363Y-106182438D01*
X169700363Y-106182438D02*
X169795601Y-106277676D01*
X169795601Y-106277676D02*
X169843220Y-106372914D01*
X169843220Y-106372914D02*
X169890839Y-106563390D01*
X169890839Y-106563390D02*
X169890839Y-106706247D01*
X169890839Y-106706247D02*
X169843220Y-106896723D01*
X169843220Y-106896723D02*
X169795601Y-106991961D01*
X169795601Y-106991961D02*
X169700363Y-107087200D01*
X169700363Y-107087200D02*
X169557506Y-107134819D01*
X169557506Y-107134819D02*
X169319411Y-107134819D01*
X147656779Y-91894819D02*
X147656779Y-90894819D01*
X147656779Y-90894819D02*
X148037731Y-90894819D01*
X148037731Y-90894819D02*
X148132969Y-90942438D01*
X148132969Y-90942438D02*
X148180588Y-90990057D01*
X148180588Y-90990057D02*
X148228207Y-91085295D01*
X148228207Y-91085295D02*
X148228207Y-91228152D01*
X148228207Y-91228152D02*
X148180588Y-91323390D01*
X148180588Y-91323390D02*
X148132969Y-91371009D01*
X148132969Y-91371009D02*
X148037731Y-91418628D01*
X148037731Y-91418628D02*
X147656779Y-91418628D01*
X148847255Y-90894819D02*
X148942493Y-90894819D01*
X148942493Y-90894819D02*
X149037731Y-90942438D01*
X149037731Y-90942438D02*
X149085350Y-90990057D01*
X149085350Y-90990057D02*
X149132969Y-91085295D01*
X149132969Y-91085295D02*
X149180588Y-91275771D01*
X149180588Y-91275771D02*
X149180588Y-91513866D01*
X149180588Y-91513866D02*
X149132969Y-91704342D01*
X149132969Y-91704342D02*
X149085350Y-91799580D01*
X149085350Y-91799580D02*
X149037731Y-91847200D01*
X149037731Y-91847200D02*
X148942493Y-91894819D01*
X148942493Y-91894819D02*
X148847255Y-91894819D01*
X148847255Y-91894819D02*
X148752017Y-91847200D01*
X148752017Y-91847200D02*
X148704398Y-91799580D01*
X148704398Y-91799580D02*
X148656779Y-91704342D01*
X148656779Y-91704342D02*
X148609160Y-91513866D01*
X148609160Y-91513866D02*
X148609160Y-91275771D01*
X148609160Y-91275771D02*
X148656779Y-91085295D01*
X148656779Y-91085295D02*
X148704398Y-90990057D01*
X148704398Y-90990057D02*
X148752017Y-90942438D01*
X148752017Y-90942438D02*
X148847255Y-90894819D01*
X150037731Y-90894819D02*
X149847255Y-90894819D01*
X149847255Y-90894819D02*
X149752017Y-90942438D01*
X149752017Y-90942438D02*
X149704398Y-90990057D01*
X149704398Y-90990057D02*
X149609160Y-91132914D01*
X149609160Y-91132914D02*
X149561541Y-91323390D01*
X149561541Y-91323390D02*
X149561541Y-91704342D01*
X149561541Y-91704342D02*
X149609160Y-91799580D01*
X149609160Y-91799580D02*
X149656779Y-91847200D01*
X149656779Y-91847200D02*
X149752017Y-91894819D01*
X149752017Y-91894819D02*
X149942493Y-91894819D01*
X149942493Y-91894819D02*
X150037731Y-91847200D01*
X150037731Y-91847200D02*
X150085350Y-91799580D01*
X150085350Y-91799580D02*
X150132969Y-91704342D01*
X150132969Y-91704342D02*
X150132969Y-91466247D01*
X150132969Y-91466247D02*
X150085350Y-91371009D01*
X150085350Y-91371009D02*
X150037731Y-91323390D01*
X150037731Y-91323390D02*
X149942493Y-91275771D01*
X149942493Y-91275771D02*
X149752017Y-91275771D01*
X149752017Y-91275771D02*
X149656779Y-91323390D01*
X149656779Y-91323390D02*
X149609160Y-91371009D01*
X149609160Y-91371009D02*
X149561541Y-91466247D01*
X167414649Y-79194819D02*
X167414649Y-78194819D01*
X167414649Y-78194819D02*
X167795601Y-78194819D01*
X167795601Y-78194819D02*
X167890839Y-78242438D01*
X167890839Y-78242438D02*
X167938458Y-78290057D01*
X167938458Y-78290057D02*
X167986077Y-78385295D01*
X167986077Y-78385295D02*
X167986077Y-78528152D01*
X167986077Y-78528152D02*
X167938458Y-78623390D01*
X167938458Y-78623390D02*
X167890839Y-78671009D01*
X167890839Y-78671009D02*
X167795601Y-78718628D01*
X167795601Y-78718628D02*
X167414649Y-78718628D01*
X168938458Y-79194819D02*
X168367030Y-79194819D01*
X168652744Y-79194819D02*
X168652744Y-78194819D01*
X168652744Y-78194819D02*
X168557506Y-78337676D01*
X168557506Y-78337676D02*
X168462268Y-78432914D01*
X168462268Y-78432914D02*
X168367030Y-78480533D01*
X169414649Y-79194819D02*
X169605125Y-79194819D01*
X169605125Y-79194819D02*
X169700363Y-79147200D01*
X169700363Y-79147200D02*
X169747982Y-79099580D01*
X169747982Y-79099580D02*
X169843220Y-78956723D01*
X169843220Y-78956723D02*
X169890839Y-78766247D01*
X169890839Y-78766247D02*
X169890839Y-78385295D01*
X169890839Y-78385295D02*
X169843220Y-78290057D01*
X169843220Y-78290057D02*
X169795601Y-78242438D01*
X169795601Y-78242438D02*
X169700363Y-78194819D01*
X169700363Y-78194819D02*
X169509887Y-78194819D01*
X169509887Y-78194819D02*
X169414649Y-78242438D01*
X169414649Y-78242438D02*
X169367030Y-78290057D01*
X169367030Y-78290057D02*
X169319411Y-78385295D01*
X169319411Y-78385295D02*
X169319411Y-78623390D01*
X169319411Y-78623390D02*
X169367030Y-78718628D01*
X169367030Y-78718628D02*
X169414649Y-78766247D01*
X169414649Y-78766247D02*
X169509887Y-78813866D01*
X169509887Y-78813866D02*
X169700363Y-78813866D01*
X169700363Y-78813866D02*
X169795601Y-78766247D01*
X169795601Y-78766247D02*
X169843220Y-78718628D01*
X169843220Y-78718628D02*
X169890839Y-78623390D01*
X167414649Y-91894819D02*
X167414649Y-90894819D01*
X167414649Y-90894819D02*
X167795601Y-90894819D01*
X167795601Y-90894819D02*
X167890839Y-90942438D01*
X167890839Y-90942438D02*
X167938458Y-90990057D01*
X167938458Y-90990057D02*
X167986077Y-91085295D01*
X167986077Y-91085295D02*
X167986077Y-91228152D01*
X167986077Y-91228152D02*
X167938458Y-91323390D01*
X167938458Y-91323390D02*
X167890839Y-91371009D01*
X167890839Y-91371009D02*
X167795601Y-91418628D01*
X167795601Y-91418628D02*
X167414649Y-91418628D01*
X168938458Y-91894819D02*
X168367030Y-91894819D01*
X168652744Y-91894819D02*
X168652744Y-90894819D01*
X168652744Y-90894819D02*
X168557506Y-91037676D01*
X168557506Y-91037676D02*
X168462268Y-91132914D01*
X168462268Y-91132914D02*
X168367030Y-91180533D01*
X169795601Y-91228152D02*
X169795601Y-91894819D01*
X169557506Y-90847200D02*
X169319411Y-91561485D01*
X169319411Y-91561485D02*
X169938458Y-91561485D01*
X167414649Y-81734819D02*
X167414649Y-80734819D01*
X167414649Y-80734819D02*
X167795601Y-80734819D01*
X167795601Y-80734819D02*
X167890839Y-80782438D01*
X167890839Y-80782438D02*
X167938458Y-80830057D01*
X167938458Y-80830057D02*
X167986077Y-80925295D01*
X167986077Y-80925295D02*
X167986077Y-81068152D01*
X167986077Y-81068152D02*
X167938458Y-81163390D01*
X167938458Y-81163390D02*
X167890839Y-81211009D01*
X167890839Y-81211009D02*
X167795601Y-81258628D01*
X167795601Y-81258628D02*
X167414649Y-81258628D01*
X168938458Y-81734819D02*
X168367030Y-81734819D01*
X168652744Y-81734819D02*
X168652744Y-80734819D01*
X168652744Y-80734819D02*
X168557506Y-80877676D01*
X168557506Y-80877676D02*
X168462268Y-80972914D01*
X168462268Y-80972914D02*
X168367030Y-81020533D01*
X169509887Y-81163390D02*
X169414649Y-81115771D01*
X169414649Y-81115771D02*
X169367030Y-81068152D01*
X169367030Y-81068152D02*
X169319411Y-80972914D01*
X169319411Y-80972914D02*
X169319411Y-80925295D01*
X169319411Y-80925295D02*
X169367030Y-80830057D01*
X169367030Y-80830057D02*
X169414649Y-80782438D01*
X169414649Y-80782438D02*
X169509887Y-80734819D01*
X169509887Y-80734819D02*
X169700363Y-80734819D01*
X169700363Y-80734819D02*
X169795601Y-80782438D01*
X169795601Y-80782438D02*
X169843220Y-80830057D01*
X169843220Y-80830057D02*
X169890839Y-80925295D01*
X169890839Y-80925295D02*
X169890839Y-80972914D01*
X169890839Y-80972914D02*
X169843220Y-81068152D01*
X169843220Y-81068152D02*
X169795601Y-81115771D01*
X169795601Y-81115771D02*
X169700363Y-81163390D01*
X169700363Y-81163390D02*
X169509887Y-81163390D01*
X169509887Y-81163390D02*
X169414649Y-81211009D01*
X169414649Y-81211009D02*
X169367030Y-81258628D01*
X169367030Y-81258628D02*
X169319411Y-81353866D01*
X169319411Y-81353866D02*
X169319411Y-81544342D01*
X169319411Y-81544342D02*
X169367030Y-81639580D01*
X169367030Y-81639580D02*
X169414649Y-81687200D01*
X169414649Y-81687200D02*
X169509887Y-81734819D01*
X169509887Y-81734819D02*
X169700363Y-81734819D01*
X169700363Y-81734819D02*
X169795601Y-81687200D01*
X169795601Y-81687200D02*
X169843220Y-81639580D01*
X169843220Y-81639580D02*
X169890839Y-81544342D01*
X169890839Y-81544342D02*
X169890839Y-81353866D01*
X169890839Y-81353866D02*
X169843220Y-81258628D01*
X169843220Y-81258628D02*
X169795601Y-81211009D01*
X169795601Y-81211009D02*
X169700363Y-81163390D01*
X165652745Y-68987200D02*
X165795602Y-69034819D01*
X165795602Y-69034819D02*
X166033697Y-69034819D01*
X166033697Y-69034819D02*
X166128935Y-68987200D01*
X166128935Y-68987200D02*
X166176554Y-68939580D01*
X166176554Y-68939580D02*
X166224173Y-68844342D01*
X166224173Y-68844342D02*
X166224173Y-68749104D01*
X166224173Y-68749104D02*
X166176554Y-68653866D01*
X166176554Y-68653866D02*
X166128935Y-68606247D01*
X166128935Y-68606247D02*
X166033697Y-68558628D01*
X166033697Y-68558628D02*
X165843221Y-68511009D01*
X165843221Y-68511009D02*
X165747983Y-68463390D01*
X165747983Y-68463390D02*
X165700364Y-68415771D01*
X165700364Y-68415771D02*
X165652745Y-68320533D01*
X165652745Y-68320533D02*
X165652745Y-68225295D01*
X165652745Y-68225295D02*
X165700364Y-68130057D01*
X165700364Y-68130057D02*
X165747983Y-68082438D01*
X165747983Y-68082438D02*
X165843221Y-68034819D01*
X165843221Y-68034819D02*
X166081316Y-68034819D01*
X166081316Y-68034819D02*
X166224173Y-68082438D01*
X166557507Y-68034819D02*
X166795602Y-69034819D01*
X166795602Y-69034819D02*
X166986078Y-68320533D01*
X166986078Y-68320533D02*
X167176554Y-69034819D01*
X167176554Y-69034819D02*
X167414650Y-68034819D01*
X167795602Y-69034819D02*
X167795602Y-68034819D01*
X167795602Y-68034819D02*
X168033697Y-68034819D01*
X168033697Y-68034819D02*
X168176554Y-68082438D01*
X168176554Y-68082438D02*
X168271792Y-68177676D01*
X168271792Y-68177676D02*
X168319411Y-68272914D01*
X168319411Y-68272914D02*
X168367030Y-68463390D01*
X168367030Y-68463390D02*
X168367030Y-68606247D01*
X168367030Y-68606247D02*
X168319411Y-68796723D01*
X168319411Y-68796723D02*
X168271792Y-68891961D01*
X168271792Y-68891961D02*
X168176554Y-68987200D01*
X168176554Y-68987200D02*
X168033697Y-69034819D01*
X168033697Y-69034819D02*
X167795602Y-69034819D01*
X168795602Y-69034819D02*
X168795602Y-68034819D01*
X169462268Y-68034819D02*
X169652744Y-68034819D01*
X169652744Y-68034819D02*
X169747982Y-68082438D01*
X169747982Y-68082438D02*
X169843220Y-68177676D01*
X169843220Y-68177676D02*
X169890839Y-68368152D01*
X169890839Y-68368152D02*
X169890839Y-68701485D01*
X169890839Y-68701485D02*
X169843220Y-68891961D01*
X169843220Y-68891961D02*
X169747982Y-68987200D01*
X169747982Y-68987200D02*
X169652744Y-69034819D01*
X169652744Y-69034819D02*
X169462268Y-69034819D01*
X169462268Y-69034819D02*
X169367030Y-68987200D01*
X169367030Y-68987200D02*
X169271792Y-68891961D01*
X169271792Y-68891961D02*
X169224173Y-68701485D01*
X169224173Y-68701485D02*
X169224173Y-68368152D01*
X169224173Y-68368152D02*
X169271792Y-68177676D01*
X169271792Y-68177676D02*
X169367030Y-68082438D01*
X169367030Y-68082438D02*
X169462268Y-68034819D01*
X165066666Y-101654819D02*
X165066666Y-102369104D01*
X165066666Y-102369104D02*
X165019047Y-102511961D01*
X165019047Y-102511961D02*
X164923809Y-102607200D01*
X164923809Y-102607200D02*
X164780952Y-102654819D01*
X164780952Y-102654819D02*
X164685714Y-102654819D01*
X165447619Y-101654819D02*
X166066666Y-101654819D01*
X166066666Y-101654819D02*
X165733333Y-102035771D01*
X165733333Y-102035771D02*
X165876190Y-102035771D01*
X165876190Y-102035771D02*
X165971428Y-102083390D01*
X165971428Y-102083390D02*
X166019047Y-102131009D01*
X166019047Y-102131009D02*
X166066666Y-102226247D01*
X166066666Y-102226247D02*
X166066666Y-102464342D01*
X166066666Y-102464342D02*
X166019047Y-102559580D01*
X166019047Y-102559580D02*
X165971428Y-102607200D01*
X165971428Y-102607200D02*
X165876190Y-102654819D01*
X165876190Y-102654819D02*
X165590476Y-102654819D01*
X165590476Y-102654819D02*
X165495238Y-102607200D01*
X165495238Y-102607200D02*
X165447619Y-102559580D01*
X160461905Y-89054819D02*
X160461905Y-88054819D01*
X160461905Y-88054819D02*
X160700000Y-88054819D01*
X160700000Y-88054819D02*
X160842857Y-88102438D01*
X160842857Y-88102438D02*
X160938095Y-88197676D01*
X160938095Y-88197676D02*
X160985714Y-88292914D01*
X160985714Y-88292914D02*
X161033333Y-88483390D01*
X161033333Y-88483390D02*
X161033333Y-88626247D01*
X161033333Y-88626247D02*
X160985714Y-88816723D01*
X160985714Y-88816723D02*
X160938095Y-88911961D01*
X160938095Y-88911961D02*
X160842857Y-89007200D01*
X160842857Y-89007200D02*
X160700000Y-89054819D01*
X160700000Y-89054819D02*
X160461905Y-89054819D01*
X161985714Y-89054819D02*
X161414286Y-89054819D01*
X161700000Y-89054819D02*
X161700000Y-88054819D01*
X161700000Y-88054819D02*
X161604762Y-88197676D01*
X161604762Y-88197676D02*
X161509524Y-88292914D01*
X161509524Y-88292914D02*
X161414286Y-88340533D01*
X164633333Y-99454819D02*
X164300000Y-98978628D01*
X164061905Y-99454819D02*
X164061905Y-98454819D01*
X164061905Y-98454819D02*
X164442857Y-98454819D01*
X164442857Y-98454819D02*
X164538095Y-98502438D01*
X164538095Y-98502438D02*
X164585714Y-98550057D01*
X164585714Y-98550057D02*
X164633333Y-98645295D01*
X164633333Y-98645295D02*
X164633333Y-98788152D01*
X164633333Y-98788152D02*
X164585714Y-98883390D01*
X164585714Y-98883390D02*
X164538095Y-98931009D01*
X164538095Y-98931009D02*
X164442857Y-98978628D01*
X164442857Y-98978628D02*
X164061905Y-98978628D01*
X164966667Y-98454819D02*
X165585714Y-98454819D01*
X165585714Y-98454819D02*
X165252381Y-98835771D01*
X165252381Y-98835771D02*
X165395238Y-98835771D01*
X165395238Y-98835771D02*
X165490476Y-98883390D01*
X165490476Y-98883390D02*
X165538095Y-98931009D01*
X165538095Y-98931009D02*
X165585714Y-99026247D01*
X165585714Y-99026247D02*
X165585714Y-99264342D01*
X165585714Y-99264342D02*
X165538095Y-99359580D01*
X165538095Y-99359580D02*
X165490476Y-99407200D01*
X165490476Y-99407200D02*
X165395238Y-99454819D01*
X165395238Y-99454819D02*
X165109524Y-99454819D01*
X165109524Y-99454819D02*
X165014286Y-99407200D01*
X165014286Y-99407200D02*
X164966667Y-99359580D01*
X164433333Y-72759580D02*
X164385714Y-72807200D01*
X164385714Y-72807200D02*
X164242857Y-72854819D01*
X164242857Y-72854819D02*
X164147619Y-72854819D01*
X164147619Y-72854819D02*
X164004762Y-72807200D01*
X164004762Y-72807200D02*
X163909524Y-72711961D01*
X163909524Y-72711961D02*
X163861905Y-72616723D01*
X163861905Y-72616723D02*
X163814286Y-72426247D01*
X163814286Y-72426247D02*
X163814286Y-72283390D01*
X163814286Y-72283390D02*
X163861905Y-72092914D01*
X163861905Y-72092914D02*
X163909524Y-71997676D01*
X163909524Y-71997676D02*
X164004762Y-71902438D01*
X164004762Y-71902438D02*
X164147619Y-71854819D01*
X164147619Y-71854819D02*
X164242857Y-71854819D01*
X164242857Y-71854819D02*
X164385714Y-71902438D01*
X164385714Y-71902438D02*
X164433333Y-71950057D01*
X164766667Y-71854819D02*
X165433333Y-71854819D01*
X165433333Y-71854819D02*
X165004762Y-72854819D01*
X155923809Y-70178628D02*
X155923809Y-70654819D01*
X155590476Y-69654819D02*
X155923809Y-70178628D01*
X155923809Y-70178628D02*
X156257142Y-69654819D01*
X157114285Y-70654819D02*
X156542857Y-70654819D01*
X156828571Y-70654819D02*
X156828571Y-69654819D01*
X156828571Y-69654819D02*
X156733333Y-69797676D01*
X156733333Y-69797676D02*
X156638095Y-69892914D01*
X156638095Y-69892914D02*
X156542857Y-69940533D01*
X157733333Y-82659580D02*
X157685714Y-82707200D01*
X157685714Y-82707200D02*
X157542857Y-82754819D01*
X157542857Y-82754819D02*
X157447619Y-82754819D01*
X157447619Y-82754819D02*
X157304762Y-82707200D01*
X157304762Y-82707200D02*
X157209524Y-82611961D01*
X157209524Y-82611961D02*
X157161905Y-82516723D01*
X157161905Y-82516723D02*
X157114286Y-82326247D01*
X157114286Y-82326247D02*
X157114286Y-82183390D01*
X157114286Y-82183390D02*
X157161905Y-81992914D01*
X157161905Y-81992914D02*
X157209524Y-81897676D01*
X157209524Y-81897676D02*
X157304762Y-81802438D01*
X157304762Y-81802438D02*
X157447619Y-81754819D01*
X157447619Y-81754819D02*
X157542857Y-81754819D01*
X157542857Y-81754819D02*
X157685714Y-81802438D01*
X157685714Y-81802438D02*
X157733333Y-81850057D01*
X158685714Y-82754819D02*
X158114286Y-82754819D01*
X158400000Y-82754819D02*
X158400000Y-81754819D01*
X158400000Y-81754819D02*
X158304762Y-81897676D01*
X158304762Y-81897676D02*
X158209524Y-81992914D01*
X158209524Y-81992914D02*
X158114286Y-82040533D01*
X157033333Y-76559580D02*
X156985714Y-76607200D01*
X156985714Y-76607200D02*
X156842857Y-76654819D01*
X156842857Y-76654819D02*
X156747619Y-76654819D01*
X156747619Y-76654819D02*
X156604762Y-76607200D01*
X156604762Y-76607200D02*
X156509524Y-76511961D01*
X156509524Y-76511961D02*
X156461905Y-76416723D01*
X156461905Y-76416723D02*
X156414286Y-76226247D01*
X156414286Y-76226247D02*
X156414286Y-76083390D01*
X156414286Y-76083390D02*
X156461905Y-75892914D01*
X156461905Y-75892914D02*
X156509524Y-75797676D01*
X156509524Y-75797676D02*
X156604762Y-75702438D01*
X156604762Y-75702438D02*
X156747619Y-75654819D01*
X156747619Y-75654819D02*
X156842857Y-75654819D01*
X156842857Y-75654819D02*
X156985714Y-75702438D01*
X156985714Y-75702438D02*
X157033333Y-75750057D01*
X157890476Y-75654819D02*
X157700000Y-75654819D01*
X157700000Y-75654819D02*
X157604762Y-75702438D01*
X157604762Y-75702438D02*
X157557143Y-75750057D01*
X157557143Y-75750057D02*
X157461905Y-75892914D01*
X157461905Y-75892914D02*
X157414286Y-76083390D01*
X157414286Y-76083390D02*
X157414286Y-76464342D01*
X157414286Y-76464342D02*
X157461905Y-76559580D01*
X157461905Y-76559580D02*
X157509524Y-76607200D01*
X157509524Y-76607200D02*
X157604762Y-76654819D01*
X157604762Y-76654819D02*
X157795238Y-76654819D01*
X157795238Y-76654819D02*
X157890476Y-76607200D01*
X157890476Y-76607200D02*
X157938095Y-76559580D01*
X157938095Y-76559580D02*
X157985714Y-76464342D01*
X157985714Y-76464342D02*
X157985714Y-76226247D01*
X157985714Y-76226247D02*
X157938095Y-76131009D01*
X157938095Y-76131009D02*
X157890476Y-76083390D01*
X157890476Y-76083390D02*
X157795238Y-76035771D01*
X157795238Y-76035771D02*
X157604762Y-76035771D01*
X157604762Y-76035771D02*
X157509524Y-76083390D01*
X157509524Y-76083390D02*
X157461905Y-76131009D01*
X157461905Y-76131009D02*
X157414286Y-76226247D01*
X161233333Y-69559580D02*
X161185714Y-69607200D01*
X161185714Y-69607200D02*
X161042857Y-69654819D01*
X161042857Y-69654819D02*
X160947619Y-69654819D01*
X160947619Y-69654819D02*
X160804762Y-69607200D01*
X160804762Y-69607200D02*
X160709524Y-69511961D01*
X160709524Y-69511961D02*
X160661905Y-69416723D01*
X160661905Y-69416723D02*
X160614286Y-69226247D01*
X160614286Y-69226247D02*
X160614286Y-69083390D01*
X160614286Y-69083390D02*
X160661905Y-68892914D01*
X160661905Y-68892914D02*
X160709524Y-68797676D01*
X160709524Y-68797676D02*
X160804762Y-68702438D01*
X160804762Y-68702438D02*
X160947619Y-68654819D01*
X160947619Y-68654819D02*
X161042857Y-68654819D01*
X161042857Y-68654819D02*
X161185714Y-68702438D01*
X161185714Y-68702438D02*
X161233333Y-68750057D01*
X162138095Y-68654819D02*
X161661905Y-68654819D01*
X161661905Y-68654819D02*
X161614286Y-69131009D01*
X161614286Y-69131009D02*
X161661905Y-69083390D01*
X161661905Y-69083390D02*
X161757143Y-69035771D01*
X161757143Y-69035771D02*
X161995238Y-69035771D01*
X161995238Y-69035771D02*
X162090476Y-69083390D01*
X162090476Y-69083390D02*
X162138095Y-69131009D01*
X162138095Y-69131009D02*
X162185714Y-69226247D01*
X162185714Y-69226247D02*
X162185714Y-69464342D01*
X162185714Y-69464342D02*
X162138095Y-69559580D01*
X162138095Y-69559580D02*
X162090476Y-69607200D01*
X162090476Y-69607200D02*
X161995238Y-69654819D01*
X161995238Y-69654819D02*
X161757143Y-69654819D01*
X161757143Y-69654819D02*
X161661905Y-69607200D01*
X161661905Y-69607200D02*
X161614286Y-69559580D01*
X161433333Y-81559580D02*
X161385714Y-81607200D01*
X161385714Y-81607200D02*
X161242857Y-81654819D01*
X161242857Y-81654819D02*
X161147619Y-81654819D01*
X161147619Y-81654819D02*
X161004762Y-81607200D01*
X161004762Y-81607200D02*
X160909524Y-81511961D01*
X160909524Y-81511961D02*
X160861905Y-81416723D01*
X160861905Y-81416723D02*
X160814286Y-81226247D01*
X160814286Y-81226247D02*
X160814286Y-81083390D01*
X160814286Y-81083390D02*
X160861905Y-80892914D01*
X160861905Y-80892914D02*
X160909524Y-80797676D01*
X160909524Y-80797676D02*
X161004762Y-80702438D01*
X161004762Y-80702438D02*
X161147619Y-80654819D01*
X161147619Y-80654819D02*
X161242857Y-80654819D01*
X161242857Y-80654819D02*
X161385714Y-80702438D01*
X161385714Y-80702438D02*
X161433333Y-80750057D01*
X162290476Y-80988152D02*
X162290476Y-81654819D01*
X162052381Y-80607200D02*
X161814286Y-81321485D01*
X161814286Y-81321485D02*
X162433333Y-81321485D01*
X155033333Y-81254819D02*
X154557143Y-81254819D01*
X154557143Y-81254819D02*
X154557143Y-80254819D01*
X155890476Y-81254819D02*
X155319048Y-81254819D01*
X155604762Y-81254819D02*
X155604762Y-80254819D01*
X155604762Y-80254819D02*
X155509524Y-80397676D01*
X155509524Y-80397676D02*
X155414286Y-80492914D01*
X155414286Y-80492914D02*
X155319048Y-80540533D01*
X160633333Y-63159580D02*
X160585714Y-63207200D01*
X160585714Y-63207200D02*
X160442857Y-63254819D01*
X160442857Y-63254819D02*
X160347619Y-63254819D01*
X160347619Y-63254819D02*
X160204762Y-63207200D01*
X160204762Y-63207200D02*
X160109524Y-63111961D01*
X160109524Y-63111961D02*
X160061905Y-63016723D01*
X160061905Y-63016723D02*
X160014286Y-62826247D01*
X160014286Y-62826247D02*
X160014286Y-62683390D01*
X160014286Y-62683390D02*
X160061905Y-62492914D01*
X160061905Y-62492914D02*
X160109524Y-62397676D01*
X160109524Y-62397676D02*
X160204762Y-62302438D01*
X160204762Y-62302438D02*
X160347619Y-62254819D01*
X160347619Y-62254819D02*
X160442857Y-62254819D01*
X160442857Y-62254819D02*
X160585714Y-62302438D01*
X160585714Y-62302438D02*
X160633333Y-62350057D01*
X161204762Y-62683390D02*
X161109524Y-62635771D01*
X161109524Y-62635771D02*
X161061905Y-62588152D01*
X161061905Y-62588152D02*
X161014286Y-62492914D01*
X161014286Y-62492914D02*
X161014286Y-62445295D01*
X161014286Y-62445295D02*
X161061905Y-62350057D01*
X161061905Y-62350057D02*
X161109524Y-62302438D01*
X161109524Y-62302438D02*
X161204762Y-62254819D01*
X161204762Y-62254819D02*
X161395238Y-62254819D01*
X161395238Y-62254819D02*
X161490476Y-62302438D01*
X161490476Y-62302438D02*
X161538095Y-62350057D01*
X161538095Y-62350057D02*
X161585714Y-62445295D01*
X161585714Y-62445295D02*
X161585714Y-62492914D01*
X161585714Y-62492914D02*
X161538095Y-62588152D01*
X161538095Y-62588152D02*
X161490476Y-62635771D01*
X161490476Y-62635771D02*
X161395238Y-62683390D01*
X161395238Y-62683390D02*
X161204762Y-62683390D01*
X161204762Y-62683390D02*
X161109524Y-62731009D01*
X161109524Y-62731009D02*
X161061905Y-62778628D01*
X161061905Y-62778628D02*
X161014286Y-62873866D01*
X161014286Y-62873866D02*
X161014286Y-63064342D01*
X161014286Y-63064342D02*
X161061905Y-63159580D01*
X161061905Y-63159580D02*
X161109524Y-63207200D01*
X161109524Y-63207200D02*
X161204762Y-63254819D01*
X161204762Y-63254819D02*
X161395238Y-63254819D01*
X161395238Y-63254819D02*
X161490476Y-63207200D01*
X161490476Y-63207200D02*
X161538095Y-63159580D01*
X161538095Y-63159580D02*
X161585714Y-63064342D01*
X161585714Y-63064342D02*
X161585714Y-62873866D01*
X161585714Y-62873866D02*
X161538095Y-62778628D01*
X161538095Y-62778628D02*
X161490476Y-62731009D01*
X161490476Y-62731009D02*
X161395238Y-62683390D01*
X155633333Y-74159580D02*
X155585714Y-74207200D01*
X155585714Y-74207200D02*
X155442857Y-74254819D01*
X155442857Y-74254819D02*
X155347619Y-74254819D01*
X155347619Y-74254819D02*
X155204762Y-74207200D01*
X155204762Y-74207200D02*
X155109524Y-74111961D01*
X155109524Y-74111961D02*
X155061905Y-74016723D01*
X155061905Y-74016723D02*
X155014286Y-73826247D01*
X155014286Y-73826247D02*
X155014286Y-73683390D01*
X155014286Y-73683390D02*
X155061905Y-73492914D01*
X155061905Y-73492914D02*
X155109524Y-73397676D01*
X155109524Y-73397676D02*
X155204762Y-73302438D01*
X155204762Y-73302438D02*
X155347619Y-73254819D01*
X155347619Y-73254819D02*
X155442857Y-73254819D01*
X155442857Y-73254819D02*
X155585714Y-73302438D01*
X155585714Y-73302438D02*
X155633333Y-73350057D01*
X156014286Y-73350057D02*
X156061905Y-73302438D01*
X156061905Y-73302438D02*
X156157143Y-73254819D01*
X156157143Y-73254819D02*
X156395238Y-73254819D01*
X156395238Y-73254819D02*
X156490476Y-73302438D01*
X156490476Y-73302438D02*
X156538095Y-73350057D01*
X156538095Y-73350057D02*
X156585714Y-73445295D01*
X156585714Y-73445295D02*
X156585714Y-73540533D01*
X156585714Y-73540533D02*
X156538095Y-73683390D01*
X156538095Y-73683390D02*
X155966667Y-74254819D01*
X155966667Y-74254819D02*
X156585714Y-74254819D01*
X161633333Y-65054819D02*
X161300000Y-64578628D01*
X161061905Y-65054819D02*
X161061905Y-64054819D01*
X161061905Y-64054819D02*
X161442857Y-64054819D01*
X161442857Y-64054819D02*
X161538095Y-64102438D01*
X161538095Y-64102438D02*
X161585714Y-64150057D01*
X161585714Y-64150057D02*
X161633333Y-64245295D01*
X161633333Y-64245295D02*
X161633333Y-64388152D01*
X161633333Y-64388152D02*
X161585714Y-64483390D01*
X161585714Y-64483390D02*
X161538095Y-64531009D01*
X161538095Y-64531009D02*
X161442857Y-64578628D01*
X161442857Y-64578628D02*
X161061905Y-64578628D01*
X162585714Y-65054819D02*
X162014286Y-65054819D01*
X162300000Y-65054819D02*
X162300000Y-64054819D01*
X162300000Y-64054819D02*
X162204762Y-64197676D01*
X162204762Y-64197676D02*
X162109524Y-64292914D01*
X162109524Y-64292914D02*
X162014286Y-64340533D01*
X164033333Y-83159580D02*
X163985714Y-83207200D01*
X163985714Y-83207200D02*
X163842857Y-83254819D01*
X163842857Y-83254819D02*
X163747619Y-83254819D01*
X163747619Y-83254819D02*
X163604762Y-83207200D01*
X163604762Y-83207200D02*
X163509524Y-83111961D01*
X163509524Y-83111961D02*
X163461905Y-83016723D01*
X163461905Y-83016723D02*
X163414286Y-82826247D01*
X163414286Y-82826247D02*
X163414286Y-82683390D01*
X163414286Y-82683390D02*
X163461905Y-82492914D01*
X163461905Y-82492914D02*
X163509524Y-82397676D01*
X163509524Y-82397676D02*
X163604762Y-82302438D01*
X163604762Y-82302438D02*
X163747619Y-82254819D01*
X163747619Y-82254819D02*
X163842857Y-82254819D01*
X163842857Y-82254819D02*
X163985714Y-82302438D01*
X163985714Y-82302438D02*
X164033333Y-82350057D01*
X164366667Y-82254819D02*
X164985714Y-82254819D01*
X164985714Y-82254819D02*
X164652381Y-82635771D01*
X164652381Y-82635771D02*
X164795238Y-82635771D01*
X164795238Y-82635771D02*
X164890476Y-82683390D01*
X164890476Y-82683390D02*
X164938095Y-82731009D01*
X164938095Y-82731009D02*
X164985714Y-82826247D01*
X164985714Y-82826247D02*
X164985714Y-83064342D01*
X164985714Y-83064342D02*
X164938095Y-83159580D01*
X164938095Y-83159580D02*
X164890476Y-83207200D01*
X164890476Y-83207200D02*
X164795238Y-83254819D01*
X164795238Y-83254819D02*
X164509524Y-83254819D01*
X164509524Y-83254819D02*
X164414286Y-83207200D01*
X164414286Y-83207200D02*
X164366667Y-83159580D01*
X163038095Y-80254819D02*
X163038095Y-81064342D01*
X163038095Y-81064342D02*
X163085714Y-81159580D01*
X163085714Y-81159580D02*
X163133333Y-81207200D01*
X163133333Y-81207200D02*
X163228571Y-81254819D01*
X163228571Y-81254819D02*
X163419047Y-81254819D01*
X163419047Y-81254819D02*
X163514285Y-81207200D01*
X163514285Y-81207200D02*
X163561904Y-81159580D01*
X163561904Y-81159580D02*
X163609523Y-81064342D01*
X163609523Y-81064342D02*
X163609523Y-80254819D01*
X164609523Y-81254819D02*
X164038095Y-81254819D01*
X164323809Y-81254819D02*
X164323809Y-80254819D01*
X164323809Y-80254819D02*
X164228571Y-80397676D01*
X164228571Y-80397676D02*
X164133333Y-80492914D01*
X164133333Y-80492914D02*
X164038095Y-80540533D01*
X151957142Y-98759580D02*
X151909523Y-98807200D01*
X151909523Y-98807200D02*
X151766666Y-98854819D01*
X151766666Y-98854819D02*
X151671428Y-98854819D01*
X151671428Y-98854819D02*
X151528571Y-98807200D01*
X151528571Y-98807200D02*
X151433333Y-98711961D01*
X151433333Y-98711961D02*
X151385714Y-98616723D01*
X151385714Y-98616723D02*
X151338095Y-98426247D01*
X151338095Y-98426247D02*
X151338095Y-98283390D01*
X151338095Y-98283390D02*
X151385714Y-98092914D01*
X151385714Y-98092914D02*
X151433333Y-97997676D01*
X151433333Y-97997676D02*
X151528571Y-97902438D01*
X151528571Y-97902438D02*
X151671428Y-97854819D01*
X151671428Y-97854819D02*
X151766666Y-97854819D01*
X151766666Y-97854819D02*
X151909523Y-97902438D01*
X151909523Y-97902438D02*
X151957142Y-97950057D01*
X152909523Y-98854819D02*
X152338095Y-98854819D01*
X152623809Y-98854819D02*
X152623809Y-97854819D01*
X152623809Y-97854819D02*
X152528571Y-97997676D01*
X152528571Y-97997676D02*
X152433333Y-98092914D01*
X152433333Y-98092914D02*
X152338095Y-98140533D01*
X153861904Y-98854819D02*
X153290476Y-98854819D01*
X153576190Y-98854819D02*
X153576190Y-97854819D01*
X153576190Y-97854819D02*
X153480952Y-97997676D01*
X153480952Y-97997676D02*
X153385714Y-98092914D01*
X153385714Y-98092914D02*
X153290476Y-98140533D01*
X163433333Y-68454819D02*
X162957143Y-68454819D01*
X162957143Y-68454819D02*
X162957143Y-67454819D01*
X163671429Y-67454819D02*
X164290476Y-67454819D01*
X164290476Y-67454819D02*
X163957143Y-67835771D01*
X163957143Y-67835771D02*
X164100000Y-67835771D01*
X164100000Y-67835771D02*
X164195238Y-67883390D01*
X164195238Y-67883390D02*
X164242857Y-67931009D01*
X164242857Y-67931009D02*
X164290476Y-68026247D01*
X164290476Y-68026247D02*
X164290476Y-68264342D01*
X164290476Y-68264342D02*
X164242857Y-68359580D01*
X164242857Y-68359580D02*
X164195238Y-68407200D01*
X164195238Y-68407200D02*
X164100000Y-68454819D01*
X164100000Y-68454819D02*
X163814286Y-68454819D01*
X163814286Y-68454819D02*
X163719048Y-68407200D01*
X163719048Y-68407200D02*
X163671429Y-68359580D01*
X161033333Y-87254819D02*
X160700000Y-86778628D01*
X160461905Y-87254819D02*
X160461905Y-86254819D01*
X160461905Y-86254819D02*
X160842857Y-86254819D01*
X160842857Y-86254819D02*
X160938095Y-86302438D01*
X160938095Y-86302438D02*
X160985714Y-86350057D01*
X160985714Y-86350057D02*
X161033333Y-86445295D01*
X161033333Y-86445295D02*
X161033333Y-86588152D01*
X161033333Y-86588152D02*
X160985714Y-86683390D01*
X160985714Y-86683390D02*
X160938095Y-86731009D01*
X160938095Y-86731009D02*
X160842857Y-86778628D01*
X160842857Y-86778628D02*
X160461905Y-86778628D01*
X161414286Y-86350057D02*
X161461905Y-86302438D01*
X161461905Y-86302438D02*
X161557143Y-86254819D01*
X161557143Y-86254819D02*
X161795238Y-86254819D01*
X161795238Y-86254819D02*
X161890476Y-86302438D01*
X161890476Y-86302438D02*
X161938095Y-86350057D01*
X161938095Y-86350057D02*
X161985714Y-86445295D01*
X161985714Y-86445295D02*
X161985714Y-86540533D01*
X161985714Y-86540533D02*
X161938095Y-86683390D01*
X161938095Y-86683390D02*
X161366667Y-87254819D01*
X161366667Y-87254819D02*
X161985714Y-87254819D01*
X153433333Y-79054819D02*
X152957143Y-79054819D01*
X152957143Y-79054819D02*
X152957143Y-78054819D01*
X153719048Y-78150057D02*
X153766667Y-78102438D01*
X153766667Y-78102438D02*
X153861905Y-78054819D01*
X153861905Y-78054819D02*
X154100000Y-78054819D01*
X154100000Y-78054819D02*
X154195238Y-78102438D01*
X154195238Y-78102438D02*
X154242857Y-78150057D01*
X154242857Y-78150057D02*
X154290476Y-78245295D01*
X154290476Y-78245295D02*
X154290476Y-78340533D01*
X154290476Y-78340533D02*
X154242857Y-78483390D01*
X154242857Y-78483390D02*
X153671429Y-79054819D01*
X153671429Y-79054819D02*
X154290476Y-79054819D01*
X156233333Y-72559580D02*
X156185714Y-72607200D01*
X156185714Y-72607200D02*
X156042857Y-72654819D01*
X156042857Y-72654819D02*
X155947619Y-72654819D01*
X155947619Y-72654819D02*
X155804762Y-72607200D01*
X155804762Y-72607200D02*
X155709524Y-72511961D01*
X155709524Y-72511961D02*
X155661905Y-72416723D01*
X155661905Y-72416723D02*
X155614286Y-72226247D01*
X155614286Y-72226247D02*
X155614286Y-72083390D01*
X155614286Y-72083390D02*
X155661905Y-71892914D01*
X155661905Y-71892914D02*
X155709524Y-71797676D01*
X155709524Y-71797676D02*
X155804762Y-71702438D01*
X155804762Y-71702438D02*
X155947619Y-71654819D01*
X155947619Y-71654819D02*
X156042857Y-71654819D01*
X156042857Y-71654819D02*
X156185714Y-71702438D01*
X156185714Y-71702438D02*
X156233333Y-71750057D01*
X156709524Y-72654819D02*
X156900000Y-72654819D01*
X156900000Y-72654819D02*
X156995238Y-72607200D01*
X156995238Y-72607200D02*
X157042857Y-72559580D01*
X157042857Y-72559580D02*
X157138095Y-72416723D01*
X157138095Y-72416723D02*
X157185714Y-72226247D01*
X157185714Y-72226247D02*
X157185714Y-71845295D01*
X157185714Y-71845295D02*
X157138095Y-71750057D01*
X157138095Y-71750057D02*
X157090476Y-71702438D01*
X157090476Y-71702438D02*
X156995238Y-71654819D01*
X156995238Y-71654819D02*
X156804762Y-71654819D01*
X156804762Y-71654819D02*
X156709524Y-71702438D01*
X156709524Y-71702438D02*
X156661905Y-71750057D01*
X156661905Y-71750057D02*
X156614286Y-71845295D01*
X156614286Y-71845295D02*
X156614286Y-72083390D01*
X156614286Y-72083390D02*
X156661905Y-72178628D01*
X156661905Y-72178628D02*
X156709524Y-72226247D01*
X156709524Y-72226247D02*
X156804762Y-72273866D01*
X156804762Y-72273866D02*
X156995238Y-72273866D01*
X156995238Y-72273866D02*
X157090476Y-72226247D01*
X157090476Y-72226247D02*
X157138095Y-72178628D01*
X157138095Y-72178628D02*
X157185714Y-72083390D01*
X155033333Y-99654819D02*
X154700000Y-99178628D01*
X154461905Y-99654819D02*
X154461905Y-98654819D01*
X154461905Y-98654819D02*
X154842857Y-98654819D01*
X154842857Y-98654819D02*
X154938095Y-98702438D01*
X154938095Y-98702438D02*
X154985714Y-98750057D01*
X154985714Y-98750057D02*
X155033333Y-98845295D01*
X155033333Y-98845295D02*
X155033333Y-98988152D01*
X155033333Y-98988152D02*
X154985714Y-99083390D01*
X154985714Y-99083390D02*
X154938095Y-99131009D01*
X154938095Y-99131009D02*
X154842857Y-99178628D01*
X154842857Y-99178628D02*
X154461905Y-99178628D01*
X155890476Y-98988152D02*
X155890476Y-99654819D01*
X155652381Y-98607200D02*
X155414286Y-99321485D01*
X155414286Y-99321485D02*
X156033333Y-99321485D01*
X157038095Y-89454819D02*
X157038095Y-90264342D01*
X157038095Y-90264342D02*
X157085714Y-90359580D01*
X157085714Y-90359580D02*
X157133333Y-90407200D01*
X157133333Y-90407200D02*
X157228571Y-90454819D01*
X157228571Y-90454819D02*
X157419047Y-90454819D01*
X157419047Y-90454819D02*
X157514285Y-90407200D01*
X157514285Y-90407200D02*
X157561904Y-90359580D01*
X157561904Y-90359580D02*
X157609523Y-90264342D01*
X157609523Y-90264342D02*
X157609523Y-89454819D01*
X158038095Y-89550057D02*
X158085714Y-89502438D01*
X158085714Y-89502438D02*
X158180952Y-89454819D01*
X158180952Y-89454819D02*
X158419047Y-89454819D01*
X158419047Y-89454819D02*
X158514285Y-89502438D01*
X158514285Y-89502438D02*
X158561904Y-89550057D01*
X158561904Y-89550057D02*
X158609523Y-89645295D01*
X158609523Y-89645295D02*
X158609523Y-89740533D01*
X158609523Y-89740533D02*
X158561904Y-89883390D01*
X158561904Y-89883390D02*
X157990476Y-90454819D01*
X157990476Y-90454819D02*
X158609523Y-90454819D01*
X151957142Y-93359580D02*
X151909523Y-93407200D01*
X151909523Y-93407200D02*
X151766666Y-93454819D01*
X151766666Y-93454819D02*
X151671428Y-93454819D01*
X151671428Y-93454819D02*
X151528571Y-93407200D01*
X151528571Y-93407200D02*
X151433333Y-93311961D01*
X151433333Y-93311961D02*
X151385714Y-93216723D01*
X151385714Y-93216723D02*
X151338095Y-93026247D01*
X151338095Y-93026247D02*
X151338095Y-92883390D01*
X151338095Y-92883390D02*
X151385714Y-92692914D01*
X151385714Y-92692914D02*
X151433333Y-92597676D01*
X151433333Y-92597676D02*
X151528571Y-92502438D01*
X151528571Y-92502438D02*
X151671428Y-92454819D01*
X151671428Y-92454819D02*
X151766666Y-92454819D01*
X151766666Y-92454819D02*
X151909523Y-92502438D01*
X151909523Y-92502438D02*
X151957142Y-92550057D01*
X152909523Y-93454819D02*
X152338095Y-93454819D01*
X152623809Y-93454819D02*
X152623809Y-92454819D01*
X152623809Y-92454819D02*
X152528571Y-92597676D01*
X152528571Y-92597676D02*
X152433333Y-92692914D01*
X152433333Y-92692914D02*
X152338095Y-92740533D01*
X153290476Y-92550057D02*
X153338095Y-92502438D01*
X153338095Y-92502438D02*
X153433333Y-92454819D01*
X153433333Y-92454819D02*
X153671428Y-92454819D01*
X153671428Y-92454819D02*
X153766666Y-92502438D01*
X153766666Y-92502438D02*
X153814285Y-92550057D01*
X153814285Y-92550057D02*
X153861904Y-92645295D01*
X153861904Y-92645295D02*
X153861904Y-92740533D01*
X153861904Y-92740533D02*
X153814285Y-92883390D01*
X153814285Y-92883390D02*
X153242857Y-93454819D01*
X153242857Y-93454819D02*
X153861904Y-93454819D01*
X156757142Y-67359580D02*
X156709523Y-67407200D01*
X156709523Y-67407200D02*
X156566666Y-67454819D01*
X156566666Y-67454819D02*
X156471428Y-67454819D01*
X156471428Y-67454819D02*
X156328571Y-67407200D01*
X156328571Y-67407200D02*
X156233333Y-67311961D01*
X156233333Y-67311961D02*
X156185714Y-67216723D01*
X156185714Y-67216723D02*
X156138095Y-67026247D01*
X156138095Y-67026247D02*
X156138095Y-66883390D01*
X156138095Y-66883390D02*
X156185714Y-66692914D01*
X156185714Y-66692914D02*
X156233333Y-66597676D01*
X156233333Y-66597676D02*
X156328571Y-66502438D01*
X156328571Y-66502438D02*
X156471428Y-66454819D01*
X156471428Y-66454819D02*
X156566666Y-66454819D01*
X156566666Y-66454819D02*
X156709523Y-66502438D01*
X156709523Y-66502438D02*
X156757142Y-66550057D01*
X157709523Y-67454819D02*
X157138095Y-67454819D01*
X157423809Y-67454819D02*
X157423809Y-66454819D01*
X157423809Y-66454819D02*
X157328571Y-66597676D01*
X157328571Y-66597676D02*
X157233333Y-66692914D01*
X157233333Y-66692914D02*
X157138095Y-66740533D01*
X158328571Y-66454819D02*
X158423809Y-66454819D01*
X158423809Y-66454819D02*
X158519047Y-66502438D01*
X158519047Y-66502438D02*
X158566666Y-66550057D01*
X158566666Y-66550057D02*
X158614285Y-66645295D01*
X158614285Y-66645295D02*
X158661904Y-66835771D01*
X158661904Y-66835771D02*
X158661904Y-67073866D01*
X158661904Y-67073866D02*
X158614285Y-67264342D01*
X158614285Y-67264342D02*
X158566666Y-67359580D01*
X158566666Y-67359580D02*
X158519047Y-67407200D01*
X158519047Y-67407200D02*
X158423809Y-67454819D01*
X158423809Y-67454819D02*
X158328571Y-67454819D01*
X158328571Y-67454819D02*
X158233333Y-67407200D01*
X158233333Y-67407200D02*
X158185714Y-67359580D01*
X158185714Y-67359580D02*
X158138095Y-67264342D01*
X158138095Y-67264342D02*
X158090476Y-67073866D01*
X158090476Y-67073866D02*
X158090476Y-66835771D01*
X158090476Y-66835771D02*
X158138095Y-66645295D01*
X158138095Y-66645295D02*
X158185714Y-66550057D01*
X158185714Y-66550057D02*
X158233333Y-66502438D01*
X158233333Y-66502438D02*
X158328571Y-66454819D01*
D11*
%TO.C,J3*%
X154080000Y-105160000D02*
X154080000Y-103460000D01*
X163420000Y-105160000D02*
X163420000Y-103460000D01*
%TO.C,D1*%
X162465000Y-87765000D02*
X162465000Y-89235000D01*
X162465000Y-89235000D02*
X164925000Y-89235000D01*
X164925000Y-87765000D02*
X162465000Y-87765000D01*
%TO.C,R3*%
X161745276Y-98977500D02*
X162254724Y-98977500D01*
X161745276Y-100022500D02*
X162254724Y-100022500D01*
%TO.C,C7*%
X162907836Y-71110000D02*
X162692164Y-71110000D01*
X162907836Y-71830000D02*
X162692164Y-71830000D01*
%TO.C,Y1*%
X157450000Y-71620000D02*
X159750000Y-71620000D01*
X159750000Y-71620000D02*
X159750000Y-68920000D01*
%TO.C,C1*%
X158046267Y-80360000D02*
X157753733Y-80360000D01*
X158046267Y-81380000D02*
X157753733Y-81380000D01*
%TO.C,C6*%
X157346267Y-77160000D02*
X157053733Y-77160000D01*
X157346267Y-78180000D02*
X157053733Y-78180000D01*
%TO.C,C5*%
X160540000Y-71215835D02*
X160540000Y-70984165D01*
X161260000Y-71215835D02*
X161260000Y-70984165D01*
%TO.C,C4*%
X159840000Y-81084165D02*
X159840000Y-81315835D01*
X160560000Y-81084165D02*
X160560000Y-81315835D01*
%TO.C,L1*%
X157371267Y-78760000D02*
X157028733Y-78760000D01*
X157371267Y-79780000D02*
X157028733Y-79780000D01*
%TO.C,C8*%
X162907836Y-62140000D02*
X162692164Y-62140000D01*
X162907836Y-62860000D02*
X162692164Y-62860000D01*
%TO.C,C2*%
X158115835Y-73110000D02*
X157884165Y-73110000D01*
X158115835Y-73830000D02*
X157884165Y-73830000D01*
%TO.C,R1*%
X162920000Y-64153641D02*
X162920000Y-63846359D01*
X163680000Y-64153641D02*
X163680000Y-63846359D01*
%TO.C,C3*%
X165340000Y-81384165D02*
X165340000Y-81615835D01*
X166060000Y-81384165D02*
X166060000Y-81615835D01*
%TO.C,U1*%
X159610000Y-73360000D02*
X160160000Y-73360000D01*
X159610000Y-73910000D02*
X159610000Y-73360000D01*
X159610000Y-79030000D02*
X159610000Y-79280000D01*
X160160000Y-79580000D02*
X159850000Y-79580000D01*
X165830000Y-73360000D02*
X165280000Y-73360000D01*
X165830000Y-73910000D02*
X165830000Y-73360000D01*
X165830000Y-79030000D02*
X165830000Y-79580000D01*
X165830000Y-79580000D02*
X165280000Y-79580000D01*
X159610000Y-79580000D02*
X159280000Y-79820000D01*
X159280000Y-79340000D01*
X159610000Y-79580000D01*
G36*
X159610000Y-79580000D02*
G01*
X159280000Y-79820000D01*
X159280000Y-79340000D01*
X159610000Y-79580000D01*
G37*
%TO.C,C11*%
X154346267Y-96290000D02*
X154053733Y-96290000D01*
X154346267Y-97310000D02*
X154053733Y-97310000D01*
%TO.C,JP1*%
X153200000Y-91000000D02*
X153200000Y-89600000D01*
X153900000Y-88900000D02*
X154500000Y-88900000D01*
X154500000Y-91700000D02*
X153900000Y-91700000D01*
X155200000Y-89600000D02*
X155200000Y-91000000D01*
X153200000Y-89600000D02*
G75*
G02*
X153900000Y-88900000I700000J0D01*
G01*
X153900000Y-91700000D02*
G75*
G02*
X153200000Y-91000000I-1J699999D01*
G01*
X154500000Y-88900000D02*
G75*
G02*
X155200000Y-89600000I0J-700000D01*
G01*
X155200000Y-91000000D02*
G75*
G02*
X154500000Y-91700000I-699999J-1D01*
G01*
%TO.C,R2*%
X163820276Y-86177500D02*
X164329724Y-86177500D01*
X163820276Y-87222500D02*
X164329724Y-87222500D01*
%TO.C,L2*%
X154640000Y-78970200D02*
X154640000Y-78769800D01*
X155360000Y-78970200D02*
X155360000Y-78769800D01*
%TO.C,C9*%
X158715835Y-71910000D02*
X158484165Y-71910000D01*
X158715835Y-72630000D02*
X158484165Y-72630000D01*
%TO.C,R4*%
X157745276Y-98977500D02*
X158254724Y-98977500D01*
X157745276Y-100022500D02*
X158254724Y-100022500D01*
%TO.C,U2*%
X159150000Y-91090000D02*
X162910000Y-91090000D01*
X159150000Y-97910000D02*
X162910000Y-97910000D01*
X162910000Y-91090000D02*
X162910000Y-92350000D01*
X162910000Y-97910000D02*
X162910000Y-96650000D01*
X157870000Y-91190000D02*
X157630000Y-90860000D01*
X158110000Y-90860000D01*
X157870000Y-91190000D01*
G36*
X157870000Y-91190000D02*
G01*
X157630000Y-90860000D01*
X158110000Y-90860000D01*
X157870000Y-91190000D01*
G37*
%TO.C,C12*%
X154346267Y-93990000D02*
X154053733Y-93990000D01*
X154346267Y-95010000D02*
X154053733Y-95010000D01*
%TO.C,C10*%
X157615835Y-67910000D02*
X157384165Y-67910000D01*
X157615835Y-68630000D02*
X157384165Y-68630000D01*
%TD*%
%LPC*%
D12*
%TO.C,J3*%
X158250000Y-102330000D03*
D13*
X160270000Y-102330000D03*
D14*
X161500000Y-102330000D03*
D15*
X159250000Y-102330000D03*
D16*
X157230000Y-102330000D03*
D17*
X156000000Y-102330000D03*
D18*
X154430000Y-102410000D03*
X154430000Y-106210000D03*
X163070000Y-102410000D03*
X163070000Y-106210000D03*
%TD*%
D19*
%TO.C,D1*%
X163250000Y-88500000D03*
X165000000Y-88500000D03*
%TD*%
D20*
%TO.C,R3*%
X161087500Y-99500000D03*
X162912500Y-99500000D03*
%TD*%
D21*
%TO.C,C7*%
X163280000Y-71470000D03*
X162320000Y-71470000D03*
%TD*%
D22*
%TO.C,Y1*%
X159150000Y-70970000D03*
X159150000Y-69570000D03*
X158050000Y-69570000D03*
X158050000Y-70970000D03*
%TD*%
D23*
%TO.C,C1*%
X158762500Y-80870000D03*
X157037500Y-80870000D03*
%TD*%
%TO.C,C6*%
X158062500Y-77670000D03*
X156337500Y-77670000D03*
%TD*%
D24*
%TO.C,C5*%
X160900000Y-71667500D03*
X160900000Y-70532500D03*
%TD*%
D25*
%TO.C,C4*%
X160200000Y-80632500D03*
X160200000Y-81767500D03*
%TD*%
D26*
%TO.C,L1*%
X158075000Y-79270000D03*
X156325000Y-79270000D03*
%TD*%
D21*
%TO.C,C8*%
X163280000Y-62500000D03*
X162320000Y-62500000D03*
%TD*%
D27*
%TO.C,C2*%
X158567500Y-73470000D03*
X157432500Y-73470000D03*
%TD*%
D28*
%TO.C,R1*%
X163300000Y-64510000D03*
X163300000Y-63490000D03*
%TD*%
D25*
%TO.C,C3*%
X165700000Y-80932500D03*
X165700000Y-82067500D03*
%TD*%
D29*
%TO.C,U1*%
X160520000Y-79420000D03*
X160920000Y-79420000D03*
X161320000Y-79420000D03*
X161720000Y-79420000D03*
X162120000Y-79420000D03*
X162520000Y-79420000D03*
X162920000Y-79420000D03*
X163320000Y-79420000D03*
X163720000Y-79420000D03*
X164120000Y-79420000D03*
X164520000Y-79420000D03*
X164920000Y-79420000D03*
D30*
X165670000Y-78670000D03*
X165670000Y-78270000D03*
X165670000Y-77870000D03*
X165670000Y-77470000D03*
X165670000Y-77070000D03*
X165670000Y-76670000D03*
X165670000Y-76270000D03*
X165670000Y-75870000D03*
X165670000Y-75470000D03*
X165670000Y-75070000D03*
X165670000Y-74670000D03*
X165670000Y-74270000D03*
D29*
X164920000Y-73520000D03*
X164520000Y-73520000D03*
X164120000Y-73520000D03*
X163720000Y-73520000D03*
X163320000Y-73520000D03*
X162920000Y-73520000D03*
X162520000Y-73520000D03*
X162120000Y-73520000D03*
X161720000Y-73520000D03*
X161320000Y-73520000D03*
X160920000Y-73520000D03*
X160520000Y-73520000D03*
D30*
X159770000Y-74270000D03*
X159770000Y-74670000D03*
X159770000Y-75070000D03*
X159770000Y-75470000D03*
X159770000Y-75870000D03*
X159770000Y-76270000D03*
X159770000Y-76670000D03*
X159770000Y-77070000D03*
X159770000Y-77470000D03*
X159770000Y-77870000D03*
X159770000Y-78270000D03*
X159770000Y-78670000D03*
D31*
X162720000Y-76470000D03*
%TD*%
D23*
%TO.C,C11*%
X155062500Y-96800000D03*
X153337500Y-96800000D03*
%TD*%
D32*
%TO.C,JP1*%
X154200000Y-90950000D03*
D33*
X154200000Y-89650000D03*
%TD*%
D34*
%TO.C,L3*%
X163300000Y-70355000D03*
X163300000Y-69385000D03*
%TD*%
D20*
%TO.C,R2*%
X163162500Y-86700000D03*
X164987500Y-86700000D03*
%TD*%
D35*
%TO.C,L2*%
X155000000Y-79442500D03*
X155000000Y-78297500D03*
%TD*%
D27*
%TO.C,C9*%
X159167500Y-72270000D03*
X158032500Y-72270000D03*
%TD*%
D20*
%TO.C,R4*%
X157087500Y-99500000D03*
X158912500Y-99500000D03*
%TD*%
D36*
%TO.C,U2*%
X157850000Y-92200000D03*
X157850000Y-94500000D03*
D37*
X164150000Y-94500000D03*
D36*
X157850000Y-96800000D03*
%TD*%
D23*
%TO.C,C12*%
X155062500Y-94500000D03*
X153337500Y-94500000D03*
%TD*%
D27*
%TO.C,C10*%
X158067500Y-68270000D03*
X156932500Y-68270000D03*
%TD*%
D38*
%TO.C,J2*%
X172720000Y-58420000D03*
D39*
X172720000Y-60960000D03*
X172720000Y-63500000D03*
X172720000Y-66040000D03*
X172720000Y-68580000D03*
X172720000Y-71120000D03*
X172720000Y-73660000D03*
X172720000Y-76200000D03*
X172720000Y-78740000D03*
X172720000Y-81280000D03*
X172720000Y-83820000D03*
X172720000Y-86360000D03*
X172720000Y-88900000D03*
X172720000Y-91440000D03*
X172720000Y-93980000D03*
X172720000Y-96520000D03*
X172720000Y-99060000D03*
X172720000Y-101600000D03*
X172720000Y-104140000D03*
X172720000Y-106680000D03*
%TD*%
D38*
%TO.C,J1*%
X144780000Y-58420000D03*
D39*
X144780000Y-60960000D03*
X144780000Y-63500000D03*
X144780000Y-66040000D03*
X144780000Y-68580000D03*
X144780000Y-71120000D03*
X144780000Y-73660000D03*
X144780000Y-76200000D03*
X144780000Y-78740000D03*
X144780000Y-81280000D03*
X144780000Y-83820000D03*
X144780000Y-86360000D03*
X144780000Y-88900000D03*
X144780000Y-91440000D03*
X144780000Y-93980000D03*
X144780000Y-96520000D03*
X144780000Y-99060000D03*
X144780000Y-101600000D03*
X144780000Y-104140000D03*
X144780000Y-106680000D03*
%TD*%
%LPD*%
M02*
