M48
; DRILL file {KiCad 8.0.3-8.0.3-0~ubuntu22.04.1} date 2024-10-04T19:57:14+0200
; FORMAT={-:-/ absolute / metric / decimal}
; #@! TF.CreationDate,2024-10-04T19:57:14+02:00
; #@! TF.GenerationSoftware,Kicad,Pcbnew,8.0.3-8.0.3-0~ubuntu22.04.1
; #@! TF.FileFunction,Plated,1,2,PTH
FMAT,2
METRIC
; #@! TA.AperFunction,Plated,PTH,ViaDrill
T1C0.300
; #@! TA.AperFunction,Plated,PTH,ComponentDrill
T2C0.300
; #@! TA.AperFunction,Plated,PTH,ComponentDrill
T3C0.600
; #@! TA.AperFunction,Plated,PTH,ComponentDrill
T4C1.000
%
G90
G05
T1
X143.616Y-61.987
X143.616Y-64.527
X143.616Y-67.067
X143.616Y-69.607
X143.616Y-72.147
X143.616Y-74.687
X143.616Y-77.227
X143.616Y-79.767
X143.616Y-82.307
X143.616Y-84.847
X143.616Y-87.387
X143.616Y-89.927
X143.616Y-92.467
X143.616Y-95.007
X143.616Y-97.547
X143.616Y-100.087
X143.616Y-102.627
X143.616Y-105.167
X143.616Y-107.707
X146.156Y-105.167
X146.156Y-107.707
X146.939Y-74.803
X147.5Y-88.5
X148.696Y-61.987
X148.696Y-64.527
X148.696Y-95.007
X148.696Y-97.547
X148.696Y-102.627
X148.696Y-105.167
X148.696Y-107.707
X148.717Y-69.469
X148.717Y-72.136
X148.717Y-74.422
X150.0Y-86.5
X151.236Y-61.987
X151.236Y-64.527
X151.236Y-67.067
X151.236Y-79.767
X151.236Y-100.087
X151.236Y-102.627
X151.236Y-105.167
X151.236Y-107.707
X153.776Y-61.987
X153.776Y-64.527
X153.776Y-67.067
X153.776Y-69.607
X153.776Y-79.767
X153.776Y-100.087
X153.776Y-107.707
X156.0Y-89.0
X156.316Y-61.987
X156.316Y-64.527
X156.316Y-67.067
X156.316Y-69.607
X156.316Y-72.147
X156.316Y-92.467
X156.316Y-105.167
X156.316Y-107.707
X158.0Y-81.6
X158.856Y-61.987
X158.856Y-64.527
X158.856Y-67.067
X158.856Y-89.927
X158.856Y-105.167
X158.856Y-107.707
X159.2Y-68.6
X159.3Y-73.5
X159.7Y-81.6
X161.0Y-75.0
X161.0Y-76.0
X161.0Y-77.0
X161.0Y-78.0
X161.396Y-61.987
X161.396Y-89.927
X161.396Y-92.467
X161.396Y-97.547
X161.396Y-105.167
X161.396Y-107.707
X162.0Y-63.5
X162.0Y-64.5
X162.0Y-65.5
X162.0Y-66.5
X162.0Y-67.5
X162.0Y-68.5
X162.0Y-69.5
X162.0Y-70.5
X162.0Y-75.0
X162.0Y-76.0
X162.0Y-77.0
X162.0Y-78.0
X163.0Y-75.0
X163.0Y-76.0
X163.0Y-77.0
X163.0Y-78.0
X163.936Y-89.927
X163.936Y-97.547
X163.936Y-100.087
X163.936Y-107.707
X164.0Y-75.0
X164.0Y-76.0
X164.0Y-77.0
X164.0Y-78.0
X164.49Y-64.434
X164.5Y-62.5
X164.5Y-63.5
X164.5Y-65.5
X164.5Y-66.5
X164.5Y-67.5
X164.5Y-68.5
X164.5Y-69.5
X164.5Y-70.5
X165.7Y-80.2
X165.7Y-83.1
X166.476Y-61.987
X166.476Y-64.527
X166.476Y-95.007
X166.476Y-97.547
X166.476Y-100.087
X166.476Y-102.627
X166.476Y-105.167
X166.476Y-107.707
X169.016Y-61.987
X169.016Y-97.547
X169.016Y-100.087
X169.016Y-102.627
X169.016Y-105.167
X169.016Y-107.707
X170.0Y-76.5
X171.556Y-67.067
X171.556Y-69.607
X171.556Y-72.147
X171.556Y-100.087
X171.556Y-102.627
X171.556Y-105.167
X171.556Y-107.707
X174.096Y-61.987
X174.096Y-64.527
X174.096Y-67.067
X174.096Y-69.607
X174.096Y-72.147
X174.096Y-74.687
X174.096Y-77.227
X174.096Y-79.767
X174.096Y-82.307
X174.096Y-84.847
X174.096Y-87.387
X174.096Y-89.927
X174.096Y-92.467
X174.096Y-95.007
X174.096Y-97.547
X174.096Y-100.087
X174.096Y-102.627
X174.096Y-105.167
X174.096Y-107.707
T2
X165.4Y-61.625
T4
X144.78Y-58.42
X144.78Y-60.96
X144.78Y-63.5
X144.78Y-66.04
X144.78Y-68.58
X144.78Y-71.12
X144.78Y-73.66
X144.78Y-76.2
X144.78Y-78.74
X144.78Y-81.28
X144.78Y-83.82
X144.78Y-86.36
X144.78Y-88.9
X144.78Y-91.44
X144.78Y-93.98
X144.78Y-96.52
X144.78Y-99.06
X144.78Y-101.6
X144.78Y-104.14
X144.78Y-106.68
X172.72Y-58.42
X172.72Y-60.96
X172.72Y-63.5
X172.72Y-66.04
X172.72Y-68.58
X172.72Y-71.12
X172.72Y-73.66
X172.72Y-76.2
X172.72Y-78.74
X172.72Y-81.28
X172.72Y-83.82
X172.72Y-86.36
X172.72Y-88.9
X172.72Y-91.44
X172.72Y-93.98
X172.72Y-96.52
X172.72Y-99.06
X172.72Y-101.6
X172.72Y-104.14
X172.72Y-106.68
T3
X154.43Y-102.11G85X154.43Y-102.71
G05
X154.43Y-105.91G85X154.43Y-106.51
G05
X163.07Y-102.11G85X163.07Y-102.71
G05
X163.07Y-105.91G85X163.07Y-106.51
G05
M30
