%TF.GenerationSoftware,KiCad,Pcbnew,8.0.3-8.0.3-0~ubuntu22.04.1*%
%TF.CreationDate,2024-10-04T19:55:40+02:00*%
%TF.ProjectId,nrf52832_devboard,6e726635-3238-4333-925f-646576626f61,0.1*%
%TF.SameCoordinates,Original*%
%TF.FileFunction,Paste,Top*%
%TF.FilePolarity,Positive*%
%FSLAX46Y46*%
G04 Gerber Fmt 4.6, Leading zero omitted, Abs format (unit mm)*
G04 Created by KiCad (PCBNEW 8.0.3-8.0.3-0~ubuntu22.04.1) date 2024-10-04 19:55:40*
%MOMM*%
%LPD*%
G01*
G04 APERTURE LIST*
G04 Aperture macros list*
%AMRoundRect*
0 Rectangle with rounded corners*
0 $1 Rounding radius*
0 $2 $3 $4 $5 $6 $7 $8 $9 X,Y pos of 4 corners*
0 Add a 4 corners polygon primitive as box body*
4,1,4,$2,$3,$4,$5,$6,$7,$8,$9,$2,$3,0*
0 Add four circle primitives for the rounded corners*
1,1,$1+$1,$2,$3*
1,1,$1+$1,$4,$5*
1,1,$1+$1,$6,$7*
1,1,$1+$1,$8,$9*
0 Add four rect primitives between the rounded corners*
20,1,$1+$1,$2,$3,$4,$5,0*
20,1,$1+$1,$4,$5,$6,$7,0*
20,1,$1+$1,$6,$7,$8,$9,0*
20,1,$1+$1,$8,$9,$2,$3,0*%
G04 Aperture macros list end*
%ADD10RoundRect,0.175000X-0.175000X-0.425000X0.175000X-0.425000X0.175000X0.425000X-0.175000X0.425000X0*%
%ADD11RoundRect,0.190000X0.190000X0.410000X-0.190000X0.410000X-0.190000X-0.410000X0.190000X-0.410000X0*%
%ADD12RoundRect,0.200000X0.200000X0.400000X-0.200000X0.400000X-0.200000X-0.400000X0.200000X-0.400000X0*%
%ADD13RoundRect,0.175000X0.175000X0.425000X-0.175000X0.425000X-0.175000X-0.425000X0.175000X-0.425000X0*%
%ADD14RoundRect,0.190000X-0.190000X-0.410000X0.190000X-0.410000X0.190000X0.410000X-0.190000X0.410000X0*%
%ADD15RoundRect,0.200000X-0.200000X-0.400000X0.200000X-0.400000X0.200000X0.400000X-0.200000X0.400000X0*%
%ADD16O,1.100000X1.700000*%
%ADD17RoundRect,0.237500X-0.287500X-0.237500X0.287500X-0.237500X0.287500X0.237500X-0.287500X0.237500X0*%
%ADD18RoundRect,0.237500X-0.250000X-0.237500X0.250000X-0.237500X0.250000X0.237500X-0.250000X0.237500X0*%
%ADD19RoundRect,0.140000X0.140000X0.170000X-0.140000X0.170000X-0.140000X-0.170000X0.140000X-0.170000X0*%
%ADD20R,0.800000X0.900000*%
%ADD21RoundRect,0.237500X0.300000X0.237500X-0.300000X0.237500X-0.300000X-0.237500X0.300000X-0.237500X0*%
%ADD22RoundRect,0.155000X0.155000X-0.212500X0.155000X0.212500X-0.155000X0.212500X-0.155000X-0.212500X0*%
%ADD23RoundRect,0.155000X-0.155000X0.212500X-0.155000X-0.212500X0.155000X-0.212500X0.155000X0.212500X0*%
%ADD24RoundRect,0.237500X0.287500X0.237500X-0.287500X0.237500X-0.287500X-0.237500X0.287500X-0.237500X0*%
%ADD25RoundRect,0.155000X0.212500X0.155000X-0.212500X0.155000X-0.212500X-0.155000X0.212500X-0.155000X0*%
%ADD26RoundRect,0.135000X0.185000X-0.135000X0.185000X0.135000X-0.185000X0.135000X-0.185000X-0.135000X0*%
%ADD27RoundRect,0.250000X0.370000X-0.370000X0.370000X0.370000X-0.370000X0.370000X-0.370000X-0.370000X0*%
%ADD28RoundRect,0.050000X0.050000X-0.350000X0.050000X0.350000X-0.050000X0.350000X-0.050000X-0.350000X0*%
%ADD29RoundRect,0.050000X0.350000X-0.050000X0.350000X0.050000X-0.350000X0.050000X-0.350000X-0.050000X0*%
%ADD30RoundRect,0.147500X0.172500X-0.147500X0.172500X0.147500X-0.172500X0.147500X-0.172500X-0.147500X0*%
%ADD31RoundRect,0.160000X0.160000X-0.222500X0.160000X0.222500X-0.160000X0.222500X-0.160000X-0.222500X0*%
%ADD32RoundRect,0.375000X-0.625000X-0.375000X0.625000X-0.375000X0.625000X0.375000X-0.625000X0.375000X0*%
%ADD33RoundRect,0.500000X-0.500000X-1.400000X0.500000X-1.400000X0.500000X1.400000X-0.500000X1.400000X0*%
G04 APERTURE END LIST*
D10*
%TO.C,J3*%
X158250000Y-102330000D03*
D11*
X160270000Y-102330000D03*
D12*
X161500000Y-102330000D03*
D13*
X159250000Y-102330000D03*
D14*
X157230000Y-102330000D03*
D15*
X156000000Y-102330000D03*
D16*
X154430000Y-102410000D03*
X154430000Y-106210000D03*
X163070000Y-102410000D03*
X163070000Y-106210000D03*
%TD*%
D17*
%TO.C,D1*%
X163250000Y-88500000D03*
X165000000Y-88500000D03*
%TD*%
D18*
%TO.C,R3*%
X161087500Y-99500000D03*
X162912500Y-99500000D03*
%TD*%
D19*
%TO.C,C7*%
X163280000Y-71470000D03*
X162320000Y-71470000D03*
%TD*%
D20*
%TO.C,Y1*%
X159150000Y-70970000D03*
X159150000Y-69570000D03*
X158050000Y-69570000D03*
X158050000Y-70970000D03*
%TD*%
D21*
%TO.C,C1*%
X158762500Y-80870000D03*
X157037500Y-80870000D03*
%TD*%
%TO.C,C6*%
X158062500Y-77670000D03*
X156337500Y-77670000D03*
%TD*%
D22*
%TO.C,C5*%
X160900000Y-71667500D03*
X160900000Y-70532500D03*
%TD*%
D23*
%TO.C,C4*%
X160200000Y-80632500D03*
X160200000Y-81767500D03*
%TD*%
D24*
%TO.C,L1*%
X158075000Y-79270000D03*
X156325000Y-79270000D03*
%TD*%
D19*
%TO.C,C8*%
X163280000Y-62500000D03*
X162320000Y-62500000D03*
%TD*%
D25*
%TO.C,C2*%
X158567500Y-73470000D03*
X157432500Y-73470000D03*
%TD*%
D26*
%TO.C,R1*%
X163300000Y-64510000D03*
X163300000Y-63490000D03*
%TD*%
D23*
%TO.C,C3*%
X165700000Y-80932500D03*
X165700000Y-82067500D03*
%TD*%
D27*
%TO.C,U1*%
X161190000Y-78000000D03*
X162720000Y-78000000D03*
X164250000Y-78000000D03*
X161190000Y-76470000D03*
X162720000Y-76470000D03*
X164250000Y-76470000D03*
X161190000Y-74940000D03*
X162720000Y-74940000D03*
X164250000Y-74940000D03*
D28*
X160520000Y-79420000D03*
X160920000Y-79420000D03*
X161320000Y-79420000D03*
X161720000Y-79420000D03*
X162120000Y-79420000D03*
X162520000Y-79420000D03*
X162920000Y-79420000D03*
X163320000Y-79420000D03*
X163720000Y-79420000D03*
X164120000Y-79420000D03*
X164520000Y-79420000D03*
X164920000Y-79420000D03*
D29*
X165670000Y-78670000D03*
X165670000Y-78270000D03*
X165670000Y-77870000D03*
X165670000Y-77470000D03*
X165670000Y-77070000D03*
X165670000Y-76670000D03*
X165670000Y-76270000D03*
X165670000Y-75870000D03*
X165670000Y-75470000D03*
X165670000Y-75070000D03*
X165670000Y-74670000D03*
X165670000Y-74270000D03*
D28*
X164920000Y-73520000D03*
X164520000Y-73520000D03*
X164120000Y-73520000D03*
X163720000Y-73520000D03*
X163320000Y-73520000D03*
X162920000Y-73520000D03*
X162520000Y-73520000D03*
X162120000Y-73520000D03*
X161720000Y-73520000D03*
X161320000Y-73520000D03*
X160920000Y-73520000D03*
X160520000Y-73520000D03*
D29*
X159770000Y-74270000D03*
X159770000Y-74670000D03*
X159770000Y-75070000D03*
X159770000Y-75470000D03*
X159770000Y-75870000D03*
X159770000Y-76270000D03*
X159770000Y-76670000D03*
X159770000Y-77070000D03*
X159770000Y-77470000D03*
X159770000Y-77870000D03*
X159770000Y-78270000D03*
X159770000Y-78670000D03*
%TD*%
D21*
%TO.C,C11*%
X155062500Y-96800000D03*
X153337500Y-96800000D03*
%TD*%
D30*
%TO.C,L3*%
X163300000Y-70355000D03*
X163300000Y-69385000D03*
%TD*%
D18*
%TO.C,R2*%
X163162500Y-86700000D03*
X164987500Y-86700000D03*
%TD*%
D31*
%TO.C,L2*%
X155000000Y-79442500D03*
X155000000Y-78297500D03*
%TD*%
D25*
%TO.C,C9*%
X159167500Y-72270000D03*
X158032500Y-72270000D03*
%TD*%
D18*
%TO.C,R4*%
X157087500Y-99500000D03*
X158912500Y-99500000D03*
%TD*%
D32*
%TO.C,U2*%
X157850000Y-92200000D03*
X157850000Y-94500000D03*
D33*
X164150000Y-94500000D03*
D32*
X157850000Y-96800000D03*
%TD*%
D21*
%TO.C,C12*%
X155062500Y-94500000D03*
X153337500Y-94500000D03*
%TD*%
D25*
%TO.C,C10*%
X158067500Y-68270000D03*
X156932500Y-68270000D03*
%TD*%
M02*
