%TF.GenerationSoftware,KiCad,Pcbnew,8.0.3-8.0.3-0~ubuntu22.04.1*%
%TF.CreationDate,2024-10-04T19:55:40+02:00*%
%TF.ProjectId,nrf52832_devboard,6e726635-3238-4333-925f-646576626f61,0.1*%
%TF.SameCoordinates,Original*%
%TF.FileFunction,Copper,L2,Bot*%
%TF.FilePolarity,Positive*%
%FSLAX46Y46*%
G04 Gerber Fmt 4.6, Leading zero omitted, Abs format (unit mm)*
G04 Created by KiCad (PCBNEW 8.0.3-8.0.3-0~ubuntu22.04.1) date 2024-10-04 19:55:40*
%MOMM*%
%LPD*%
G01*
G04 APERTURE LIST*
%TA.AperFunction,ComponentPad*%
%ADD10O,1.100000X1.700000*%
%TD*%
%TA.AperFunction,ComponentPad*%
%ADD11R,0.900000X0.500000*%
%TD*%
%TA.AperFunction,ComponentPad*%
%ADD12R,1.700000X1.700000*%
%TD*%
%TA.AperFunction,ComponentPad*%
%ADD13O,1.700000X1.700000*%
%TD*%
%TA.AperFunction,ViaPad*%
%ADD14C,0.600000*%
%TD*%
%TA.AperFunction,Conductor*%
%ADD15C,1.000000*%
%TD*%
G04 APERTURE END LIST*
D10*
%TO.P,J3,S1,SHIELD*%
%TO.N,GND*%
X154430000Y-102410000D03*
X154430000Y-106210000D03*
X163070000Y-102410000D03*
X163070000Y-106210000D03*
%TD*%
D11*
%TO.P,AE1,2,A*%
%TO.N,GND*%
X165400000Y-61625000D03*
%TD*%
D12*
%TO.P,J2,1,Pin_1*%
%TO.N,/P24*%
X172720000Y-58420000D03*
D13*
%TO.P,J2,2,Pin_2*%
%TO.N,/P23*%
X172720000Y-60960000D03*
%TO.P,J2,3,Pin_3*%
%TO.N,/P22*%
X172720000Y-63500000D03*
%TO.P,J2,4,Pin_4*%
%TO.N,GND*%
X172720000Y-66040000D03*
%TO.P,J2,5,Pin_5*%
%TO.N,/SWDIO*%
X172720000Y-68580000D03*
%TO.P,J2,6,Pin_6*%
%TO.N,/SWCLK*%
X172720000Y-71120000D03*
%TO.P,J2,7,Pin_7*%
%TO.N,/P21*%
X172720000Y-73660000D03*
%TO.P,J2,8,Pin_8*%
%TO.N,/P20*%
X172720000Y-76200000D03*
%TO.P,J2,9,Pin_9*%
%TO.N,/P19*%
X172720000Y-78740000D03*
%TO.P,J2,10,Pin_10*%
%TO.N,/P18*%
X172720000Y-81280000D03*
%TO.P,J2,11,Pin_11*%
%TO.N,/P17*%
X172720000Y-83820000D03*
%TO.P,J2,12,Pin_12*%
%TO.N,/P16*%
X172720000Y-86360000D03*
%TO.P,J2,13,Pin_13*%
%TO.N,/P15*%
X172720000Y-88900000D03*
%TO.P,J2,14,Pin_14*%
%TO.N,/P14*%
X172720000Y-91440000D03*
%TO.P,J2,15,Pin_15*%
%TO.N,/P13*%
X172720000Y-93980000D03*
%TO.P,J2,16,Pin_16*%
%TO.N,/P12*%
X172720000Y-96520000D03*
%TO.P,J2,17,Pin_17*%
%TO.N,/P11*%
X172720000Y-99060000D03*
%TO.P,J2,18,Pin_18*%
%TO.N,GND*%
X172720000Y-101600000D03*
%TO.P,J2,19,Pin_19*%
X172720000Y-104140000D03*
%TO.P,J2,20,Pin_20*%
X172720000Y-106680000D03*
%TD*%
D12*
%TO.P,J1,1,Pin_1*%
%TO.N,/P25*%
X144780000Y-58420000D03*
D13*
%TO.P,J1,2,Pin_2*%
%TO.N,/P26*%
X144780000Y-60960000D03*
%TO.P,J1,3,Pin_3*%
%TO.N,/P27*%
X144780000Y-63500000D03*
%TO.P,J1,4,Pin_4*%
%TO.N,/P28*%
X144780000Y-66040000D03*
%TO.P,J1,5,Pin_5*%
%TO.N,/P29*%
X144780000Y-68580000D03*
%TO.P,J1,6,Pin_6*%
%TO.N,/P30*%
X144780000Y-71120000D03*
%TO.P,J1,7,Pin_7*%
%TO.N,/P31*%
X144780000Y-73660000D03*
%TO.P,J1,8,Pin_8*%
%TO.N,/P00*%
X144780000Y-76200000D03*
%TO.P,J1,9,Pin_9*%
%TO.N,/P01*%
X144780000Y-78740000D03*
%TO.P,J1,10,Pin_10*%
%TO.N,/P02*%
X144780000Y-81280000D03*
%TO.P,J1,11,Pin_11*%
%TO.N,/P03*%
X144780000Y-83820000D03*
%TO.P,J1,12,Pin_12*%
%TO.N,/P04*%
X144780000Y-86360000D03*
%TO.P,J1,13,Pin_13*%
%TO.N,/P05*%
X144780000Y-88900000D03*
%TO.P,J1,14,Pin_14*%
%TO.N,/P06*%
X144780000Y-91440000D03*
%TO.P,J1,15,Pin_15*%
%TO.N,/P07*%
X144780000Y-93980000D03*
%TO.P,J1,16,Pin_16*%
%TO.N,/P08*%
X144780000Y-96520000D03*
%TO.P,J1,17,Pin_17*%
%TO.N,/P09*%
X144780000Y-99060000D03*
%TO.P,J1,18,Pin_18*%
%TO.N,/LED*%
X144780000Y-101600000D03*
%TO.P,J1,19,Pin_19*%
%TO.N,+3V3*%
X144780000Y-104140000D03*
%TO.P,J1,20,Pin_20*%
X144780000Y-106680000D03*
%TD*%
D14*
%TO.N,GND*%
X143615952Y-67066750D03*
X148717000Y-74422000D03*
X174095952Y-100086750D03*
X171555952Y-69606750D03*
X163935952Y-89926750D03*
X164500000Y-62500000D03*
X169015952Y-100086750D03*
X158855952Y-64526750D03*
X143615952Y-69606750D03*
X153775952Y-107706750D03*
X174095952Y-67066750D03*
X161000000Y-76000000D03*
X153775952Y-79766750D03*
X169015952Y-105166750D03*
X163000000Y-76000000D03*
X158855952Y-105166750D03*
X143615952Y-64526750D03*
X162000000Y-64500000D03*
X143615952Y-89926750D03*
X148695952Y-97546750D03*
X174095952Y-84846750D03*
X165700000Y-83100000D03*
X162000000Y-69500000D03*
X146155952Y-107706750D03*
X162000000Y-63500000D03*
X169015952Y-61986750D03*
X161000000Y-77000000D03*
X162000000Y-75000000D03*
X162000000Y-66500000D03*
X151235952Y-61986750D03*
X158855952Y-89926750D03*
X164000000Y-77000000D03*
X159700000Y-81600000D03*
X158855952Y-67066750D03*
X174095952Y-77226750D03*
X166475952Y-102626750D03*
X143615952Y-74686750D03*
X156315952Y-69606750D03*
X174095952Y-72146750D03*
X151235952Y-102626750D03*
X162000000Y-68500000D03*
X151235952Y-100086750D03*
X148717000Y-69469000D03*
X164500000Y-70500000D03*
X166475952Y-105166750D03*
X174095952Y-89926750D03*
X164000000Y-75000000D03*
X164000000Y-76000000D03*
X156315952Y-61986750D03*
X163935952Y-100086750D03*
X153775952Y-64526750D03*
X164490471Y-64434433D03*
X162000000Y-77000000D03*
X170000000Y-76500000D03*
X156315952Y-64526750D03*
X164000000Y-78000000D03*
X161000000Y-78000000D03*
X164500000Y-66500000D03*
X148695952Y-107706750D03*
X143615952Y-100086750D03*
X143615952Y-87386750D03*
X169015952Y-97546750D03*
X174095952Y-82306750D03*
X150000000Y-86500000D03*
X148695952Y-102626750D03*
X174095952Y-87386750D03*
X174095952Y-97546750D03*
X164500000Y-68500000D03*
X151235952Y-107706750D03*
X171555952Y-67066750D03*
X174095952Y-105166750D03*
X163935952Y-97546750D03*
X174095952Y-107706750D03*
X163000000Y-78000000D03*
X162000000Y-78000000D03*
X156315952Y-107706750D03*
X151235952Y-79766750D03*
X161395952Y-92466750D03*
X163000000Y-75000000D03*
X174095952Y-102626750D03*
X161395952Y-61986750D03*
X174095952Y-69606750D03*
X143615952Y-61986750D03*
X171555952Y-105166750D03*
X174095952Y-79766750D03*
X156315952Y-72146750D03*
X143615952Y-95006750D03*
X148717000Y-72136000D03*
X166475952Y-97546750D03*
X143615952Y-72146750D03*
X166475952Y-95006750D03*
X161395952Y-105166750D03*
X166475952Y-64526750D03*
X164500000Y-69500000D03*
X174095952Y-61986750D03*
X151235952Y-64526750D03*
X148695952Y-64526750D03*
X171555952Y-102626750D03*
X159200000Y-68600000D03*
X147500000Y-88500000D03*
X161000000Y-75000000D03*
X143615952Y-97546750D03*
X169015952Y-107706750D03*
X148695952Y-105166750D03*
X174095952Y-64526750D03*
X174095952Y-74686750D03*
X146939000Y-74803000D03*
X162000000Y-67500000D03*
X163000000Y-77000000D03*
X161395952Y-107706750D03*
X156315952Y-67066750D03*
X171555952Y-72146750D03*
X143615952Y-82306750D03*
X143615952Y-92466750D03*
X166475952Y-61986750D03*
X153775952Y-67066750D03*
X148695952Y-95006750D03*
X162000000Y-76000000D03*
X164500000Y-63500000D03*
X171555952Y-100086750D03*
X153775952Y-69606750D03*
X148695952Y-61986750D03*
X158855952Y-107706750D03*
X153775952Y-100086750D03*
X143615952Y-107706750D03*
X162000000Y-70500000D03*
X143615952Y-77226750D03*
X161395952Y-97546750D03*
X156315952Y-92466750D03*
X158855952Y-61986750D03*
X156315952Y-105166750D03*
X162000000Y-65500000D03*
X143615952Y-84846750D03*
X163935952Y-107706750D03*
X174095952Y-95006750D03*
X174095952Y-92466750D03*
X151235952Y-105166750D03*
X164500000Y-65500000D03*
X151235952Y-67066750D03*
X161395952Y-89926750D03*
X143615952Y-79766750D03*
X153775952Y-61986750D03*
X166475952Y-100086750D03*
X143615952Y-102626750D03*
X146155952Y-105166750D03*
X164500000Y-67500000D03*
X171555952Y-107706750D03*
X169015952Y-102626750D03*
X166475952Y-107706750D03*
X143615952Y-105166750D03*
%TO.N,+3V3*%
X159300000Y-73500000D03*
X156000000Y-89000000D03*
X165700000Y-80200000D03*
X158000000Y-81600000D03*
%TD*%
D15*
%TO.N,+3V3*%
X158000000Y-81600000D02*
X158000000Y-82214214D01*
X160835786Y-85050000D02*
X160850000Y-85050000D01*
X158000000Y-81600000D02*
X158000000Y-74800000D01*
X156900000Y-89000000D02*
X160850000Y-85050000D01*
X156000000Y-89000000D02*
X156900000Y-89000000D01*
X158000000Y-82214214D02*
X160835786Y-85050000D01*
X160850000Y-85050000D02*
X165700000Y-80200000D01*
X158000000Y-74800000D02*
X159300000Y-73500000D01*
%TD*%
%TA.AperFunction,Conductor*%
%TO.N,GND*%
G36*
X143763300Y-61319685D02*
G01*
X143805618Y-61365545D01*
X143902315Y-61546450D01*
X143902317Y-61546452D01*
X144033589Y-61706410D01*
X144130209Y-61785702D01*
X144193550Y-61837685D01*
X144376046Y-61935232D01*
X144574066Y-61995300D01*
X144574065Y-61995300D01*
X144592529Y-61997118D01*
X144780000Y-62015583D01*
X144985934Y-61995300D01*
X145183954Y-61935232D01*
X145366450Y-61837685D01*
X145526410Y-61706410D01*
X145657685Y-61546450D01*
X145754381Y-61365545D01*
X145803344Y-61315702D01*
X145863739Y-61300000D01*
X171636261Y-61300000D01*
X171703300Y-61319685D01*
X171745618Y-61365545D01*
X171842315Y-61546450D01*
X171842317Y-61546452D01*
X171973589Y-61706410D01*
X172070209Y-61785702D01*
X172133550Y-61837685D01*
X172316046Y-61935232D01*
X172514066Y-61995300D01*
X172514065Y-61995300D01*
X172532529Y-61997118D01*
X172720000Y-62015583D01*
X172925934Y-61995300D01*
X173123954Y-61935232D01*
X173306450Y-61837685D01*
X173466410Y-61706410D01*
X173597685Y-61546450D01*
X173694381Y-61365545D01*
X173743344Y-61315702D01*
X173803739Y-61300000D01*
X175136000Y-61300000D01*
X175203039Y-61319685D01*
X175248794Y-61372489D01*
X175260000Y-61424000D01*
X175260000Y-109096000D01*
X175240315Y-109163039D01*
X175187511Y-109208794D01*
X175136000Y-109220000D01*
X142364000Y-109220000D01*
X142296961Y-109200315D01*
X142251206Y-109147511D01*
X142240000Y-109096000D01*
X142240000Y-106680000D01*
X143724417Y-106680000D01*
X143744699Y-106885932D01*
X143744700Y-106885934D01*
X143804768Y-107083954D01*
X143902315Y-107266450D01*
X143902317Y-107266452D01*
X144033589Y-107426410D01*
X144130209Y-107505702D01*
X144193550Y-107557685D01*
X144376046Y-107655232D01*
X144574066Y-107715300D01*
X144574065Y-107715300D01*
X144592529Y-107717118D01*
X144780000Y-107735583D01*
X144985934Y-107715300D01*
X145183954Y-107655232D01*
X145366450Y-107557685D01*
X145526410Y-107426410D01*
X145657685Y-107266450D01*
X145755232Y-107083954D01*
X145815300Y-106885934D01*
X145835583Y-106680000D01*
X145815300Y-106474066D01*
X145755232Y-106276046D01*
X145657685Y-106093550D01*
X145605702Y-106030209D01*
X145526410Y-105933589D01*
X145408677Y-105836969D01*
X145407650Y-105836126D01*
X153680000Y-105836126D01*
X153680000Y-105960000D01*
X154130000Y-105960000D01*
X154130000Y-106460000D01*
X153680000Y-106460000D01*
X153680000Y-106583873D01*
X153708820Y-106728759D01*
X153708822Y-106728767D01*
X153765357Y-106865254D01*
X153765362Y-106865264D01*
X153847436Y-106988096D01*
X153847439Y-106988100D01*
X153951899Y-107092560D01*
X153951907Y-107092566D01*
X154074739Y-107174640D01*
X154074743Y-107174642D01*
X154179999Y-107218240D01*
X154180000Y-107218240D01*
X154180000Y-106676988D01*
X154189940Y-106694205D01*
X154245795Y-106750060D01*
X154314204Y-106789556D01*
X154390504Y-106810000D01*
X154469496Y-106810000D01*
X154545796Y-106789556D01*
X154614205Y-106750060D01*
X154670060Y-106694205D01*
X154680000Y-106676988D01*
X154680000Y-107218240D01*
X154785256Y-107174642D01*
X154785260Y-107174640D01*
X154908092Y-107092566D01*
X154908100Y-107092560D01*
X155012560Y-106988100D01*
X155012563Y-106988096D01*
X155094637Y-106865264D01*
X155094642Y-106865254D01*
X155151177Y-106728767D01*
X155151179Y-106728759D01*
X155179999Y-106583873D01*
X155180000Y-106583871D01*
X155180000Y-106460000D01*
X154730000Y-106460000D01*
X154730000Y-105960000D01*
X155180000Y-105960000D01*
X155180000Y-105836128D01*
X155179999Y-105836126D01*
X162320000Y-105836126D01*
X162320000Y-105960000D01*
X162770000Y-105960000D01*
X162770000Y-106460000D01*
X162320000Y-106460000D01*
X162320000Y-106583873D01*
X162348820Y-106728759D01*
X162348822Y-106728767D01*
X162405357Y-106865254D01*
X162405362Y-106865264D01*
X162487436Y-106988096D01*
X162487439Y-106988100D01*
X162591899Y-107092560D01*
X162591907Y-107092566D01*
X162714739Y-107174640D01*
X162714743Y-107174642D01*
X162819999Y-107218240D01*
X162820000Y-107218240D01*
X162820000Y-106676988D01*
X162829940Y-106694205D01*
X162885795Y-106750060D01*
X162954204Y-106789556D01*
X163030504Y-106810000D01*
X163109496Y-106810000D01*
X163185796Y-106789556D01*
X163254205Y-106750060D01*
X163310060Y-106694205D01*
X163320000Y-106676988D01*
X163320000Y-107218240D01*
X163425256Y-107174642D01*
X163425260Y-107174640D01*
X163548092Y-107092566D01*
X163548100Y-107092560D01*
X163652560Y-106988100D01*
X163652563Y-106988096D01*
X163734637Y-106865264D01*
X163734642Y-106865254D01*
X163791177Y-106728767D01*
X163791179Y-106728759D01*
X163819999Y-106583873D01*
X163820000Y-106583871D01*
X163820000Y-106460000D01*
X163370000Y-106460000D01*
X163370000Y-106430000D01*
X171698590Y-106430000D01*
X172286988Y-106430000D01*
X172254075Y-106487007D01*
X172220000Y-106614174D01*
X172220000Y-106745826D01*
X172254075Y-106872993D01*
X172286988Y-106930000D01*
X171698590Y-106930000D01*
X171745233Y-107083766D01*
X171842728Y-107266166D01*
X171842732Y-107266173D01*
X171973944Y-107426055D01*
X172133826Y-107557267D01*
X172133833Y-107557271D01*
X172316233Y-107654766D01*
X172470000Y-107701410D01*
X172470000Y-107113012D01*
X172527007Y-107145925D01*
X172654174Y-107180000D01*
X172785826Y-107180000D01*
X172912993Y-107145925D01*
X172970000Y-107113012D01*
X172970000Y-107701410D01*
X173123766Y-107654766D01*
X173306166Y-107557271D01*
X173306173Y-107557267D01*
X173466055Y-107426055D01*
X173597267Y-107266173D01*
X173597271Y-107266166D01*
X173694766Y-107083766D01*
X173741410Y-106930000D01*
X173153012Y-106930000D01*
X173185925Y-106872993D01*
X173220000Y-106745826D01*
X173220000Y-106614174D01*
X173185925Y-106487007D01*
X173153012Y-106430000D01*
X173741410Y-106430000D01*
X173694766Y-106276233D01*
X173597271Y-106093833D01*
X173597267Y-106093826D01*
X173466055Y-105933944D01*
X173306173Y-105802732D01*
X173306166Y-105802728D01*
X173123763Y-105705232D01*
X172970000Y-105658587D01*
X172970000Y-106246988D01*
X172912993Y-106214075D01*
X172785826Y-106180000D01*
X172654174Y-106180000D01*
X172527007Y-106214075D01*
X172470000Y-106246988D01*
X172470000Y-105658587D01*
X172316236Y-105705232D01*
X172133833Y-105802728D01*
X172133826Y-105802732D01*
X171973944Y-105933944D01*
X171842732Y-106093826D01*
X171842728Y-106093833D01*
X171745233Y-106276233D01*
X171698590Y-106430000D01*
X163370000Y-106430000D01*
X163370000Y-105960000D01*
X163820000Y-105960000D01*
X163820000Y-105836128D01*
X163819999Y-105836126D01*
X163791179Y-105691240D01*
X163791177Y-105691232D01*
X163734642Y-105554745D01*
X163734637Y-105554735D01*
X163652563Y-105431903D01*
X163652560Y-105431899D01*
X163548100Y-105327439D01*
X163548096Y-105327436D01*
X163425264Y-105245362D01*
X163425254Y-105245357D01*
X163320000Y-105201759D01*
X163320000Y-105743011D01*
X163310060Y-105725795D01*
X163254205Y-105669940D01*
X163185796Y-105630444D01*
X163109496Y-105610000D01*
X163030504Y-105610000D01*
X162954204Y-105630444D01*
X162885795Y-105669940D01*
X162829940Y-105725795D01*
X162820000Y-105743011D01*
X162820000Y-105201759D01*
X162819999Y-105201759D01*
X162714745Y-105245357D01*
X162714735Y-105245362D01*
X162591903Y-105327436D01*
X162591899Y-105327439D01*
X162487439Y-105431899D01*
X162487436Y-105431903D01*
X162405362Y-105554735D01*
X162405357Y-105554745D01*
X162348822Y-105691232D01*
X162348820Y-105691240D01*
X162320000Y-105836126D01*
X155179999Y-105836126D01*
X155151179Y-105691240D01*
X155151177Y-105691232D01*
X155094642Y-105554745D01*
X155094637Y-105554735D01*
X155012563Y-105431903D01*
X155012560Y-105431899D01*
X154908100Y-105327439D01*
X154908096Y-105327436D01*
X154785264Y-105245362D01*
X154785254Y-105245357D01*
X154680000Y-105201759D01*
X154680000Y-105743011D01*
X154670060Y-105725795D01*
X154614205Y-105669940D01*
X154545796Y-105630444D01*
X154469496Y-105610000D01*
X154390504Y-105610000D01*
X154314204Y-105630444D01*
X154245795Y-105669940D01*
X154189940Y-105725795D01*
X154180000Y-105743011D01*
X154180000Y-105201759D01*
X154179999Y-105201759D01*
X154074745Y-105245357D01*
X154074735Y-105245362D01*
X153951903Y-105327436D01*
X153951899Y-105327439D01*
X153847439Y-105431899D01*
X153847436Y-105431903D01*
X153765362Y-105554735D01*
X153765357Y-105554745D01*
X153708822Y-105691232D01*
X153708820Y-105691240D01*
X153680000Y-105836126D01*
X145407650Y-105836126D01*
X145366450Y-105802315D01*
X145183954Y-105704768D01*
X144985934Y-105644700D01*
X144985932Y-105644699D01*
X144985934Y-105644699D01*
X144780000Y-105624417D01*
X144574067Y-105644699D01*
X144376043Y-105704769D01*
X144265898Y-105763643D01*
X144193550Y-105802315D01*
X144193548Y-105802316D01*
X144193547Y-105802317D01*
X144033589Y-105933589D01*
X143902317Y-106093547D01*
X143902315Y-106093550D01*
X143902164Y-106093833D01*
X143804769Y-106276043D01*
X143744699Y-106474067D01*
X143724417Y-106680000D01*
X142240000Y-106680000D01*
X142240000Y-104140000D01*
X143724417Y-104140000D01*
X143744699Y-104345932D01*
X143744700Y-104345934D01*
X143804768Y-104543954D01*
X143902315Y-104726450D01*
X143902317Y-104726452D01*
X144033589Y-104886410D01*
X144130209Y-104965702D01*
X144193550Y-105017685D01*
X144376046Y-105115232D01*
X144574066Y-105175300D01*
X144574065Y-105175300D01*
X144592529Y-105177118D01*
X144780000Y-105195583D01*
X144985934Y-105175300D01*
X145183954Y-105115232D01*
X145366450Y-105017685D01*
X145526410Y-104886410D01*
X145657685Y-104726450D01*
X145755232Y-104543954D01*
X145815300Y-104345934D01*
X145835583Y-104140000D01*
X145815300Y-103934066D01*
X145801933Y-103890000D01*
X171698590Y-103890000D01*
X172286988Y-103890000D01*
X172254075Y-103947007D01*
X172220000Y-104074174D01*
X172220000Y-104205826D01*
X172254075Y-104332993D01*
X172286988Y-104390000D01*
X171698590Y-104390000D01*
X171745233Y-104543766D01*
X171842728Y-104726166D01*
X171842732Y-104726173D01*
X171973944Y-104886055D01*
X172133826Y-105017267D01*
X172133833Y-105017271D01*
X172316233Y-105114766D01*
X172470000Y-105161410D01*
X172470000Y-104573012D01*
X172527007Y-104605925D01*
X172654174Y-104640000D01*
X172785826Y-104640000D01*
X172912993Y-104605925D01*
X172970000Y-104573012D01*
X172970000Y-105161410D01*
X173123766Y-105114766D01*
X173306166Y-105017271D01*
X173306173Y-105017267D01*
X173466055Y-104886055D01*
X173597267Y-104726173D01*
X173597271Y-104726166D01*
X173694766Y-104543766D01*
X173741410Y-104390000D01*
X173153012Y-104390000D01*
X173185925Y-104332993D01*
X173220000Y-104205826D01*
X173220000Y-104074174D01*
X173185925Y-103947007D01*
X173153012Y-103890000D01*
X173741410Y-103890000D01*
X173694766Y-103736233D01*
X173597271Y-103553833D01*
X173597267Y-103553826D01*
X173466055Y-103393944D01*
X173306173Y-103262732D01*
X173306166Y-103262728D01*
X173123763Y-103165232D01*
X172970000Y-103118587D01*
X172970000Y-103706988D01*
X172912993Y-103674075D01*
X172785826Y-103640000D01*
X172654174Y-103640000D01*
X172527007Y-103674075D01*
X172470000Y-103706988D01*
X172470000Y-103118587D01*
X172316236Y-103165232D01*
X172133833Y-103262728D01*
X172133826Y-103262732D01*
X171973944Y-103393944D01*
X171842732Y-103553826D01*
X171842728Y-103553833D01*
X171745233Y-103736233D01*
X171698590Y-103890000D01*
X145801933Y-103890000D01*
X145755232Y-103736046D01*
X145657685Y-103553550D01*
X145526701Y-103393944D01*
X145526410Y-103393589D01*
X145366452Y-103262317D01*
X145366453Y-103262317D01*
X145366450Y-103262315D01*
X145183954Y-103164768D01*
X144985934Y-103104700D01*
X144985932Y-103104699D01*
X144985934Y-103104699D01*
X144780000Y-103084417D01*
X144574067Y-103104699D01*
X144376043Y-103164769D01*
X144332395Y-103188100D01*
X144193550Y-103262315D01*
X144193548Y-103262316D01*
X144193547Y-103262317D01*
X144033589Y-103393589D01*
X143902317Y-103553547D01*
X143902315Y-103553550D01*
X143902164Y-103553833D01*
X143804769Y-103736043D01*
X143744699Y-103934067D01*
X143724417Y-104140000D01*
X142240000Y-104140000D01*
X142240000Y-101600000D01*
X143724417Y-101600000D01*
X143744699Y-101805932D01*
X143744700Y-101805934D01*
X143804768Y-102003954D01*
X143902315Y-102186450D01*
X143902317Y-102186452D01*
X144033589Y-102346410D01*
X144130209Y-102425702D01*
X144193550Y-102477685D01*
X144376046Y-102575232D01*
X144574066Y-102635300D01*
X144574065Y-102635300D01*
X144592529Y-102637118D01*
X144780000Y-102655583D01*
X144985934Y-102635300D01*
X145183954Y-102575232D01*
X145366450Y-102477685D01*
X145526410Y-102346410D01*
X145657685Y-102186450D01*
X145738036Y-102036126D01*
X153680000Y-102036126D01*
X153680000Y-102160000D01*
X154130000Y-102160000D01*
X154130000Y-102660000D01*
X153680000Y-102660000D01*
X153680000Y-102783873D01*
X153708820Y-102928759D01*
X153708822Y-102928767D01*
X153765357Y-103065254D01*
X153765362Y-103065264D01*
X153847436Y-103188096D01*
X153847439Y-103188100D01*
X153951899Y-103292560D01*
X153951907Y-103292566D01*
X154074739Y-103374640D01*
X154074743Y-103374642D01*
X154179999Y-103418240D01*
X154180000Y-103418240D01*
X154180000Y-102876988D01*
X154189940Y-102894205D01*
X154245795Y-102950060D01*
X154314204Y-102989556D01*
X154390504Y-103010000D01*
X154469496Y-103010000D01*
X154545796Y-102989556D01*
X154614205Y-102950060D01*
X154670060Y-102894205D01*
X154680000Y-102876988D01*
X154680000Y-103418240D01*
X154785256Y-103374642D01*
X154785260Y-103374640D01*
X154908092Y-103292566D01*
X154908100Y-103292560D01*
X155012560Y-103188100D01*
X155012563Y-103188096D01*
X155094637Y-103065264D01*
X155094642Y-103065254D01*
X155151177Y-102928767D01*
X155151179Y-102928759D01*
X155179999Y-102783873D01*
X155180000Y-102783871D01*
X155180000Y-102660000D01*
X154730000Y-102660000D01*
X154730000Y-102160000D01*
X155180000Y-102160000D01*
X155180000Y-102036128D01*
X155179999Y-102036126D01*
X162320000Y-102036126D01*
X162320000Y-102160000D01*
X162770000Y-102160000D01*
X162770000Y-102660000D01*
X162320000Y-102660000D01*
X162320000Y-102783873D01*
X162348820Y-102928759D01*
X162348822Y-102928767D01*
X162405357Y-103065254D01*
X162405362Y-103065264D01*
X162487436Y-103188096D01*
X162487439Y-103188100D01*
X162591899Y-103292560D01*
X162591907Y-103292566D01*
X162714739Y-103374640D01*
X162714743Y-103374642D01*
X162819999Y-103418240D01*
X162820000Y-103418240D01*
X162820000Y-102876988D01*
X162829940Y-102894205D01*
X162885795Y-102950060D01*
X162954204Y-102989556D01*
X163030504Y-103010000D01*
X163109496Y-103010000D01*
X163185796Y-102989556D01*
X163254205Y-102950060D01*
X163310060Y-102894205D01*
X163320000Y-102876988D01*
X163320000Y-103418240D01*
X163425256Y-103374642D01*
X163425260Y-103374640D01*
X163548092Y-103292566D01*
X163548100Y-103292560D01*
X163652560Y-103188100D01*
X163652563Y-103188096D01*
X163734637Y-103065264D01*
X163734642Y-103065254D01*
X163791177Y-102928767D01*
X163791179Y-102928759D01*
X163819999Y-102783873D01*
X163820000Y-102783871D01*
X163820000Y-102660000D01*
X163370000Y-102660000D01*
X163370000Y-102160000D01*
X163820000Y-102160000D01*
X163820000Y-102036128D01*
X163819999Y-102036126D01*
X163791179Y-101891240D01*
X163791177Y-101891232D01*
X163734642Y-101754745D01*
X163734637Y-101754735D01*
X163652563Y-101631903D01*
X163652560Y-101631899D01*
X163548100Y-101527439D01*
X163548096Y-101527436D01*
X163425264Y-101445362D01*
X163425254Y-101445357D01*
X163320000Y-101401759D01*
X163320000Y-101943011D01*
X163310060Y-101925795D01*
X163254205Y-101869940D01*
X163185796Y-101830444D01*
X163109496Y-101810000D01*
X163030504Y-101810000D01*
X162954204Y-101830444D01*
X162885795Y-101869940D01*
X162829940Y-101925795D01*
X162820000Y-101943011D01*
X162820000Y-101401759D01*
X162819999Y-101401759D01*
X162714745Y-101445357D01*
X162714735Y-101445362D01*
X162591903Y-101527436D01*
X162591899Y-101527439D01*
X162487439Y-101631899D01*
X162487436Y-101631903D01*
X162405362Y-101754735D01*
X162405357Y-101754745D01*
X162348822Y-101891232D01*
X162348820Y-101891240D01*
X162320000Y-102036126D01*
X155179999Y-102036126D01*
X155151179Y-101891240D01*
X155151177Y-101891232D01*
X155094642Y-101754745D01*
X155094637Y-101754735D01*
X155012563Y-101631903D01*
X155012560Y-101631899D01*
X154908100Y-101527439D01*
X154908096Y-101527436D01*
X154785264Y-101445362D01*
X154785254Y-101445357D01*
X154680000Y-101401759D01*
X154680000Y-101943011D01*
X154670060Y-101925795D01*
X154614205Y-101869940D01*
X154545796Y-101830444D01*
X154469496Y-101810000D01*
X154390504Y-101810000D01*
X154314204Y-101830444D01*
X154245795Y-101869940D01*
X154189940Y-101925795D01*
X154180000Y-101943011D01*
X154180000Y-101401759D01*
X154179999Y-101401759D01*
X154074745Y-101445357D01*
X154074735Y-101445362D01*
X153951903Y-101527436D01*
X153951899Y-101527439D01*
X153847439Y-101631899D01*
X153847436Y-101631903D01*
X153765362Y-101754735D01*
X153765357Y-101754745D01*
X153708822Y-101891232D01*
X153708820Y-101891240D01*
X153680000Y-102036126D01*
X145738036Y-102036126D01*
X145755232Y-102003954D01*
X145815300Y-101805934D01*
X145835583Y-101600000D01*
X145815300Y-101394066D01*
X145801933Y-101350000D01*
X171698590Y-101350000D01*
X172286988Y-101350000D01*
X172254075Y-101407007D01*
X172220000Y-101534174D01*
X172220000Y-101665826D01*
X172254075Y-101792993D01*
X172286988Y-101850000D01*
X171698590Y-101850000D01*
X171745233Y-102003766D01*
X171842728Y-102186166D01*
X171842732Y-102186173D01*
X171973944Y-102346055D01*
X172133826Y-102477267D01*
X172133833Y-102477271D01*
X172316233Y-102574766D01*
X172470000Y-102621410D01*
X172470000Y-102033012D01*
X172527007Y-102065925D01*
X172654174Y-102100000D01*
X172785826Y-102100000D01*
X172912993Y-102065925D01*
X172970000Y-102033012D01*
X172970000Y-102621410D01*
X173123766Y-102574766D01*
X173306166Y-102477271D01*
X173306173Y-102477267D01*
X173466055Y-102346055D01*
X173597267Y-102186173D01*
X173597271Y-102186166D01*
X173694766Y-102003766D01*
X173741410Y-101850000D01*
X173153012Y-101850000D01*
X173185925Y-101792993D01*
X173220000Y-101665826D01*
X173220000Y-101534174D01*
X173185925Y-101407007D01*
X173153012Y-101350000D01*
X173741410Y-101350000D01*
X173694766Y-101196233D01*
X173597271Y-101013833D01*
X173597267Y-101013826D01*
X173466055Y-100853944D01*
X173306173Y-100722732D01*
X173306166Y-100722728D01*
X173123763Y-100625232D01*
X172970000Y-100578587D01*
X172970000Y-101166988D01*
X172912993Y-101134075D01*
X172785826Y-101100000D01*
X172654174Y-101100000D01*
X172527007Y-101134075D01*
X172470000Y-101166988D01*
X172470000Y-100578587D01*
X172316236Y-100625232D01*
X172133833Y-100722728D01*
X172133826Y-100722732D01*
X171973944Y-100853944D01*
X171842732Y-101013826D01*
X171842728Y-101013833D01*
X171745233Y-101196233D01*
X171698590Y-101350000D01*
X145801933Y-101350000D01*
X145755232Y-101196046D01*
X145657685Y-101013550D01*
X145526701Y-100853944D01*
X145526410Y-100853589D01*
X145366452Y-100722317D01*
X145366453Y-100722317D01*
X145366450Y-100722315D01*
X145183954Y-100624768D01*
X144985934Y-100564700D01*
X144985932Y-100564699D01*
X144985934Y-100564699D01*
X144780000Y-100544417D01*
X144574067Y-100564699D01*
X144376043Y-100624769D01*
X144265898Y-100683643D01*
X144193550Y-100722315D01*
X144193548Y-100722316D01*
X144193547Y-100722317D01*
X144033589Y-100853589D01*
X143902317Y-101013547D01*
X143902315Y-101013550D01*
X143902164Y-101013833D01*
X143804769Y-101196043D01*
X143744699Y-101394067D01*
X143724417Y-101600000D01*
X142240000Y-101600000D01*
X142240000Y-99060000D01*
X143724417Y-99060000D01*
X143744699Y-99265932D01*
X143744700Y-99265934D01*
X143804768Y-99463954D01*
X143902315Y-99646450D01*
X143902317Y-99646452D01*
X144033589Y-99806410D01*
X144130209Y-99885702D01*
X144193550Y-99937685D01*
X144376046Y-100035232D01*
X144574066Y-100095300D01*
X144574065Y-100095300D01*
X144592529Y-100097118D01*
X144780000Y-100115583D01*
X144985934Y-100095300D01*
X145183954Y-100035232D01*
X145366450Y-99937685D01*
X145526410Y-99806410D01*
X145657685Y-99646450D01*
X145755232Y-99463954D01*
X145815300Y-99265934D01*
X145835583Y-99060000D01*
X171664417Y-99060000D01*
X171684699Y-99265932D01*
X171684700Y-99265934D01*
X171744768Y-99463954D01*
X171842315Y-99646450D01*
X171842317Y-99646452D01*
X171973589Y-99806410D01*
X172070209Y-99885702D01*
X172133550Y-99937685D01*
X172316046Y-100035232D01*
X172514066Y-100095300D01*
X172514065Y-100095300D01*
X172532529Y-100097118D01*
X172720000Y-100115583D01*
X172925934Y-100095300D01*
X173123954Y-100035232D01*
X173306450Y-99937685D01*
X173466410Y-99806410D01*
X173597685Y-99646450D01*
X173695232Y-99463954D01*
X173755300Y-99265934D01*
X173775583Y-99060000D01*
X173755300Y-98854066D01*
X173695232Y-98656046D01*
X173597685Y-98473550D01*
X173545702Y-98410209D01*
X173466410Y-98313589D01*
X173306452Y-98182317D01*
X173306453Y-98182317D01*
X173306450Y-98182315D01*
X173123954Y-98084768D01*
X172925934Y-98024700D01*
X172925932Y-98024699D01*
X172925934Y-98024699D01*
X172720000Y-98004417D01*
X172514067Y-98024699D01*
X172316043Y-98084769D01*
X172205898Y-98143643D01*
X172133550Y-98182315D01*
X172133548Y-98182316D01*
X172133547Y-98182317D01*
X171973589Y-98313589D01*
X171842317Y-98473547D01*
X171744769Y-98656043D01*
X171684699Y-98854067D01*
X171664417Y-99060000D01*
X145835583Y-99060000D01*
X145815300Y-98854066D01*
X145755232Y-98656046D01*
X145657685Y-98473550D01*
X145605702Y-98410209D01*
X145526410Y-98313589D01*
X145366452Y-98182317D01*
X145366453Y-98182317D01*
X145366450Y-98182315D01*
X145183954Y-98084768D01*
X144985934Y-98024700D01*
X144985932Y-98024699D01*
X144985934Y-98024699D01*
X144780000Y-98004417D01*
X144574067Y-98024699D01*
X144376043Y-98084769D01*
X144265898Y-98143643D01*
X144193550Y-98182315D01*
X144193548Y-98182316D01*
X144193547Y-98182317D01*
X144033589Y-98313589D01*
X143902317Y-98473547D01*
X143804769Y-98656043D01*
X143744699Y-98854067D01*
X143724417Y-99060000D01*
X142240000Y-99060000D01*
X142240000Y-96520000D01*
X143724417Y-96520000D01*
X143744699Y-96725932D01*
X143744700Y-96725934D01*
X143804768Y-96923954D01*
X143902315Y-97106450D01*
X143902317Y-97106452D01*
X144033589Y-97266410D01*
X144130209Y-97345702D01*
X144193550Y-97397685D01*
X144376046Y-97495232D01*
X144574066Y-97555300D01*
X144574065Y-97555300D01*
X144592529Y-97557118D01*
X144780000Y-97575583D01*
X144985934Y-97555300D01*
X145183954Y-97495232D01*
X145366450Y-97397685D01*
X145526410Y-97266410D01*
X145657685Y-97106450D01*
X145755232Y-96923954D01*
X145815300Y-96725934D01*
X145835583Y-96520000D01*
X171664417Y-96520000D01*
X171684699Y-96725932D01*
X171684700Y-96725934D01*
X171744768Y-96923954D01*
X171842315Y-97106450D01*
X171842317Y-97106452D01*
X171973589Y-97266410D01*
X172070209Y-97345702D01*
X172133550Y-97397685D01*
X172316046Y-97495232D01*
X172514066Y-97555300D01*
X172514065Y-97555300D01*
X172532529Y-97557118D01*
X172720000Y-97575583D01*
X172925934Y-97555300D01*
X173123954Y-97495232D01*
X173306450Y-97397685D01*
X173466410Y-97266410D01*
X173597685Y-97106450D01*
X173695232Y-96923954D01*
X173755300Y-96725934D01*
X173775583Y-96520000D01*
X173755300Y-96314066D01*
X173695232Y-96116046D01*
X173597685Y-95933550D01*
X173545702Y-95870209D01*
X173466410Y-95773589D01*
X173306452Y-95642317D01*
X173306453Y-95642317D01*
X173306450Y-95642315D01*
X173123954Y-95544768D01*
X172925934Y-95484700D01*
X172925932Y-95484699D01*
X172925934Y-95484699D01*
X172720000Y-95464417D01*
X172514067Y-95484699D01*
X172316043Y-95544769D01*
X172205898Y-95603643D01*
X172133550Y-95642315D01*
X172133548Y-95642316D01*
X172133547Y-95642317D01*
X171973589Y-95773589D01*
X171842317Y-95933547D01*
X171744769Y-96116043D01*
X171684699Y-96314067D01*
X171664417Y-96520000D01*
X145835583Y-96520000D01*
X145815300Y-96314066D01*
X145755232Y-96116046D01*
X145657685Y-95933550D01*
X145605702Y-95870209D01*
X145526410Y-95773589D01*
X145366452Y-95642317D01*
X145366453Y-95642317D01*
X145366450Y-95642315D01*
X145183954Y-95544768D01*
X144985934Y-95484700D01*
X144985932Y-95484699D01*
X144985934Y-95484699D01*
X144780000Y-95464417D01*
X144574067Y-95484699D01*
X144376043Y-95544769D01*
X144265898Y-95603643D01*
X144193550Y-95642315D01*
X144193548Y-95642316D01*
X144193547Y-95642317D01*
X144033589Y-95773589D01*
X143902317Y-95933547D01*
X143804769Y-96116043D01*
X143744699Y-96314067D01*
X143724417Y-96520000D01*
X142240000Y-96520000D01*
X142240000Y-93980000D01*
X143724417Y-93980000D01*
X143744699Y-94185932D01*
X143744700Y-94185934D01*
X143804768Y-94383954D01*
X143902315Y-94566450D01*
X143902317Y-94566452D01*
X144033589Y-94726410D01*
X144130209Y-94805702D01*
X144193550Y-94857685D01*
X144376046Y-94955232D01*
X144574066Y-95015300D01*
X144574065Y-95015300D01*
X144592529Y-95017118D01*
X144780000Y-95035583D01*
X144985934Y-95015300D01*
X145183954Y-94955232D01*
X145366450Y-94857685D01*
X145526410Y-94726410D01*
X145657685Y-94566450D01*
X145755232Y-94383954D01*
X145815300Y-94185934D01*
X145835583Y-93980000D01*
X171664417Y-93980000D01*
X171684699Y-94185932D01*
X171684700Y-94185934D01*
X171744768Y-94383954D01*
X171842315Y-94566450D01*
X171842317Y-94566452D01*
X171973589Y-94726410D01*
X172070209Y-94805702D01*
X172133550Y-94857685D01*
X172316046Y-94955232D01*
X172514066Y-95015300D01*
X172514065Y-95015300D01*
X172532529Y-95017118D01*
X172720000Y-95035583D01*
X172925934Y-95015300D01*
X173123954Y-94955232D01*
X173306450Y-94857685D01*
X173466410Y-94726410D01*
X173597685Y-94566450D01*
X173695232Y-94383954D01*
X173755300Y-94185934D01*
X173775583Y-93980000D01*
X173755300Y-93774066D01*
X173695232Y-93576046D01*
X173597685Y-93393550D01*
X173545702Y-93330209D01*
X173466410Y-93233589D01*
X173306452Y-93102317D01*
X173306453Y-93102317D01*
X173306450Y-93102315D01*
X173123954Y-93004768D01*
X172925934Y-92944700D01*
X172925932Y-92944699D01*
X172925934Y-92944699D01*
X172720000Y-92924417D01*
X172514067Y-92944699D01*
X172316043Y-93004769D01*
X172205898Y-93063643D01*
X172133550Y-93102315D01*
X172133548Y-93102316D01*
X172133547Y-93102317D01*
X171973589Y-93233589D01*
X171842317Y-93393547D01*
X171744769Y-93576043D01*
X171684699Y-93774067D01*
X171664417Y-93980000D01*
X145835583Y-93980000D01*
X145815300Y-93774066D01*
X145755232Y-93576046D01*
X145657685Y-93393550D01*
X145605702Y-93330209D01*
X145526410Y-93233589D01*
X145366452Y-93102317D01*
X145366453Y-93102317D01*
X145366450Y-93102315D01*
X145183954Y-93004768D01*
X144985934Y-92944700D01*
X144985932Y-92944699D01*
X144985934Y-92944699D01*
X144780000Y-92924417D01*
X144574067Y-92944699D01*
X144376043Y-93004769D01*
X144265898Y-93063643D01*
X144193550Y-93102315D01*
X144193548Y-93102316D01*
X144193547Y-93102317D01*
X144033589Y-93233589D01*
X143902317Y-93393547D01*
X143804769Y-93576043D01*
X143744699Y-93774067D01*
X143724417Y-93980000D01*
X142240000Y-93980000D01*
X142240000Y-91440000D01*
X143724417Y-91440000D01*
X143744699Y-91645932D01*
X143744700Y-91645934D01*
X143804768Y-91843954D01*
X143902315Y-92026450D01*
X143902317Y-92026452D01*
X144033589Y-92186410D01*
X144130209Y-92265702D01*
X144193550Y-92317685D01*
X144376046Y-92415232D01*
X144574066Y-92475300D01*
X144574065Y-92475300D01*
X144592529Y-92477118D01*
X144780000Y-92495583D01*
X144985934Y-92475300D01*
X145183954Y-92415232D01*
X145366450Y-92317685D01*
X145526410Y-92186410D01*
X145657685Y-92026450D01*
X145755232Y-91843954D01*
X145815300Y-91645934D01*
X145835583Y-91440000D01*
X171664417Y-91440000D01*
X171684699Y-91645932D01*
X171684700Y-91645934D01*
X171744768Y-91843954D01*
X171842315Y-92026450D01*
X171842317Y-92026452D01*
X171973589Y-92186410D01*
X172070209Y-92265702D01*
X172133550Y-92317685D01*
X172316046Y-92415232D01*
X172514066Y-92475300D01*
X172514065Y-92475300D01*
X172532529Y-92477118D01*
X172720000Y-92495583D01*
X172925934Y-92475300D01*
X173123954Y-92415232D01*
X173306450Y-92317685D01*
X173466410Y-92186410D01*
X173597685Y-92026450D01*
X173695232Y-91843954D01*
X173755300Y-91645934D01*
X173775583Y-91440000D01*
X173755300Y-91234066D01*
X173695232Y-91036046D01*
X173597685Y-90853550D01*
X173545702Y-90790209D01*
X173466410Y-90693589D01*
X173306452Y-90562317D01*
X173306453Y-90562317D01*
X173306450Y-90562315D01*
X173123954Y-90464768D01*
X172925934Y-90404700D01*
X172925932Y-90404699D01*
X172925934Y-90404699D01*
X172720000Y-90384417D01*
X172514067Y-90404699D01*
X172316043Y-90464769D01*
X172205898Y-90523643D01*
X172133550Y-90562315D01*
X172133548Y-90562316D01*
X172133547Y-90562317D01*
X171973589Y-90693589D01*
X171842317Y-90853547D01*
X171744769Y-91036043D01*
X171684699Y-91234067D01*
X171664417Y-91440000D01*
X145835583Y-91440000D01*
X145815300Y-91234066D01*
X145755232Y-91036046D01*
X145657685Y-90853550D01*
X145605702Y-90790209D01*
X145526410Y-90693589D01*
X145366452Y-90562317D01*
X145366453Y-90562317D01*
X145366450Y-90562315D01*
X145183954Y-90464768D01*
X144985934Y-90404700D01*
X144985932Y-90404699D01*
X144985934Y-90404699D01*
X144780000Y-90384417D01*
X144574067Y-90404699D01*
X144376043Y-90464769D01*
X144265898Y-90523643D01*
X144193550Y-90562315D01*
X144193548Y-90562316D01*
X144193547Y-90562317D01*
X144033589Y-90693589D01*
X143902317Y-90853547D01*
X143804769Y-91036043D01*
X143744699Y-91234067D01*
X143724417Y-91440000D01*
X142240000Y-91440000D01*
X142240000Y-88900000D01*
X143724417Y-88900000D01*
X143744699Y-89105932D01*
X143744700Y-89105934D01*
X143804768Y-89303954D01*
X143902315Y-89486450D01*
X143902317Y-89486452D01*
X144033589Y-89646410D01*
X144099499Y-89700500D01*
X144193550Y-89777685D01*
X144376046Y-89875232D01*
X144574066Y-89935300D01*
X144574065Y-89935300D01*
X144592529Y-89937118D01*
X144780000Y-89955583D01*
X144985934Y-89935300D01*
X145183954Y-89875232D01*
X145366450Y-89777685D01*
X145526410Y-89646410D01*
X145657685Y-89486450D01*
X145755232Y-89303954D01*
X145815300Y-89105934D01*
X145818938Y-89068995D01*
X155299499Y-89068995D01*
X155326418Y-89204322D01*
X155326421Y-89204332D01*
X155379221Y-89331804D01*
X155379228Y-89331817D01*
X155455885Y-89446541D01*
X155455888Y-89446545D01*
X155553454Y-89544111D01*
X155553458Y-89544114D01*
X155668182Y-89620771D01*
X155668195Y-89620778D01*
X155795667Y-89673578D01*
X155795672Y-89673580D01*
X155795676Y-89673580D01*
X155795677Y-89673581D01*
X155931004Y-89700500D01*
X155931007Y-89700500D01*
X156968996Y-89700500D01*
X157060040Y-89682389D01*
X157104328Y-89673580D01*
X157169922Y-89646410D01*
X157231807Y-89620777D01*
X157231808Y-89620776D01*
X157231811Y-89620775D01*
X157346543Y-89544114D01*
X157990657Y-88900000D01*
X171664417Y-88900000D01*
X171684699Y-89105932D01*
X171684700Y-89105934D01*
X171744768Y-89303954D01*
X171842315Y-89486450D01*
X171842317Y-89486452D01*
X171973589Y-89646410D01*
X172039499Y-89700500D01*
X172133550Y-89777685D01*
X172316046Y-89875232D01*
X172514066Y-89935300D01*
X172514065Y-89935300D01*
X172532529Y-89937118D01*
X172720000Y-89955583D01*
X172925934Y-89935300D01*
X173123954Y-89875232D01*
X173306450Y-89777685D01*
X173466410Y-89646410D01*
X173597685Y-89486450D01*
X173695232Y-89303954D01*
X173755300Y-89105934D01*
X173775583Y-88900000D01*
X173755300Y-88694066D01*
X173695232Y-88496046D01*
X173597685Y-88313550D01*
X173545702Y-88250209D01*
X173466410Y-88153589D01*
X173306452Y-88022317D01*
X173306453Y-88022317D01*
X173306450Y-88022315D01*
X173123954Y-87924768D01*
X172925934Y-87864700D01*
X172925932Y-87864699D01*
X172925934Y-87864699D01*
X172720000Y-87844417D01*
X172514067Y-87864699D01*
X172316043Y-87924769D01*
X172205898Y-87983643D01*
X172133550Y-88022315D01*
X172133548Y-88022316D01*
X172133547Y-88022317D01*
X171973589Y-88153589D01*
X171856171Y-88296666D01*
X171842315Y-88313550D01*
X171807213Y-88379221D01*
X171744769Y-88496043D01*
X171684699Y-88694067D01*
X171664417Y-88900000D01*
X157990657Y-88900000D01*
X160530657Y-86360000D01*
X171664417Y-86360000D01*
X171684699Y-86565932D01*
X171684700Y-86565934D01*
X171744768Y-86763954D01*
X171842315Y-86946450D01*
X171842317Y-86946452D01*
X171973589Y-87106410D01*
X172070209Y-87185702D01*
X172133550Y-87237685D01*
X172316046Y-87335232D01*
X172514066Y-87395300D01*
X172514065Y-87395300D01*
X172532529Y-87397118D01*
X172720000Y-87415583D01*
X172925934Y-87395300D01*
X173123954Y-87335232D01*
X173306450Y-87237685D01*
X173466410Y-87106410D01*
X173597685Y-86946450D01*
X173695232Y-86763954D01*
X173755300Y-86565934D01*
X173775583Y-86360000D01*
X173755300Y-86154066D01*
X173695232Y-85956046D01*
X173597685Y-85773550D01*
X173545702Y-85710209D01*
X173466410Y-85613589D01*
X173323787Y-85496543D01*
X173306450Y-85482315D01*
X173123954Y-85384768D01*
X172925934Y-85324700D01*
X172925932Y-85324699D01*
X172925934Y-85324699D01*
X172720000Y-85304417D01*
X172514067Y-85324699D01*
X172316043Y-85384769D01*
X172205898Y-85443643D01*
X172133550Y-85482315D01*
X172133548Y-85482316D01*
X172133547Y-85482317D01*
X171973589Y-85613589D01*
X171842317Y-85773547D01*
X171744769Y-85956043D01*
X171684699Y-86154067D01*
X171664417Y-86360000D01*
X160530657Y-86360000D01*
X161394114Y-85496543D01*
X161394115Y-85496542D01*
X163070657Y-83820000D01*
X171664417Y-83820000D01*
X171684699Y-84025932D01*
X171684700Y-84025934D01*
X171744768Y-84223954D01*
X171842315Y-84406450D01*
X171842317Y-84406452D01*
X171973589Y-84566410D01*
X172070209Y-84645702D01*
X172133550Y-84697685D01*
X172316046Y-84795232D01*
X172514066Y-84855300D01*
X172514065Y-84855300D01*
X172532529Y-84857118D01*
X172720000Y-84875583D01*
X172925934Y-84855300D01*
X173123954Y-84795232D01*
X173306450Y-84697685D01*
X173466410Y-84566410D01*
X173597685Y-84406450D01*
X173695232Y-84223954D01*
X173755300Y-84025934D01*
X173775583Y-83820000D01*
X173755300Y-83614066D01*
X173695232Y-83416046D01*
X173597685Y-83233550D01*
X173545702Y-83170209D01*
X173466410Y-83073589D01*
X173306452Y-82942317D01*
X173306453Y-82942317D01*
X173306450Y-82942315D01*
X173123954Y-82844768D01*
X172925934Y-82784700D01*
X172925932Y-82784699D01*
X172925934Y-82784699D01*
X172720000Y-82764417D01*
X172514067Y-82784699D01*
X172316043Y-82844769D01*
X172205898Y-82903643D01*
X172133550Y-82942315D01*
X172133548Y-82942316D01*
X172133547Y-82942317D01*
X171973589Y-83073589D01*
X171842317Y-83233547D01*
X171744769Y-83416043D01*
X171684699Y-83614067D01*
X171664417Y-83820000D01*
X163070657Y-83820000D01*
X165610657Y-81280000D01*
X171664417Y-81280000D01*
X171684699Y-81485932D01*
X171714734Y-81584944D01*
X171744768Y-81683954D01*
X171842315Y-81866450D01*
X171876969Y-81908677D01*
X171973589Y-82026410D01*
X172070209Y-82105702D01*
X172133550Y-82157685D01*
X172316046Y-82255232D01*
X172514066Y-82315300D01*
X172514065Y-82315300D01*
X172532529Y-82317118D01*
X172720000Y-82335583D01*
X172925934Y-82315300D01*
X173123954Y-82255232D01*
X173306450Y-82157685D01*
X173466410Y-82026410D01*
X173597685Y-81866450D01*
X173695232Y-81683954D01*
X173755300Y-81485934D01*
X173775583Y-81280000D01*
X173755300Y-81074066D01*
X173695232Y-80876046D01*
X173597685Y-80693550D01*
X173545702Y-80630209D01*
X173466410Y-80533589D01*
X173348677Y-80436969D01*
X173306450Y-80402315D01*
X173123954Y-80304768D01*
X172925934Y-80244700D01*
X172925932Y-80244699D01*
X172925934Y-80244699D01*
X172720000Y-80224417D01*
X172514067Y-80244699D01*
X172316043Y-80304769D01*
X172205898Y-80363643D01*
X172133550Y-80402315D01*
X172133548Y-80402316D01*
X172133547Y-80402317D01*
X171973589Y-80533589D01*
X171842317Y-80693547D01*
X171744769Y-80876043D01*
X171684699Y-81074067D01*
X171664417Y-81280000D01*
X165610657Y-81280000D01*
X166244114Y-80646543D01*
X166320775Y-80531811D01*
X166373580Y-80404328D01*
X166400500Y-80268994D01*
X166400500Y-80131006D01*
X166400500Y-80131003D01*
X166373581Y-79995676D01*
X166373580Y-79995675D01*
X166373580Y-79995671D01*
X166320775Y-79868189D01*
X166244114Y-79753457D01*
X166244112Y-79753454D01*
X166146545Y-79655887D01*
X166089177Y-79617555D01*
X166031811Y-79579225D01*
X165904329Y-79526420D01*
X165904323Y-79526418D01*
X165768996Y-79499500D01*
X165768994Y-79499500D01*
X165631006Y-79499500D01*
X165631004Y-79499500D01*
X165495677Y-79526418D01*
X165495667Y-79526421D01*
X165368192Y-79579222D01*
X165253454Y-79655887D01*
X160930573Y-83978768D01*
X160869250Y-84012253D01*
X160799558Y-84007269D01*
X160755211Y-83978768D01*
X158736819Y-81960376D01*
X158703334Y-81899053D01*
X158700500Y-81872695D01*
X158700500Y-78740000D01*
X171664417Y-78740000D01*
X171684699Y-78945932D01*
X171684700Y-78945934D01*
X171744768Y-79143954D01*
X171842315Y-79326450D01*
X171842317Y-79326452D01*
X171973589Y-79486410D01*
X172070209Y-79565702D01*
X172133550Y-79617685D01*
X172316046Y-79715232D01*
X172514066Y-79775300D01*
X172514065Y-79775300D01*
X172532529Y-79777118D01*
X172720000Y-79795583D01*
X172925934Y-79775300D01*
X173123954Y-79715232D01*
X173306450Y-79617685D01*
X173466410Y-79486410D01*
X173597685Y-79326450D01*
X173695232Y-79143954D01*
X173755300Y-78945934D01*
X173775583Y-78740000D01*
X173755300Y-78534066D01*
X173695232Y-78336046D01*
X173597685Y-78153550D01*
X173545702Y-78090209D01*
X173466410Y-77993589D01*
X173306452Y-77862317D01*
X173306453Y-77862317D01*
X173306450Y-77862315D01*
X173123954Y-77764768D01*
X172925934Y-77704700D01*
X172925932Y-77704699D01*
X172925934Y-77704699D01*
X172720000Y-77684417D01*
X172514067Y-77704699D01*
X172316043Y-77764769D01*
X172205898Y-77823643D01*
X172133550Y-77862315D01*
X172133548Y-77862316D01*
X172133547Y-77862317D01*
X171973589Y-77993589D01*
X171842317Y-78153547D01*
X171744769Y-78336043D01*
X171684699Y-78534067D01*
X171664417Y-78740000D01*
X158700500Y-78740000D01*
X158700500Y-76200000D01*
X171664417Y-76200000D01*
X171684699Y-76405932D01*
X171684700Y-76405934D01*
X171744768Y-76603954D01*
X171842315Y-76786450D01*
X171842317Y-76786452D01*
X171973589Y-76946410D01*
X172070209Y-77025702D01*
X172133550Y-77077685D01*
X172316046Y-77175232D01*
X172514066Y-77235300D01*
X172514065Y-77235300D01*
X172532529Y-77237118D01*
X172720000Y-77255583D01*
X172925934Y-77235300D01*
X173123954Y-77175232D01*
X173306450Y-77077685D01*
X173466410Y-76946410D01*
X173597685Y-76786450D01*
X173695232Y-76603954D01*
X173755300Y-76405934D01*
X173775583Y-76200000D01*
X173755300Y-75994066D01*
X173695232Y-75796046D01*
X173597685Y-75613550D01*
X173545702Y-75550209D01*
X173466410Y-75453589D01*
X173306452Y-75322317D01*
X173306453Y-75322317D01*
X173306450Y-75322315D01*
X173123954Y-75224768D01*
X172925934Y-75164700D01*
X172925932Y-75164699D01*
X172925934Y-75164699D01*
X172720000Y-75144417D01*
X172514067Y-75164699D01*
X172316043Y-75224769D01*
X172205898Y-75283643D01*
X172133550Y-75322315D01*
X172133548Y-75322316D01*
X172133547Y-75322317D01*
X171973589Y-75453589D01*
X171842317Y-75613547D01*
X171744769Y-75796043D01*
X171684699Y-75994067D01*
X171664417Y-76200000D01*
X158700500Y-76200000D01*
X158700500Y-75141519D01*
X158720185Y-75074480D01*
X158736819Y-75053838D01*
X159844112Y-73946545D01*
X159844114Y-73946543D01*
X159920775Y-73831811D01*
X159973580Y-73704328D01*
X159982398Y-73660000D01*
X171664417Y-73660000D01*
X171684699Y-73865932D01*
X171684700Y-73865934D01*
X171744768Y-74063954D01*
X171842315Y-74246450D01*
X171842317Y-74246452D01*
X171973589Y-74406410D01*
X172048868Y-74468189D01*
X172133550Y-74537685D01*
X172316046Y-74635232D01*
X172514066Y-74695300D01*
X172514065Y-74695300D01*
X172532529Y-74697118D01*
X172720000Y-74715583D01*
X172925934Y-74695300D01*
X173123954Y-74635232D01*
X173306450Y-74537685D01*
X173466410Y-74406410D01*
X173597685Y-74246450D01*
X173695232Y-74063954D01*
X173755300Y-73865934D01*
X173775583Y-73660000D01*
X173755300Y-73454066D01*
X173695232Y-73256046D01*
X173597685Y-73073550D01*
X173501123Y-72955888D01*
X173466410Y-72913589D01*
X173306452Y-72782317D01*
X173306453Y-72782317D01*
X173306450Y-72782315D01*
X173123954Y-72684768D01*
X172925934Y-72624700D01*
X172925932Y-72624699D01*
X172925934Y-72624699D01*
X172720000Y-72604417D01*
X172514067Y-72624699D01*
X172316043Y-72684769D01*
X172205898Y-72743643D01*
X172133550Y-72782315D01*
X172133548Y-72782316D01*
X172133547Y-72782317D01*
X171973589Y-72913589D01*
X171842317Y-73073547D01*
X171744769Y-73256043D01*
X171684699Y-73454067D01*
X171664417Y-73660000D01*
X159982398Y-73660000D01*
X160000500Y-73568994D01*
X160000500Y-73431006D01*
X160000500Y-73431003D01*
X159973581Y-73295676D01*
X159973580Y-73295675D01*
X159973580Y-73295671D01*
X159957166Y-73256043D01*
X159920778Y-73168194D01*
X159920771Y-73168181D01*
X159844114Y-73053457D01*
X159844111Y-73053453D01*
X159746546Y-72955888D01*
X159746542Y-72955885D01*
X159631818Y-72879228D01*
X159631805Y-72879221D01*
X159504333Y-72826421D01*
X159504323Y-72826418D01*
X159368996Y-72799500D01*
X159368994Y-72799500D01*
X159231006Y-72799500D01*
X159231004Y-72799500D01*
X159095677Y-72826418D01*
X159095667Y-72826421D01*
X158968192Y-72879222D01*
X158853454Y-72955887D01*
X157455887Y-74353454D01*
X157379222Y-74468192D01*
X157326421Y-74595667D01*
X157326418Y-74595679D01*
X157318551Y-74635232D01*
X157306603Y-74695300D01*
X157299500Y-74731007D01*
X157299500Y-81531007D01*
X157299500Y-82145220D01*
X157299500Y-82283208D01*
X157299500Y-82283210D01*
X157299499Y-82283210D01*
X157326418Y-82418536D01*
X157326421Y-82418546D01*
X157379222Y-82546021D01*
X157455887Y-82660759D01*
X159764554Y-84969426D01*
X159798039Y-85030749D01*
X159793055Y-85100441D01*
X159764554Y-85144788D01*
X156646162Y-88263181D01*
X156584839Y-88296666D01*
X156558481Y-88299500D01*
X155931005Y-88299500D01*
X155795677Y-88326418D01*
X155795667Y-88326421D01*
X155668195Y-88379221D01*
X155668182Y-88379228D01*
X155553458Y-88455885D01*
X155553454Y-88455888D01*
X155455888Y-88553454D01*
X155455885Y-88553458D01*
X155379228Y-88668182D01*
X155379221Y-88668195D01*
X155326421Y-88795667D01*
X155326418Y-88795677D01*
X155299500Y-88931004D01*
X155299500Y-88931007D01*
X155299500Y-89068993D01*
X155299500Y-89068995D01*
X155299499Y-89068995D01*
X145818938Y-89068995D01*
X145835583Y-88900000D01*
X145815300Y-88694066D01*
X145755232Y-88496046D01*
X145657685Y-88313550D01*
X145605702Y-88250209D01*
X145526410Y-88153589D01*
X145366452Y-88022317D01*
X145366453Y-88022317D01*
X145366450Y-88022315D01*
X145183954Y-87924768D01*
X144985934Y-87864700D01*
X144985932Y-87864699D01*
X144985934Y-87864699D01*
X144780000Y-87844417D01*
X144574067Y-87864699D01*
X144376043Y-87924769D01*
X144265898Y-87983643D01*
X144193550Y-88022315D01*
X144193548Y-88022316D01*
X144193547Y-88022317D01*
X144033589Y-88153589D01*
X143916171Y-88296666D01*
X143902315Y-88313550D01*
X143867213Y-88379221D01*
X143804769Y-88496043D01*
X143744699Y-88694067D01*
X143724417Y-88900000D01*
X142240000Y-88900000D01*
X142240000Y-86360000D01*
X143724417Y-86360000D01*
X143744699Y-86565932D01*
X143744700Y-86565934D01*
X143804768Y-86763954D01*
X143902315Y-86946450D01*
X143902317Y-86946452D01*
X144033589Y-87106410D01*
X144130209Y-87185702D01*
X144193550Y-87237685D01*
X144376046Y-87335232D01*
X144574066Y-87395300D01*
X144574065Y-87395300D01*
X144592529Y-87397118D01*
X144780000Y-87415583D01*
X144985934Y-87395300D01*
X145183954Y-87335232D01*
X145366450Y-87237685D01*
X145526410Y-87106410D01*
X145657685Y-86946450D01*
X145755232Y-86763954D01*
X145815300Y-86565934D01*
X145835583Y-86360000D01*
X145815300Y-86154066D01*
X145755232Y-85956046D01*
X145657685Y-85773550D01*
X145605702Y-85710209D01*
X145526410Y-85613589D01*
X145383787Y-85496543D01*
X145366450Y-85482315D01*
X145183954Y-85384768D01*
X144985934Y-85324700D01*
X144985932Y-85324699D01*
X144985934Y-85324699D01*
X144780000Y-85304417D01*
X144574067Y-85324699D01*
X144376043Y-85384769D01*
X144265898Y-85443643D01*
X144193550Y-85482315D01*
X144193548Y-85482316D01*
X144193547Y-85482317D01*
X144033589Y-85613589D01*
X143902317Y-85773547D01*
X143804769Y-85956043D01*
X143744699Y-86154067D01*
X143724417Y-86360000D01*
X142240000Y-86360000D01*
X142240000Y-83820000D01*
X143724417Y-83820000D01*
X143744699Y-84025932D01*
X143744700Y-84025934D01*
X143804768Y-84223954D01*
X143902315Y-84406450D01*
X143902317Y-84406452D01*
X144033589Y-84566410D01*
X144130209Y-84645702D01*
X144193550Y-84697685D01*
X144376046Y-84795232D01*
X144574066Y-84855300D01*
X144574065Y-84855300D01*
X144592529Y-84857118D01*
X144780000Y-84875583D01*
X144985934Y-84855300D01*
X145183954Y-84795232D01*
X145366450Y-84697685D01*
X145526410Y-84566410D01*
X145657685Y-84406450D01*
X145755232Y-84223954D01*
X145815300Y-84025934D01*
X145835583Y-83820000D01*
X145815300Y-83614066D01*
X145755232Y-83416046D01*
X145657685Y-83233550D01*
X145605702Y-83170209D01*
X145526410Y-83073589D01*
X145366452Y-82942317D01*
X145366453Y-82942317D01*
X145366450Y-82942315D01*
X145183954Y-82844768D01*
X144985934Y-82784700D01*
X144985932Y-82784699D01*
X144985934Y-82784699D01*
X144780000Y-82764417D01*
X144574067Y-82784699D01*
X144376043Y-82844769D01*
X144265898Y-82903643D01*
X144193550Y-82942315D01*
X144193548Y-82942316D01*
X144193547Y-82942317D01*
X144033589Y-83073589D01*
X143902317Y-83233547D01*
X143804769Y-83416043D01*
X143744699Y-83614067D01*
X143724417Y-83820000D01*
X142240000Y-83820000D01*
X142240000Y-81280000D01*
X143724417Y-81280000D01*
X143744699Y-81485932D01*
X143774734Y-81584944D01*
X143804768Y-81683954D01*
X143902315Y-81866450D01*
X143936969Y-81908677D01*
X144033589Y-82026410D01*
X144130209Y-82105702D01*
X144193550Y-82157685D01*
X144376046Y-82255232D01*
X144574066Y-82315300D01*
X144574065Y-82315300D01*
X144592529Y-82317118D01*
X144780000Y-82335583D01*
X144985934Y-82315300D01*
X145183954Y-82255232D01*
X145366450Y-82157685D01*
X145526410Y-82026410D01*
X145657685Y-81866450D01*
X145755232Y-81683954D01*
X145815300Y-81485934D01*
X145835583Y-81280000D01*
X145815300Y-81074066D01*
X145755232Y-80876046D01*
X145657685Y-80693550D01*
X145605702Y-80630209D01*
X145526410Y-80533589D01*
X145408677Y-80436969D01*
X145366450Y-80402315D01*
X145183954Y-80304768D01*
X144985934Y-80244700D01*
X144985932Y-80244699D01*
X144985934Y-80244699D01*
X144780000Y-80224417D01*
X144574067Y-80244699D01*
X144376043Y-80304769D01*
X144265898Y-80363643D01*
X144193550Y-80402315D01*
X144193548Y-80402316D01*
X144193547Y-80402317D01*
X144033589Y-80533589D01*
X143902317Y-80693547D01*
X143804769Y-80876043D01*
X143744699Y-81074067D01*
X143724417Y-81280000D01*
X142240000Y-81280000D01*
X142240000Y-78740000D01*
X143724417Y-78740000D01*
X143744699Y-78945932D01*
X143744700Y-78945934D01*
X143804768Y-79143954D01*
X143902315Y-79326450D01*
X143902317Y-79326452D01*
X144033589Y-79486410D01*
X144130209Y-79565702D01*
X144193550Y-79617685D01*
X144376046Y-79715232D01*
X144574066Y-79775300D01*
X144574065Y-79775300D01*
X144592529Y-79777118D01*
X144780000Y-79795583D01*
X144985934Y-79775300D01*
X145183954Y-79715232D01*
X145366450Y-79617685D01*
X145526410Y-79486410D01*
X145657685Y-79326450D01*
X145755232Y-79143954D01*
X145815300Y-78945934D01*
X145835583Y-78740000D01*
X145815300Y-78534066D01*
X145755232Y-78336046D01*
X145657685Y-78153550D01*
X145605702Y-78090209D01*
X145526410Y-77993589D01*
X145366452Y-77862317D01*
X145366453Y-77862317D01*
X145366450Y-77862315D01*
X145183954Y-77764768D01*
X144985934Y-77704700D01*
X144985932Y-77704699D01*
X144985934Y-77704699D01*
X144780000Y-77684417D01*
X144574067Y-77704699D01*
X144376043Y-77764769D01*
X144265898Y-77823643D01*
X144193550Y-77862315D01*
X144193548Y-77862316D01*
X144193547Y-77862317D01*
X144033589Y-77993589D01*
X143902317Y-78153547D01*
X143804769Y-78336043D01*
X143744699Y-78534067D01*
X143724417Y-78740000D01*
X142240000Y-78740000D01*
X142240000Y-76200000D01*
X143724417Y-76200000D01*
X143744699Y-76405932D01*
X143744700Y-76405934D01*
X143804768Y-76603954D01*
X143902315Y-76786450D01*
X143902317Y-76786452D01*
X144033589Y-76946410D01*
X144130209Y-77025702D01*
X144193550Y-77077685D01*
X144376046Y-77175232D01*
X144574066Y-77235300D01*
X144574065Y-77235300D01*
X144592529Y-77237118D01*
X144780000Y-77255583D01*
X144985934Y-77235300D01*
X145183954Y-77175232D01*
X145366450Y-77077685D01*
X145526410Y-76946410D01*
X145657685Y-76786450D01*
X145755232Y-76603954D01*
X145815300Y-76405934D01*
X145835583Y-76200000D01*
X145815300Y-75994066D01*
X145755232Y-75796046D01*
X145657685Y-75613550D01*
X145605702Y-75550209D01*
X145526410Y-75453589D01*
X145366452Y-75322317D01*
X145366453Y-75322317D01*
X145366450Y-75322315D01*
X145183954Y-75224768D01*
X144985934Y-75164700D01*
X144985932Y-75164699D01*
X144985934Y-75164699D01*
X144780000Y-75144417D01*
X144574067Y-75164699D01*
X144376043Y-75224769D01*
X144265898Y-75283643D01*
X144193550Y-75322315D01*
X144193548Y-75322316D01*
X144193547Y-75322317D01*
X144033589Y-75453589D01*
X143902317Y-75613547D01*
X143804769Y-75796043D01*
X143744699Y-75994067D01*
X143724417Y-76200000D01*
X142240000Y-76200000D01*
X142240000Y-73660000D01*
X143724417Y-73660000D01*
X143744699Y-73865932D01*
X143744700Y-73865934D01*
X143804768Y-74063954D01*
X143902315Y-74246450D01*
X143902317Y-74246452D01*
X144033589Y-74406410D01*
X144108868Y-74468189D01*
X144193550Y-74537685D01*
X144376046Y-74635232D01*
X144574066Y-74695300D01*
X144574065Y-74695300D01*
X144592529Y-74697118D01*
X144780000Y-74715583D01*
X144985934Y-74695300D01*
X145183954Y-74635232D01*
X145366450Y-74537685D01*
X145526410Y-74406410D01*
X145657685Y-74246450D01*
X145755232Y-74063954D01*
X145815300Y-73865934D01*
X145835583Y-73660000D01*
X145815300Y-73454066D01*
X145755232Y-73256046D01*
X145657685Y-73073550D01*
X145561123Y-72955888D01*
X145526410Y-72913589D01*
X145366452Y-72782317D01*
X145366453Y-72782317D01*
X145366450Y-72782315D01*
X145183954Y-72684768D01*
X144985934Y-72624700D01*
X144985932Y-72624699D01*
X144985934Y-72624699D01*
X144780000Y-72604417D01*
X144574067Y-72624699D01*
X144376043Y-72684769D01*
X144265898Y-72743643D01*
X144193550Y-72782315D01*
X144193548Y-72782316D01*
X144193547Y-72782317D01*
X144033589Y-72913589D01*
X143902317Y-73073547D01*
X143804769Y-73256043D01*
X143744699Y-73454067D01*
X143724417Y-73660000D01*
X142240000Y-73660000D01*
X142240000Y-71120000D01*
X143724417Y-71120000D01*
X143744699Y-71325932D01*
X143744700Y-71325934D01*
X143804768Y-71523954D01*
X143902315Y-71706450D01*
X143902317Y-71706452D01*
X144033589Y-71866410D01*
X144130209Y-71945702D01*
X144193550Y-71997685D01*
X144376046Y-72095232D01*
X144574066Y-72155300D01*
X144574065Y-72155300D01*
X144592529Y-72157118D01*
X144780000Y-72175583D01*
X144985934Y-72155300D01*
X145183954Y-72095232D01*
X145366450Y-71997685D01*
X145526410Y-71866410D01*
X145657685Y-71706450D01*
X145755232Y-71523954D01*
X145815300Y-71325934D01*
X145835583Y-71120000D01*
X171664417Y-71120000D01*
X171684699Y-71325932D01*
X171684700Y-71325934D01*
X171744768Y-71523954D01*
X171842315Y-71706450D01*
X171842317Y-71706452D01*
X171973589Y-71866410D01*
X172070209Y-71945702D01*
X172133550Y-71997685D01*
X172316046Y-72095232D01*
X172514066Y-72155300D01*
X172514065Y-72155300D01*
X172532529Y-72157118D01*
X172720000Y-72175583D01*
X172925934Y-72155300D01*
X173123954Y-72095232D01*
X173306450Y-71997685D01*
X173466410Y-71866410D01*
X173597685Y-71706450D01*
X173695232Y-71523954D01*
X173755300Y-71325934D01*
X173775583Y-71120000D01*
X173755300Y-70914066D01*
X173695232Y-70716046D01*
X173597685Y-70533550D01*
X173545702Y-70470209D01*
X173466410Y-70373589D01*
X173306452Y-70242317D01*
X173306453Y-70242317D01*
X173306450Y-70242315D01*
X173123954Y-70144768D01*
X172925934Y-70084700D01*
X172925932Y-70084699D01*
X172925934Y-70084699D01*
X172720000Y-70064417D01*
X172514067Y-70084699D01*
X172316043Y-70144769D01*
X172205898Y-70203643D01*
X172133550Y-70242315D01*
X172133548Y-70242316D01*
X172133547Y-70242317D01*
X171973589Y-70373589D01*
X171842317Y-70533547D01*
X171744769Y-70716043D01*
X171684699Y-70914067D01*
X171664417Y-71120000D01*
X145835583Y-71120000D01*
X145815300Y-70914066D01*
X145755232Y-70716046D01*
X145657685Y-70533550D01*
X145605702Y-70470209D01*
X145526410Y-70373589D01*
X145366452Y-70242317D01*
X145366453Y-70242317D01*
X145366450Y-70242315D01*
X145183954Y-70144768D01*
X144985934Y-70084700D01*
X144985932Y-70084699D01*
X144985934Y-70084699D01*
X144780000Y-70064417D01*
X144574067Y-70084699D01*
X144376043Y-70144769D01*
X144265898Y-70203643D01*
X144193550Y-70242315D01*
X144193548Y-70242316D01*
X144193547Y-70242317D01*
X144033589Y-70373589D01*
X143902317Y-70533547D01*
X143804769Y-70716043D01*
X143744699Y-70914067D01*
X143724417Y-71120000D01*
X142240000Y-71120000D01*
X142240000Y-68580000D01*
X143724417Y-68580000D01*
X143744699Y-68785932D01*
X143744700Y-68785934D01*
X143804768Y-68983954D01*
X143902315Y-69166450D01*
X143902317Y-69166452D01*
X144033589Y-69326410D01*
X144130209Y-69405702D01*
X144193550Y-69457685D01*
X144376046Y-69555232D01*
X144574066Y-69615300D01*
X144574065Y-69615300D01*
X144592529Y-69617118D01*
X144780000Y-69635583D01*
X144985934Y-69615300D01*
X145183954Y-69555232D01*
X145366450Y-69457685D01*
X145526410Y-69326410D01*
X145657685Y-69166450D01*
X145755232Y-68983954D01*
X145815300Y-68785934D01*
X145835583Y-68580000D01*
X171664417Y-68580000D01*
X171684699Y-68785932D01*
X171684700Y-68785934D01*
X171744768Y-68983954D01*
X171842315Y-69166450D01*
X171842317Y-69166452D01*
X171973589Y-69326410D01*
X172070209Y-69405702D01*
X172133550Y-69457685D01*
X172316046Y-69555232D01*
X172514066Y-69615300D01*
X172514065Y-69615300D01*
X172532529Y-69617118D01*
X172720000Y-69635583D01*
X172925934Y-69615300D01*
X173123954Y-69555232D01*
X173306450Y-69457685D01*
X173466410Y-69326410D01*
X173597685Y-69166450D01*
X173695232Y-68983954D01*
X173755300Y-68785934D01*
X173775583Y-68580000D01*
X173755300Y-68374066D01*
X173695232Y-68176046D01*
X173597685Y-67993550D01*
X173545702Y-67930209D01*
X173466410Y-67833589D01*
X173306452Y-67702317D01*
X173306453Y-67702317D01*
X173306450Y-67702315D01*
X173123954Y-67604768D01*
X172925934Y-67544700D01*
X172925932Y-67544699D01*
X172925934Y-67544699D01*
X172720000Y-67524417D01*
X172514067Y-67544699D01*
X172316043Y-67604769D01*
X172205898Y-67663643D01*
X172133550Y-67702315D01*
X172133548Y-67702316D01*
X172133547Y-67702317D01*
X171973589Y-67833589D01*
X171842317Y-67993547D01*
X171744769Y-68176043D01*
X171684699Y-68374067D01*
X171664417Y-68580000D01*
X145835583Y-68580000D01*
X145815300Y-68374066D01*
X145755232Y-68176046D01*
X145657685Y-67993550D01*
X145605702Y-67930209D01*
X145526410Y-67833589D01*
X145366452Y-67702317D01*
X145366453Y-67702317D01*
X145366450Y-67702315D01*
X145183954Y-67604768D01*
X144985934Y-67544700D01*
X144985932Y-67544699D01*
X144985934Y-67544699D01*
X144780000Y-67524417D01*
X144574067Y-67544699D01*
X144376043Y-67604769D01*
X144265898Y-67663643D01*
X144193550Y-67702315D01*
X144193548Y-67702316D01*
X144193547Y-67702317D01*
X144033589Y-67833589D01*
X143902317Y-67993547D01*
X143804769Y-68176043D01*
X143744699Y-68374067D01*
X143724417Y-68580000D01*
X142240000Y-68580000D01*
X142240000Y-66040000D01*
X143724417Y-66040000D01*
X143744699Y-66245932D01*
X143744700Y-66245934D01*
X143804768Y-66443954D01*
X143902315Y-66626450D01*
X143902317Y-66626452D01*
X144033589Y-66786410D01*
X144130209Y-66865702D01*
X144193550Y-66917685D01*
X144376046Y-67015232D01*
X144574066Y-67075300D01*
X144574065Y-67075300D01*
X144592529Y-67077118D01*
X144780000Y-67095583D01*
X144985934Y-67075300D01*
X145183954Y-67015232D01*
X145366450Y-66917685D01*
X145526410Y-66786410D01*
X145657685Y-66626450D01*
X145755232Y-66443954D01*
X145815300Y-66245934D01*
X145835583Y-66040000D01*
X145815300Y-65834066D01*
X145801933Y-65790000D01*
X171698590Y-65790000D01*
X172286988Y-65790000D01*
X172254075Y-65847007D01*
X172220000Y-65974174D01*
X172220000Y-66105826D01*
X172254075Y-66232993D01*
X172286988Y-66290000D01*
X171698590Y-66290000D01*
X171745233Y-66443766D01*
X171842728Y-66626166D01*
X171842732Y-66626173D01*
X171973944Y-66786055D01*
X172133826Y-66917267D01*
X172133833Y-66917271D01*
X172316233Y-67014766D01*
X172470000Y-67061410D01*
X172470000Y-66473012D01*
X172527007Y-66505925D01*
X172654174Y-66540000D01*
X172785826Y-66540000D01*
X172912993Y-66505925D01*
X172970000Y-66473012D01*
X172970000Y-67061410D01*
X173123766Y-67014766D01*
X173306166Y-66917271D01*
X173306173Y-66917267D01*
X173466055Y-66786055D01*
X173597267Y-66626173D01*
X173597271Y-66626166D01*
X173694766Y-66443766D01*
X173741410Y-66290000D01*
X173153012Y-66290000D01*
X173185925Y-66232993D01*
X173220000Y-66105826D01*
X173220000Y-65974174D01*
X173185925Y-65847007D01*
X173153012Y-65790000D01*
X173741410Y-65790000D01*
X173694766Y-65636233D01*
X173597271Y-65453833D01*
X173597267Y-65453826D01*
X173466055Y-65293944D01*
X173306173Y-65162732D01*
X173306166Y-65162728D01*
X173123763Y-65065232D01*
X172970000Y-65018587D01*
X172970000Y-65606988D01*
X172912993Y-65574075D01*
X172785826Y-65540000D01*
X172654174Y-65540000D01*
X172527007Y-65574075D01*
X172470000Y-65606988D01*
X172470000Y-65018587D01*
X172316236Y-65065232D01*
X172133833Y-65162728D01*
X172133826Y-65162732D01*
X171973944Y-65293944D01*
X171842732Y-65453826D01*
X171842728Y-65453833D01*
X171745233Y-65636233D01*
X171698590Y-65790000D01*
X145801933Y-65790000D01*
X145755232Y-65636046D01*
X145657685Y-65453550D01*
X145526701Y-65293944D01*
X145526410Y-65293589D01*
X145366452Y-65162317D01*
X145366453Y-65162317D01*
X145366450Y-65162315D01*
X145183954Y-65064768D01*
X144985934Y-65004700D01*
X144985932Y-65004699D01*
X144985934Y-65004699D01*
X144780000Y-64984417D01*
X144574067Y-65004699D01*
X144376043Y-65064769D01*
X144265898Y-65123643D01*
X144193550Y-65162315D01*
X144193548Y-65162316D01*
X144193547Y-65162317D01*
X144033589Y-65293589D01*
X143902317Y-65453547D01*
X143902315Y-65453550D01*
X143902164Y-65453833D01*
X143804769Y-65636043D01*
X143744699Y-65834067D01*
X143724417Y-66040000D01*
X142240000Y-66040000D01*
X142240000Y-63500000D01*
X143724417Y-63500000D01*
X143744699Y-63705932D01*
X143744700Y-63705934D01*
X143804768Y-63903954D01*
X143902315Y-64086450D01*
X143902317Y-64086452D01*
X144033589Y-64246410D01*
X144130209Y-64325702D01*
X144193550Y-64377685D01*
X144376046Y-64475232D01*
X144574066Y-64535300D01*
X144574065Y-64535300D01*
X144592529Y-64537118D01*
X144780000Y-64555583D01*
X144985934Y-64535300D01*
X145183954Y-64475232D01*
X145366450Y-64377685D01*
X145526410Y-64246410D01*
X145657685Y-64086450D01*
X145755232Y-63903954D01*
X145815300Y-63705934D01*
X145835583Y-63500000D01*
X171664417Y-63500000D01*
X171684699Y-63705932D01*
X171684700Y-63705934D01*
X171744768Y-63903954D01*
X171842315Y-64086450D01*
X171842317Y-64086452D01*
X171973589Y-64246410D01*
X172070209Y-64325702D01*
X172133550Y-64377685D01*
X172316046Y-64475232D01*
X172514066Y-64535300D01*
X172514065Y-64535300D01*
X172532529Y-64537118D01*
X172720000Y-64555583D01*
X172925934Y-64535300D01*
X173123954Y-64475232D01*
X173306450Y-64377685D01*
X173466410Y-64246410D01*
X173597685Y-64086450D01*
X173695232Y-63903954D01*
X173755300Y-63705934D01*
X173775583Y-63500000D01*
X173755300Y-63294066D01*
X173695232Y-63096046D01*
X173597685Y-62913550D01*
X173545702Y-62850209D01*
X173466410Y-62753589D01*
X173306452Y-62622317D01*
X173306453Y-62622317D01*
X173306450Y-62622315D01*
X173123954Y-62524768D01*
X172925934Y-62464700D01*
X172925932Y-62464699D01*
X172925934Y-62464699D01*
X172720000Y-62444417D01*
X172514067Y-62464699D01*
X172316043Y-62524769D01*
X172205898Y-62583643D01*
X172133550Y-62622315D01*
X172133548Y-62622316D01*
X172133547Y-62622317D01*
X171973589Y-62753589D01*
X171842317Y-62913547D01*
X171744769Y-63096043D01*
X171684699Y-63294067D01*
X171664417Y-63500000D01*
X145835583Y-63500000D01*
X145815300Y-63294066D01*
X145755232Y-63096046D01*
X145657685Y-62913550D01*
X145605702Y-62850209D01*
X145526410Y-62753589D01*
X145366452Y-62622317D01*
X145366453Y-62622317D01*
X145366450Y-62622315D01*
X145183954Y-62524768D01*
X144985934Y-62464700D01*
X144985932Y-62464699D01*
X144985934Y-62464699D01*
X144780000Y-62444417D01*
X144574067Y-62464699D01*
X144376043Y-62524769D01*
X144265898Y-62583643D01*
X144193550Y-62622315D01*
X144193548Y-62622316D01*
X144193547Y-62622317D01*
X144033589Y-62753589D01*
X143902317Y-62913547D01*
X143804769Y-63096043D01*
X143744699Y-63294067D01*
X143724417Y-63500000D01*
X142240000Y-63500000D01*
X142240000Y-61424000D01*
X142259685Y-61356961D01*
X142312489Y-61311206D01*
X142364000Y-61300000D01*
X143696261Y-61300000D01*
X143763300Y-61319685D01*
G37*
%TD.AperFunction*%
%TD*%
M02*
